<?xml version="1.0" encoding="UTF-8" standalone="no"?>
<svg xmlns:rdf="http://www.w3.org/1999/02/22-rdf-syntax-ns#" xmlns="http://www.w3.org/2000/svg" height="628pt" width="998pt" version="1.1" xmlns:cc="http://creativecommons.org/ns#" xmlns:xlink="http://www.w3.org/1999/xlink" viewBox="0 0 998 628" xmlns:dc="http://purl.org/dc/elements/1.1/">
<defs>
<linearGradient id="a">
<stop stop-color="#0ff" offset="0"/>
<stop stop-color="#000aff" offset="1"/>
</linearGradient>
<linearGradient id="c" y2="324.26" xlink:href="#a" gradientUnits="userSpaceOnUse" x2="512.02" y1="324.26" x1="11.158"/>
<linearGradient id="b" y2="286.45" xlink:href="#a" gradientUnits="userSpaceOnUse" x2="520.7" y1="286.45" x1="988.08"/>
</defs>
<g fill-rule="evenodd">
<path d="m497.14 244.92v12.398l-17.357 18.596-14.877 22.316-3.7192 22.316 11.158 21.076 1.2398 16.117 28.514 18.596 33.473-4.959 11.158-13.637 2.4795-3.7193-4.959-23.555 40.912-22.316-44.631-32.234-14.877-18.596 6.1988-21.076-2.4795-8.6783h-7.4385l3.7193-12.398-23.555 1.2398 3.7192 11.158-12.398 6.1988z" fill="#874000"/>
<path d="m541.77 272.19 70.666-86.783 102.9-88.022 71.906-49.59 89.262-33.473 58.268-7.4385 42.152 23.555 11.158 50.83-13.637 50.83-24.795 49.59-17.356 85.543-23.555 47.111-73.145 6.1988h-53.309l37.193 21.076 30.994 24.795 27.274 57.029-1.2398 29.754-12.398 49.59-24.795 32.234-34.713 34.713-44.631 32.234-68.186 11.158-63.227-6.1988-32.234-19.836-14.877-27.275-38.432-105.38-22.316-55.789 12.398-28.514 13.637-8.6783 2.4795-9.918-1.2398-17.357 16.117-16.117z" fill="url(#b)"/>
<path d="m27.275 53.995 21.076-26.035 37.193 4.959 45.871 3.7193 45.871 11.158 90.502 35.953 111.58 81.824 97.94 100.42-7.4385 27.275-7.4385 28.514 11.158 21.076-1.2398 18.596 26.035 8.6783 13.637 18.596-11.158 27.275-8.6782 11.158-24.795 76.865-23.555 65.707-17.357 27.275-23.555 9.918-35.953 9.918-55.789 3.7192-49.59-13.637-47.111-32.234-42.152-44.631-11.158-21.076-13.637-61.988 18.596-57.029 27.275-30.994 45.871-34.713-89.262 7.4385h-39.672l-21.058-24.8-22.315-79.34-7.439-28.51-13.637-29.76-21.076-30.99-13.637-47.112z" fill="url(#c)"/>
</g>
<path d="m926.28 0h9.29c25.52 1.43 55.22 11.24 62.43 38.47v9.01c-5.3 6.69-2.19 15.46 0 22.68v7.19c-6.89 11.91-2.48 26.57-9.13 38.47-18.4 18.47-15.9 47.78-33.71 66.64 0.84 22.09-7.74 41.97-14.64 62.23 1.34 26.09-12.41 49.62-25.71 71-2.2 5.21-7.48 7.64-12.74 8.59-33.94 6.69-68.79 3.87-102.86-0.29 17.65 12.54 41.59 22.23 58.12 38.7 12.96 24.75 28.91 49.12 34.52 76.94-8.94 17.78-20.2 35.93-17.88 57.13 1.3 15.66-18.99 17.88-22.64 31.54-10.11 7.66-10.85 20.33-16.49 30.61-21.9 10.21-43.52 23.83-56.68 44.58-21.47 3.81-43.05 8.97-62.99 18.11-33.24-3.3-70.86 3.82-99.16-18.73-21.62-3.43-27.47-27.83-36.43-44.45-17.16-43.31-33.16-87.1-47.47-131.42-1.01-2.16-1.59-5.92-4.78-4.99-0.29 40.52 15.01 82.87-2.42 121.83-1.23 4.16-5.76 13.86-11.18 8.53-24.9-36.66-2.27-82.73-13.43-122.85-2.4-1.5-5.33-0.05-6.55 2.25-22.38 56.38-31.99 119.85-68.2 169.82-25.04 4.9-45.82 28.23-73.17 21.5-8.28 5.1-18.07 2.23-27.04 4.91h-14.58c-23.7-15.21-62.29-3.64-75.12-33.63-14.25-9.74-28.87-20.16-45.26-26.73-7.42-15.03-14.33-31.22-27.41-42.44-3.32-3.32-9.5-5.48-9.51-10.98 0.06-20.27-3.39-41.86-15.61-58.41-1.07-29.18 18.13-53.76 29.47-79.39 13.79-15.39 30.81-27.37 47.77-38.92-34.14 1.41-70.75 13.03-104.06 0.56-19.8-20.24-34.95-47.11-37.48-75.72-3.27-10.95-7.37-21.66-12.23-32.01-4.56-10.92 2.57-25.94-7.66-34.14-7.89-11.32-16.99-22.65-18.87-36.82-1.77-9.62-12.36-13.3-17.68-20.51-6.14-8.69-4.83-20.12-9.6-29.4-7.13-11.77 2.04-27-7.51-37.97v-3.58c0.59-11.22 6.63-21.31 12.24-30.67 24.56-15.91 55.83-16.49 84.06-13.65 61.65 8.42 120.16 32 175.61 59.5 80.86 46.22 157.53 103.44 213.01 178.94 7.62 9.04 9.82-9.45 9.8-14.51-5.96-7.78-4.73-20.34 6.13-22.79-20.29-32.96-53.88-54.65-78.05-84.53-10.41-15.16-28.7-24.78-35.46-42.14 7.93 0.68 12.03 9.36 17.12 14.5 28.37 35.75 63.06 66.07 93.54 99.53 9.57 3.13 19.64 9.61 28.06-0.01 25.22-29.25 52-57.8 74.72-89.31 7.56-6.39 13.7-23.25 24.07-21.53-5.67 13.68-21.37 20-28.53 33.08-21.69 32.64-54.95 57.17-72.15 92.57 8.64 1.13 18.27 10.61 10.4 18.69-4.17 4.03 0.44 28.75 7.79 16.73 19.57-36.37 46.07-68.66 76.51-96.45 55.44-51.27 115.34-99.75 185.33-129.67 38.15-19.06 79.51-32.25 122.08-36.19m4.4 14.45c-18.86 3.67 12.51 16.14 16.4 7.79-4.5-3.95-9.69-10.03-16.4-7.79m-70.43 12c-5.37 2.2-13.89 3.9-16.04 9.36 4.62 1.31 37.15-11.31 16.04-9.36m-799.65 9.83c-3.93 3.02-8.65 7.12-10.41 11.52 7.56 2.15 15.53-2.29 21.91-5.83-1.24-4.65-7.21-6.55-11.5-5.69m811.95 1.23c-7.08 1.03-15.89 2.68-18.53 10.46 2.92 2.19 3.64 5.27 1.01 8.05 9.62 5.21 29.73 4.26 30.32-9.44-6.99-1.2-4.67-12.57-12.8-9.07m83.93 6.96c-4.39 6.72 0.69 15.46 9.81 12.27 8.81-4.9-3.88-13.85-9.81-12.27m-821.95 0.6c3.05 6.34 18.89 8.88 26.14 8.92-4.61-7.23-17.58-8.43-26.14-8.92m-13.14 10.19c4.9 8.06-6.31 8.27-5.21 14.29 9.43 7.27 22.7 9.23 33.76 4.42-1.7-3.12-2.34-5.92 1.12-8-7.33-7.2-19.42-10.85-29.67-10.71m792.08 11.23c-5.47 0.5-12.29 2.51-15.36 7.31 4.2 2.76 7.1 6.88 6.56 12.26 8.78 6.25 16.86-0.13 24.24-5.23-1.68-7.82-5.35-17.3-15.44-14.34m-873.95 1.93c-6.77-0.41-13.33 13.79-2.29 12.32 8.83 3.17 11.03-15.18 2.29-12.32m723.92-0.13c-11.64 5.91-22.7 13.99-31.52 23.65-0.54 1.33-6.41 6.43-1.97 6.93 12.81-5.65 24.42-13.82 34.65-23.26 2.9-2.45 5.02-9.3-1.16-7.32m30.91 0.06c-8.27 0.78-16.22 7.02-21.28 12.55 8.32-2.34 15.36-7.83 23.67-10.33 0.66-2.13-0.34-2.93-2.39-2.22m-572.35 9.73c6.91 9.8 13.24 3.24 0 0m746.44 0.27c-0.13 4.91-6.62 10.05 1.22 11.18 10.65 3.85 7.76-14.07-1.22-11.18m-726.45 2.05c1.67 15.1 24.13 23.01 37.46 29.18 5.04 1.75 2.57-3.62 0.08-5.13-11.4-9.42-23.54-19.04-37.54-24.05m558.57 2.07c-16.46 4.37-41.72 5.31-47.45 24.49 17.72 3.53 34.39-8.64 51.6-12.24 9.8-0.54 6.56-17.04-4.15-12.25m-589.32 1.67c2.01 4.34 12.88 8.52 17.62 7.2-5.03-3.49-11.49-6.07-17.62-7.2m-123.6 2.3c-9.8-1.97-12 8.4-11.62 15.76 8 8.05 28.85 7.84 29.01-6.24 1.83-9.54-10.9-11.41-17.39-9.52m112.17 12.81c-2.35 0.82-8.64 5.35-3.8 6.86 18.46 3.63 36.1 11.32 54.77 13.78 8.97-1.95 0.22-13.42-5.21-13.88-15.03-3.43-30.06-8.94-45.76-6.76m716.85 1.78c-11.03 11.89 18.55 14.84 17.21 2.27-4.13-4.3-11.89-1.6-17.21-2.27m-886.11 1.36c-7.9-0.61-5.68 12.23 0.47 11.69 9.39 3.92 8.84-17.19-0.47-11.69m800.81 1.33c-11.65 3.53-33.61-1.18-36.32 14.08 17.57 10 38.27-1.7 56.36-5.55 2.61-10.9-13.23-8.65-20.04-8.53m135.1 8.53c-8.89 1.8-0.67 10.05 4.62 6.9 4.82-2.29-0.57-8.95-4.62-6.9m-798.9 6.2c-4.35 0.67-10.41 1.52-11.61 6.5 15.4 7.57 33.42 9.02 50.47 9.54 3.64-0.01 15.67-5.3 9.19-9.17-15.05-6.41-31.84-8.3-48.05-6.87m-87.76 0.84c-16.89 7.06 9.67 12.42 14.23 5.66 0.63-6.97-9.82-5.92-14.23-5.66m862.78 4.17c-17.66 3.34 16.49 15.88 13.19 1.89-2.94-3.15-9.16-1.77-13.19-1.89m-250.23 5.67c-2.81 4.67-3.94 10.86-11.42 9.67-2.85 9.4-14.74 12.91-18.79 21.02 5.34 10.27 18.52 10.55 28.75 11.41-4.3 11.76 12.92 20.27 22.42 14.19 14.84-8.32 32.67-22.81 31.02-41.76-18.5-18.35-34.81 10.75-53.55 7.82-3.28-7.38 15.06-18.99 1.57-22.35m186.96 4.26c-5.76 1.2-12.21 4.62-12.16 11.28 8.03 6.4 20.63 9.52 29.98 4.42 1.91-8.93-10.46-14.82-17.82-15.7m-840.91 0.84c-7.24 0.84-4.33 12.74 2.42 7.89 8.73-1.53 3.93-8.9-2.42-7.89m273.04 4.1c-2.17 5.41 11.35 11.95 11.4 19.55-18.94 7.01-34.33-21.82-52.73-6.34-4.35 21.84 17.7 38.1 36.19 44.46 11.37 1.73 14.78-9.29 18.88-16.87 8.81-3.63 20.49-6.38 26.77-13.01-9.88-12.64-25.6-22.92-40.51-27.79m-248.95 4.14c-4.57 0.06-12.73 0.9-8.95 7.81 8.47 7.99 27.29-9.03 8.95-7.81m713.26 6c-9.36 3.01-18.64 11.41-20.58 21.1 6.44 8.06 21.06 3.76 30.14 2.89 14.78-4.19 5.58-29.95-9.56-23.99m-649.15 0.95c-7.31 1.66-16.88 9.1-15.07 16.99 12.55 2.58 27.25-0.33 36.4-9.66-0.7-9.07-15.31-7.07-21.33-7.33m816.95 3c-9.45 3.06-12.22 12.45 0.07 14.22 12.16 2.9 8.42-13.1-0.07-14.22m-714.09 6.02c-5.81 0.39-16.58 5.85-11.8 12.84 3.87 16.34 25.8 15.86 37.59 9.66 1.33-12.44-14.25-22.94-25.79-22.5m609.6 2.04c-6.64-1.17-21.29 3.99-14.08 11.51 8.47 10.76 26.27-6.85 14.08-11.51m61.62 8.82c-14.97 6.64 18.03 20.06 21.28 8.72-0.39-9.63-14.56-7.9-21.28-8.72m-835.25 1.95c-6.45 1.61-11.36 15.68-1.6 15.26 12.57 2.37 15.4-16.4 1.6-15.26m105.1 2.2c-5.83-1.05-7.25 5.94-2.9 8.91 5.66 8.59 17.1 3.96 22.5-2.37-4.58-5.47-12.68-7.92-19.6-6.54m-64.21 10.82c-8.74 1.83-20.24 2.76-22.29 13.65 8.43 6.48 20.51-0.49 28.97-3.88 9.63-4-1.14-11.09-6.68-9.77m655.96 3.17c-9.82-0.31-23.85 3.03-23.8 14.95 13.51 22.01 40.9 23.22 64.3 24.72 8.55-1.13 19.17-7.72 19.04-17.64-7.09-4.84-12.51-11.61-18.62-17.54-13.62-1.42-26.97-5.91-40.92-4.49m88.48 2.06c-5.61 1.03-11.93 7.13-7.12 12.75 11.77 7.41 26.32 12.73 40.13 9.53 4.07-16.81-20.12-23.15-33.01-22.28m-192.93 5.07c-13.03 4.28-22.54 15.22-36.21 17.99-22.47 15.73-43.38 34.48-58.52 57.54 33.03-14.47 63.89-33.3 96.66-48.3 6.04-2.72 10.03-8.39 13.67-13.65 3.68-8.62-8.1-15.85-15.6-13.58m-413.22 1.93c-16.66 2.59-39.33 2.2-47.67 20.37-11.58 8.55 2.92 18.73 11.24 21.9 23.56-4.63 54.92-3.45 65.68-29.92-2.42-13.18-18.73-13.56-29.25-12.35m107.93 1.89c-5.17 3.45-18.03 5.94-13.06 14.01 11.48 18.78 36.26 21.91 54.95 30.16 19.96 8.94 39.81 18.53 60.52 25.4-23.96-34.84-63.29-56.89-102.41-69.57m-201.07 4.01c-10.61 4.84-32.45 11.01-20.14 25.49 13.04-2.33 30.46-2.26 37.69-15.39 2.57-10.89-10.7-9.9-17.55-10.1m774.73 6.86c-8.8 2.18-10.79 18.35 1.06 16.59 12.92 4.91 9.57-17.33-1.06-16.59m-418.01 12.09c-6.65 3.72 5.65 3.77 0 0m12.11 0.04c-5.68 3.5 3.08 4.48 0 0m333.14 1.85c-4.09 0.88-5.78 5.37-4.08 9.17 2.11 19.82 39.68 23.37 36.61-1.26-7.91-7.6-21.7-7.5-32.53-7.91m-341.9 3.08c-5.35 10.21 16.09-2.08 0 0m-426.85 1.21c-7.84 1.43-11.79 13.78-3.43 17.2 5.35-1.32 12.7-2.41 15.45-7.91-0.6-5.5-6.3-11.24-12.02-9.29m415.56 3.87c-1.37 6.01 6.02-1.23 0 0m24.86 0.8c-4.15 4.52 5.83 1.89 0 0m165.45 0.28c-21.58 3.03-36.8 21.4-57.35 27.61-2.85 0.1-7.91 5.77 0.09 2.35 35.84-11.68 73.44-1.41 110.03-1.42 6.8-5.52 3.05-18.67-5.63-20.97-15.29-4.44-30.94-9.71-47.14-7.57m-537.9 4.02c-9.26 1.95-20.48 4.18-26.59 11.76 3.1 19.22 34.89 17.7 38.17-1.06 5.02-7.69-2.82-15.93-11.58-10.7m765.05-0.26c-8.12 4.3-3.7 19.86 6.51 15.78 14.09-2.7 3.23-19.26-6.51-15.78m-412.49 0.78c-3.12 4.93 6.97-0.38 0 0m13.97 0.22c-3.84 4.95 7.35 0.61 0 0m-207.62 1.29c-11.56 0.81-22.35 5.24-33.27 8.69-5.06 1.77-11.81 5.96-7.93 11.87-9.29 6.57 0.12 13.7 7.98 10.31 34.07-6.2 69.16-12.4 103.51-4.3-3.94-7.91-17.61-4.32-23.14-11.88-13.65-9.3-30.47-15.81-47.15-14.69m132.47 6.42c7.41 10.34 14.06 22.3 25.46 28.7 4.77 1.24 0.46-3.73-1.57-4.6-10.42-5.62-13.79-18.4-23.89-24.1m60.22 5.34c-9.23 6.12 5.87 5.64 0 0m15.13-0.14c-3.48 7.41 11.05 0.69 0 0m-425.11 1.32c-4.44 2.02-11.93 0.97-12.8 7.1-2.79 10.65 17.61 14.95 19.48 4.14-0.43-4.28-0.38-12.69-6.68-11.24m474.37 1.25c-5.82 7.92-14.35 14.25-19.48 22.21 8.85-2.31 18.08-16.12 19.48-22.21m227.75 0.66c-4.22 1.7-8.62 2.95-13.15 1.61 4.04 5.76 0.01 14.06 8.3 17.84 1.05 16.29 33.73 19.55 32.43 1.23 9.64-1.1 0.66-6.72-3.54-9.51-3.92-9.63-15.2-10.44-24.04-11.17m-571.76 12.17c-7.32 3.15-16.77-2.45-22.39 4.74-3.89 5.71-8.87 11.02-14.13 14.74 2.62 3.45 11.68 3.38 4.97 9.13 9.25 12.39 35.02 3.77 33.69-12.86 8.23-2.43 8.88-20.35-2.14-15.75m286.7-0.98c-5.78 15.85-2.95 36.45-2.44 51.31 3.03-15.29 3.19-34.85 2.44-51.31m-20.87 1.71c-8.2 8.31 7.85 1.11 0 0m39.52-0.1c0.42 11.28 9.93 2.41 0 0m169.57 5.4c-34.67 1.38-71.46 0.9-104.4 7.35 5.82 3.64 16.36 4.75 24.18 4.74 42.52 3.69 87.61 5.87 128.45-3.79-11.33-10.82-32.32-8.62-48.23-8.3m205.16 1.71c-14.83 5.84 1.21 16.85 11 11.39 3.87-6.82-3.06-15.71-11-11.39m-592.58 4.15c-15.32 2.01-31.3 0.48-43.4 12.06 34.52 6.07 69.85 3.33 104.45-0.16 17.58-3.49 36.58-1.96 53.19-9.44-37.91-4.83-76.28 0.6-114.24-2.46m180.4-0.19c-1.72 1.14-2.72 3.04-3.56 4.87 3.64 4.36 8.54-6.65 3.56-4.87m34.45 0.05c-0.44 13.01 9.86 1.61 0 0m-48.55 7.93c-4.83 0.23-4.91 9.41 1.56 5.08 5.85-1.15 3.75-6.86-1.56-5.08m64.98 2.28c-4.69-0.07-8.47 1.9-2.64 4.76 4.43 6.01 9.03-6.45 2.64-4.76m-441.65 0.59c-5.66 2.22-4.04 8.98-2.11 13.41 6.98 1.93 14.41-1.03 20.32-4.74-1.22-8.04-11.81-9.36-18.21-8.67m392.43 1.64c-3.55 5.02-6.35 15.41-1.3 19.21 2.6-4.61 5.04-14.81 1.3-19.21m356.54 1.65c-4.79-0.37-5.74 5.52-5.55 9.19 8.5 4.24 23.17 11.67 27.82-0.61-3.73-8.66-14.02-10.49-22.27-8.58m-325.62 0.78c-2.81 4.23-1.11 11.25 0.8 16.05 5.98-2.75 4.85-15.26-0.8-16.05m371.24 7.84c-3.59 8.37 5.76 11.75 11.59 7.87 3.01-7.77-6.66-8.91-11.59-7.87m-733.03 4.41c-5.83 0.96-19 1.38-14.29 10.36 1.84 12.34 15.48 4.67 21.78 0.99 5.78-4.32-1.72-12.99-7.49-11.35m-49.48 11.99c-11.75 2.59 1.59 15.28 7.39 8.04 4.48-4.99-1.47-11.57-7.39-8.04m353.17 2.78c-0.54 11.48 14.97-1.86 0 0m80.57 1.08c-6.12 8.95 16.98-2.5 0 0m-104.17 2.04c-29.25 7.53-61.89 9.08-86.37 28.65-7.64 3.39-8.7 16.47-7.03 21.98 24.58-9.73 47.92-23.72 73.6-31.25 3.24-1.86 13.87-5.2 10.72 1.45-20.39 11.94-38.38 27.67-59.03 39.17-17.21 10.04-45.21 17.36-47.23 40.61 0.32 8.99 11.65 2.01 16.15 1.38 42.21-23.76 79.15-55.69 114.06-89.05 10.74-8.65-8.04-13.88-14.87-12.94m128.13 0.16c-5.54 1-10.9 3.39-15.51 6.59 5.05 8.63 14.04 13.96 20.98 20.92 33.22 25.96 65.19 54.77 103.91 72.32 17.89 7.08 9.78-15.05 4.85-22.06-8.88-8.15-21.46-10.32-31.63-16.49-19.76-6.51-34.82-22.17-53.19-31.66-4.25-3.46-12.62-5.73-12.74-11.97 28.96 4.51 54.96 19.61 82.4 29.14-1.77-6.97-1.99-14.7-6.15-20.8-27.52-17.43-61.27-22.19-92.92-25.99m122.9 7.95c-6.56 3.49-20.86 0.24-22.42 8.2 12.98 6.62 31.72 11.62 44.78 2.96-2.07-7.78-14.41-11.65-22.36-11.16m76.33-0.18c-14.17 7 6.06 31.36 12.71 15.1 6.89-8.14-4.51-17.3-12.71-15.1m-454.84 5.08c-5.26 3.84-13.27 5.01-15.69 11.57 14.41 2.79 37.31 5.91 47.74-7.87-8.47-3.96-21.89-4-32.05-3.7m-67.66 2.01c-8.06 0.26-20.25 11.75-10 17.38 3.71 7.63 12.5 1.02 17.17-2.6 0.38-4.42 0.02-15.86-7.17-14.78m220.12 5.78c-18.49 25.53-44.95 43.04-65.43 66.89-13.46 21.54-20.51 46.28-30.49 69.52-1.34 3.14-3.66 10.6 2.05 9.53 8.36-7.93 3.06-22.44 12.35-30.24 14.41-30.46 39.67-53.72 58.69-81.18 1.54-2.55 6.29-8.73 8.37-3.61-18.68 42.76-43.34 82.6-64.97 123.91-3.86 6.05-6.06 22.12 4.67 21.36 7.03-10.42 5.06-23.64 11.1-34.55 16.24-38.32 44.04-70.69 57.7-110.29 3.74-9.67 9.79-22.65 5.96-31.34m81.62 0.24c11.02 63.28 64.33 109.59 79.43 171.14 4.64 6.2 7.6-4.11 9.09-7.73-1-12.5-10.7-21.74-15.34-32.94-19.37-32.16-38.58-64.45-54.63-98.43-1.8-2.3 1.89-4.81 3.33-2.39 21.3 25.03 41.96 50.62 59.97 78.11 12.55 8.47 8.41 27.55 19.34 36.72 4.53-6.72-3.61-17.17-6.65-24.42-7.21-20.91-15.64-42.08-29.28-59.7-21.89-19.71-45.39-40.26-65.26-60.36m-74.54 3.02c-6.82 6.12 2.47 5.13 0 0m69.6 2.52c-0.32 6.7 6.69-0.29 0 0m281.11 4.34c-8.73 3.35 3 17.64 8.68 11.57 2.36-6.05-3.3-11.37-8.68-11.57m-143.94 5.99c-4.29 18.03 21.23 24.61 34.6 27.9 15.3 4.35 28.41 14.09 43.91 17.69 4.46-2.13 3.71-8.4 4.72-12.68-6.83-18.01-28.71-21.92-45.14-23.99-12.38-2.48-25.38-6.99-38.09-8.92m85.59 0.05c-5.81 5.64 11.34 12.18 13.78 7.31-1.39-5.93-8.12-8.92-13.78-7.31m-283.63 1.34c-2.6 4.28 3.8 1.83 0 0m-149.72 1.72c-22.07 9.69-47.41 10.44-68.48 22.69-4.95 7.41-14.72 15.07-9.56 24.87 17.04 0.18 29.55-12.4 44.97-17.4 12.01-6.15 29.73-6.33 35.67-20.75 1.43-2.82 2.4-10.96-2.6-9.41m201.86 0.03c-2.99 6.18 5.36 0.64 0 0m-60.16 0.68c-12.79 57.82-57.7 102.81-66.07 162.1-0.62 13.09 8.35-2.1 9.75-7.26 12.14-31.97 21.64-64.81 35.91-95.9 1.08-2.66 0.51-8.1 5-6.78-5.71 34.48-16.46 67.93-26.31 101.4-1.34 5.9-3.47 13.87 1.78 18.46 5.83-0.68 7-7.78 8.65-12.23 11.47-45.3 23.34-90.45 32.95-136.19-0.53-7.05 2.03-18.32-1.66-23.6m-223.75 2.39c-4.6 1.48-11.75 3.54-11.27 9.55 4.87 5.84 24.02-8.49 11.27-9.55m291.65-0.01c-2.07 16.38 2.88 32.13 6.61 47.85 11.72 37.41 20.94 75.5 33.12 112.78 1.02 5.08 12.12 7.73 9.21-0.96-8.93-35.86-24.73-73.22-28.33-108.77 19.69 32.62 28.13 72.43 44.73 107.22 2.36 5.83 7.74-1.01 4.74-4.64-9.57-53.15-47.19-94.69-63.65-145.25-1.64-2.76-2.89-9.83-6.43-8.23m-352.21 0.78c-7.73 0.98-7.83 16.7 0.89 11.94 8.52-0.72 9.87-16.34-0.89-11.94m293.11 3.1c-0.48 9.43 1.11 19.11-1.36 28.36-13.05 52.52-25.84 105.17-39.55 157.48-2.33 1.41-2.72 13.39 1.12 8.06 19.15-52.12 34.84-105.39 50.92-158.5 4.45-13.12-3.15-27.82-11.13-35.4m49.25 5.92c-1.69 9.56-4.76 18.92-5.02 28.7 11.47 42.36 27.65 83.21 42.32 124.53 3.8 8.77 5.12 19.23 11.38 26.62-13.87-56.01-30.27-111.33-46.22-166.78-1.96-3.4 2.66-13.03-2.46-13.07m128.86 0.97c3.12 6.48 12.9 13.12 19.45 15.57 3.38-8.6-12.36-14.13-19.45-15.57m-312.11 5.93c-8.53-0.39-18.99 10.1-13.33 17.66 3.97-5.74 13.32-11.12 13.33-17.66m485.39 5.06c-3.28 3.88 8.31 6.55 12.35 6.75 0.67-5.6-8.43-6.51-12.35-6.75m-138.36 4.86c-2.75 11.98 7.47 23.44 16.12 30.8 13.86 15.18 36.07 15.61 55.06 16.06 3.23-2.98 9.4-9.57 1.75-11.85-23.93-12.37-48.48-23.82-72.93-35.01m109.46 1.43c-5.79-0.2-4.08 7.36-8.21 9.9 1.4 15.33 22.38 23.66 31.51 9.22-2.11-10.17-12.34-19.66-23.3-19.12m-621.95 3.86c-3.66 1.55-7.31 3.38-10.36 5.97 1.13 9.41 22.92-6.94 10.36-5.97m134.06 0.13c-23.02 12.44-47.38 23.58-69.01 38.41-5.64 13.33 10.63 12.15 18.18 8.1 23.96 1.61 46.44-17.03 54.13-39.2 1.09-2.93 3.21-10.41-3.3-7.31m-106.88 3.93c-9.03 3.73-18.99 11.12-18.62 21.88 5.45 6.75 17 12.4 22.96 2.85 11.21-4.01 10.78-29.92-4.34-24.73m433.09 18.53c2.23 17.36 15.77 31.93 21.62 48.6 2 2.1 1.82 8.37 5.61 8.22-3.74-17.52-19.27-31.42-21.48-49.14 15.42 4.39 27.02 18.79 35.65 32.5 4.73-4.1-5.32-9.85-6.51-13.79-7.53-13.73-23.69-17.03-34.89-26.39m146.54 1.33c-1.14 4.3 4.66 6.69 7.78 8.74 7.77-2.82-3.32-10.76-7.78-8.74m-417.88 2.2c-16.04 9.41-35.25 19.42-39.53 39.15 9.35-10.62 17.15-29.51 34.87-30.35-3.94 17.66-16.87 32.3-21.52 49.99 1.11-0.43 2.87-0.25 3.35-1.58 7.12-19.16 17.82-36.75 24.92-55.92 0.91-1.32-1.33-2.24-2.09-1.29m-144.24 6.03c-4.38 1.1-7.91 4.14-11.41 6.82 2.26 8 19.56-4.31 11.41-6.82m635.87 1.92c-4.93 1.45-11.59 5.86-9.53 11.79 1.88 5.91 11.51 7.7 14.54 1.83 3.64-4.43 0.52-12.86-5.01-13.62m-174.7 5.01c-3.66 4.9 5.83 12.92 9.88 16.17 6.13-2.62-11.94-12.12-3.32-14.42 6.42 1.63 9.77 9.86 16.64 9.75-2.53-8.42-15.31-11.05-23.2-11.5m-364.77 4.12c-7.57 0.67-15.03 5.22-19.5 10.49 5.36 6.03 11.55-11.58 18.6-5.87 0.82 5.41-10.43 9.01-6.91 13.5 5.76-1.99 20.1-19.94 7.81-18.12m-166.77 1.87c-10.84 2.07-2.77 23.29 6.41 17.03 9.08-3.69 3.23-21.16-6.41-17.03m651.1 8.96c-17.16 9.63 1.89 34.97 17.27 28.06 8-11.72-1.61-31.21-17.27-28.06m-43.25 4.92c-4.92 4.66 6.83 11.7 10.21 5.59 0.34-4.86-6.54-6.46-10.21-5.59m-558.23 3.08c-14.76 2.52-15.7 18.06-11.77 28.97 10.97 6.19 20.09-9.17 24.28-17.31-2.87-4.25-6.81-12.04-12.51-11.66m41.31 4.01c-4.3 1.07-13.07 10.23-2.92 8.58 8.2 3.29 15.04-12 2.92-8.58m474.59 16.9c-5.33 8.47 8.72 13.87 15.42 13.53-0.4-7.08-8.68-13.71-15.42-13.53m41.15 0.09c-17.7 7.76 9.36 46.3 17.64 23.42 5.92-11.06-8.2-21.59-17.64-23.42m-470.11 6.06c-6.35 1.03-11.28 5.57-13.4 11.66 5.76 9.42 23.89-9.74 13.4-11.66m-42.83 1.98c-6.92 3.22-13.29 10.15-13.35 18.22 3.91 5.51 11.46 18.85 16.68 7.35 7.71-6.14 12.11-28.19-3.33-25.57m597.92 4.87c-5.77 3.8-13.31 12.65-4.04 17.62 9.88 2.55 14.73-19.04 4.04-17.62m-40.3 5.02c-0.4 7.1 9.03 21.09 17.29 22.48 10.11-9.49-7.87-20.98-17.29-22.48m-94.77 5.97c-10.43 6.8 2.4 22.02 2.89 31.33 1.85 9.29 11.81 2.59 17.48 2.08 3.17-13.53-7.72-30-20.37-33.41m-544.25 0.97c-8.9 3.36-1.13 17.96 6.09 16.15 7.91-6.91 3.44-15.32-6.09-16.15m38.49 2.22c-9.01 3.49-17.38 10.62-19.65 20.35 9.23 8.13 16.01-6.39 20.37-12.37 1.5-2.74 7.12-10.75-0.72-7.98m95.54 2.82c-11.13 5.85-19.81 18.44-19.69 31.11 4.61 5.38 17.25 12.27 18.67-0.21 2.74-8.49 12.63-27.38 1.02-30.9m356.23 1.97c-8.54 6.37-2.56 22.26 2.98 29.63 16.84-1.09 9.9-28.18-2.98-29.63m30.11-0.01c-13.49 10.49 0.23 40.8 17.26 32.37-2.44-11.13-5.24-28.79-17.26-32.37m-334.26 3.95c-7.58 6.15-11.9 17.33-8.44 26.42 13.92 15.37 25.1-24.76 8.44-26.42m-28.88 1.06c-9.16 7.48-14.53 21.42-14.22 33.28 19.59 12.4 30.01-30.34 14.22-33.28m313.96 17.1c-18.27 0.91-7.07 34.4 8.6 23.81 6.67-6.59-0.36-22.34-8.6-23.81m119.05 0.87c-6.99 9.37 5.66 24.46 16.94 22.4-1.05-8.76-6.62-21.82-16.94-22.4m42.11 0.91c-6.61 5.66-8.3 20.89 3.3 20.51 13.77-1.17 8.95-22.73-3.3-20.51m-425.82 3.21c-8.9 2.83-16.99 25.49-1.46 24.53 13 2.06 17.9-29.64 1.46-24.53m212.66 2.02c-6.79 5.47 3.61 23.94 13.44 16.32 1.3-7.77-4.96-17.51-13.44-16.32m24.9-0.17c-6.07 5-5.39 21.36 5.08 18.61 6.68-4.79 2.93-17.87-5.08-18.61m-357.59 2.14c-8.2 4.47-15.36 13.91-15.41 23.53 7.94 2.08 16.08-0.19 17.8-8.95 1.38-4.21 8.58-17.89-2.39-14.58m148.39 1.02c-9.69 2.07-11.9 20.94-1.19 22.68 7.44-3.16 11.33-20.59 1.19-22.68m22.51 0.93c-6.7 2.66-11.72 10.8-8.92 17.93 11.66 8.17 25.21-19.39 8.92-17.93m-214.53 1.09c-12.9 1.96-2.33 29.15 7.62 16.52 7.03-6.77 1.1-16.02-7.62-16.52m533.29 27.04c-16.23 0.63-3.71 30.37 6.81 16.69 4.79-5.06-0.08-16.88-6.81-16.69m-68.96 1.93c-10.39 0.66-6.2 13.39-3.5 19.71 3.01 6.43 9.15-1.04 13.76-1.57-0.59-6.6-0.87-19.26-10.26-18.14m-334.76 4.16c-11.79 2.64-11.07 24.76 1.88 24.36 5.52-4.89 9.22-26.18-1.88-24.36m259.94 1.73c-5.55 6.11 2.74 15.27 7.94 8.28 6.66-4.84-2.7-10.9-7.94-8.28m-328.13 1.06c-7.48 1.24-13.14 12.14-5.7 17.18 11.18 12.17 21.19-19.16 5.7-17.18m352.3 1.13c-11.17 1.01-3.24 20.64 5.74 17.62 11.92-1.12 3.94-21.89-5.74-17.62m84.84-0.09c-10.53 5.05 1.54 26.51 11.75 18.04 4.99-6.34-2.83-20.76-11.75-18.04m-296 1.1c-9.56-2.01-10.79 17.08-0.63 11.67 9.29 1.34 11.27-15.86 0.63-11.67m239.68-0.09c-17-0.37-1.15 29.22 11.1 18.11 0.69-6.5-1.96-18.74-11.1-18.11m-267.01 2.74c-3.21 4.39-10.09 14.86-0.84 16.33 12.04 1.25 10.94-15.34 0.84-16.33m-22.92 2.25c-9.81 0.01-15.59 9.07-13.74 18.18 10.41 9.87 30.24-18.28 13.74-18.18m-61.6 0.99c-8.1 1.72-13.68 20.11-1.79 18.75 13.75 3.91 16.69-24.31 1.79-18.75z"/>
</svg>
