<?xml version="1.0" encoding="UTF-8" standalone="no"?>
<!-- Created with Inkscape (http://www.inkscape.org/) -->

<svg
   xmlns:dc="http://purl.org/dc/elements/1.1/"
   xmlns:cc="http://creativecommons.org/ns#"
   xmlns:rdf="http://www.w3.org/1999/02/22-rdf-syntax-ns#"
   xmlns:svg="http://www.w3.org/2000/svg"
   xmlns="http://www.w3.org/2000/svg"
   xmlns:sodipodi="http://sodipodi.sourceforge.net/DTD/sodipodi-0.dtd"
   xmlns:inkscape="http://www.inkscape.org/namespaces/inkscape"
   width="39.6875mm"
   height="34.97731mm"
   viewBox="0 0 39.6875 34.97731"
   version="1.1"
   id="svg195"
   inkscape:version="0.92.3 (2405546, 2018-03-11)"
   sodipodi:docname="butterfly-wireframe-transparent.svg">
  <defs
     id="defs189">
    <filter
       id="filter5549"
       inkscape:label="Invert"
       style="color-interpolation-filters:sRGB">
      <feColorMatrix
         id="feColorMatrix5551"
         result="color2"
         values="0 0 -1 0 1 0 -1 0 0 1 -1 0 0 0 1 -0.21 -0.72 -0.07 1.85 0 " />
    </filter>
  </defs>
  <sodipodi:namedview
     id="base"
     pagecolor="#ffffff"
     bordercolor="#666666"
     borderopacity="1.0"
     inkscape:pageopacity="0.0"
     inkscape:pageshadow="2"
     inkscape:zoom="2.8"
     inkscape:cx="36.579363"
     inkscape:cy="113.84934"
     inkscape:document-units="mm"
     inkscape:current-layer="layer1"
     showgrid="false"
     fit-margin-top="0"
     fit-margin-left="0"
     fit-margin-right="0"
     fit-margin-bottom="0"
     inkscape:window-width="1920"
     inkscape:window-height="1015"
     inkscape:window-x="0"
     inkscape:window-y="0"
     inkscape:window-maximized="1" />
  <metadata
     id="metadata192">
    <rdf:RDF>
      <cc:Work
         rdf:about="">
        <dc:format>image/svg+xml</dc:format>
        <dc:type
           rdf:resource="http://purl.org/dc/dcmitype/StillImage" />
        <dc:title />
      </cc:Work>
    </rdf:RDF>
  </metadata>
  <g
     inkscape:label="Taso 1"
     inkscape:groupmode="layer"
     id="layer1"
     transform="translate(-21.760786,-18.683999)">
    <path
       style="color:#000000;font-style:normal;font-variant:normal;font-weight:normal;font-stretch:normal;font-size:medium;line-height:normal;font-family:sans-serif;font-variant-ligatures:normal;font-variant-position:normal;font-variant-caps:normal;font-variant-numeric:normal;font-variant-alternates:normal;font-feature-settings:normal;text-indent:0;text-align:start;text-decoration:none;text-decoration-line:none;text-decoration-style:solid;text-decoration-color:#000000;letter-spacing:normal;word-spacing:normal;text-transform:none;writing-mode:lr-tb;direction:ltr;text-orientation:mixed;dominant-baseline:auto;baseline-shift:baseline;text-anchor:start;white-space:normal;shape-padding:0;clip-rule:nonzero;display:inline;overflow:visible;visibility:visible;opacity:1;isolation:auto;mix-blend-mode:normal;color-interpolation:sRGB;color-interpolation-filters:linearRGB;solid-color:#000000;solid-opacity:1;vector-effect:none;fill:#000000;fill-opacity:0.08759124;fill-rule:evenodd;stroke:none;stroke-width:0.08914213;stroke-linecap:butt;stroke-linejoin:miter;stroke-miterlimit:4;stroke-dasharray:none;stroke-dashoffset:0;stroke-opacity:1;color-rendering:auto;image-rendering:auto;shape-rendering:auto;text-rendering:auto;enable-background:accumulate"
       d="m 54.042785,18.687088 c -0.124211,0.01046 -0.255764,0.04759 -0.394828,0.11436 -6.278081,2.805201 -9.213798,17.104527 -9.155595,23.796369 -0.08926,-0.05366 -0.181269,-0.104183 -0.271155,-0.1511 a 0.43433302,0.32000613 36.694883 0 0 -0.194567,-0.439851 0.43433302,0.32000613 36.694883 0 0 -0.539721,-0.0031 0.43433302,0.32000613 36.694883 0 0 -0.04812,0.139199 c -0.106858,-0.233191 -0.207034,-0.637873 -0.200781,-1.367673 0.0068,-0.799394 0.271185,-1.661882 0.543863,-2.36639 0.13634,-0.352255 0.273889,-0.663609 0.383443,-0.911264 0.109555,-0.247651 0.19071,-0.425456 0.213199,-0.526267 0.0176,-0.07891 0.0787,-0.220265 0.148514,-0.393275 0.06982,-0.173012 0.147278,-0.379431 0.201294,-0.605958 0.108035,-0.453061 0.11657,-0.986759 -0.249938,-1.449435 -0.253297,-0.319759 -0.407948,-0.504415 -0.5273,-0.642698 a 0.28132931,0.13819686 46.158181 0 0 -0.115913,-0.25925 0.28132931,0.13819686 46.158181 0 0 -0.294958,-0.107634 0.28132931,0.13819686 46.158181 0 0 0.09521,0.299096 0.28132931,0.13819686 46.158181 0 0 0.249422,0.127298 c 0.117634,0.137183 0.270641,0.321333 0.523161,0.640112 0.345584,0.436256 0.339079,0.931836 0.234416,1.370777 -0.05233,0.21947 -0.129993,0.422997 -0.199228,0.594573 -0.06923,0.171575 -0.130835,0.308918 -0.152653,0.40673 -0.01694,0.07591 -0.09588,0.261012 -0.205435,0.508674 -0.109557,0.24766 -0.249814,0.562338 -0.387068,0.916955 -0.274507,0.709236 -0.540991,1.577534 -0.548001,2.395886 -0.007,0.813489 0.113613,1.251252 0.242695,1.488761 0.01534,0.02823 0.03015,0.04542 0.04553,0.06831 -0.05987,0.05031 -0.09593,0.09647 -0.120569,0.141785 a 0.43433302,0.32000613 36.694883 0 0 -0.06106,-0.02898 c -0.577227,-1.051475 -1.340802,-1.49073 -2.114901,-1.67919 -0.365635,-0.08902 -0.732122,-0.121755 -1.084098,-0.140234 -5.679829,-4.252966 -13.843964,-8.956054 -17.330067,-8.967754 -0.282629,-0.0011 -0.534131,0.02915 -0.751366,0.09263 -0.594087,0.173605 0.176967,1.726724 0.670641,2.003128 0.344021,0.192611 4.584557,4.016525 4.773659,4.300174 0.189099,0.283648 4.356346,4.246911 5.098631,5.059819 0.392282,0.429607 1.212943,0.69752 2.103516,0.868316 -0.123633,0.188426 -0.201058,0.414776 -0.217855,0.685648 -0.210586,3.395693 9.844802,8.634144 10.423913,8.897376 0.57911,0.26323 1.395304,-2.9e-5 2.079711,-0.81605 0.684402,-0.816019 0.158051,-4.264524 -0.157827,-5.291129 -0.154008,-0.500525 -0.501892,-0.904799 -0.81812,-1.190181 0.713313,0.491067 1.591885,1.131374 1.72214,1.368189 0.204743,0.372269 0.239992,0.747062 0.465205,0.893155 0.225601,0.146358 1.074902,1.552625 1.340246,1.898596 0.26854,0.350134 0.632865,0.223547 0.632865,0.223547 0,0 0.242189,-0.186396 0.260807,-0.316691 0.01431,-0.100205 -0.303203,-1.395694 -0.737397,-2.254099 1.321861,0.424569 3.442476,1.032461 5.148827,1.174656 2.68032,0.223359 3.461755,-0.148925 5.174179,-2.494204 1.71243,-2.345279 1.553519,-6.961861 1.452021,-8.375767 -0.120382,-1.676999 -2.593547,-4.251815 -3.793571,-4.547524 0.278886,-0.412508 0.521039,-0.825422 0.666502,-1.185524 0.477404,-1.18187 -1.156705,-4.797416 -1.563796,-6.2914 -0.539122,-1.978546 -0.794507,-7.8284 -2.657725,-7.67149 z m -1.907911,2.258755 a 0.24197318,0.5863197 33.193792 0 1 0.06624,0.01759 0.24197318,0.5863197 33.193792 0 1 -0.118499,0.623033 0.24197318,0.5863197 33.193792 0 1 -0.523681,0.358089 0.24197318,0.5863197 33.193792 0 1 0.118502,-0.623034 0.24197318,0.5863197 33.193792 0 1 0.457442,-0.375683 z m 1.36819,0.103494 a 0.22801318,0.45137306 39.569792 0 1 5.2e-4,0 0.22801318,0.45137306 39.569792 0 1 0.08331,0.02898 0.22801318,0.45137306 39.569792 0 1 -0.111772,0.493149 0.22801318,0.45137306 39.569792 0 1 -0.463653,0.202331 0.22801318,0.45137306 39.569792 0 1 0.111772,-0.493149 0.22801318,0.45137306 39.569792 0 1 0.379822,-0.231309 z m -2.456428,0.556798 a 0.10858325,0.55936834 32.730057 0 1 0.01086,0.0037 0.10858325,0.55936834 32.730057 0 1 -0.211128,0.529372 0.10858325,0.55936834 32.730057 0 1 -0.393796,0.411388 0.10858325,0.55936834 32.730057 0 1 0.21113,-0.528854 0.10858325,0.55936834 32.730057 0 1 0.373611,-0.415011 0.10858325,0.55936834 32.730057 0 1 0.0093,-5.17e-4 z m 2.662383,0.404662 a 0.2204569,0.70743638 38.120037 0 1 0.06209,0.01604 0.2204569,0.70743638 38.120037 0 1 -0.262873,0.692375 v 5.17e-4 a 0.2204569,0.70743638 38.120037 0 1 -0.610098,0.420703 0.2204569,0.70743638 38.120037 0 1 0.262875,-0.692892 0.2204569,0.70743638 38.120037 0 1 0.548001,-0.436744 z m 0.913851,0.225098 a 0.25994172,0.376751 24.470233 0 1 0.06882,0.01656 0.25994172,0.376751 24.470233 0 1 0.08072,0.450198 0.25994172,0.376751 24.470233 0 1 -0.39276,0.235449 0.25994172,0.376751 24.470233 0 1 -0.08072,-0.450716 0.25994172,0.376751 24.470233 0 1 0.323936,-0.251491 z m -2.50714,0.264427 a 0.25665131,0.59227234 28.544076 0 1 0.07038,0.01397 0.25665131,0.59227234 28.544076 0 1 -0.05692,0.642181 l -5.2e-4,5.17e-4 a 0.25665131,0.59227234 28.544076 0 1 -0.508153,0.397934 0.25665131,0.59227234 28.544076 0 1 0.05744,-0.642697 0.25665131,0.59227234 28.544076 0 1 0.437782,-0.411907 z m -1.090311,1.178797 a 0.2632321,0.7056129 36.350706 0 1 0.07193,0.0207 0.2632321,0.7056129 36.350706 0 1 -0.205954,0.723939 v 5.18e-4 a 0.2632321,0.7056129 36.350706 0 1 -0.630277,0.412424 0.2632321,0.7056129 36.350706 0 1 0.205952,-0.723941 0.2632321,0.7056129 36.350706 0 1 0.55835,-0.43364 z m 3.881541,0.437262 a 0.25829655,0.30107176 23.114276 0 1 0.09366,0.01811 0.25829655,0.30107176 23.114276 0 1 0.119536,0.37827 0.25829655,0.30107176 23.114276 0 1 -0.355503,0.175422 0.25829655,0.30107176 23.114276 0 1 -0.119535,-0.37827 0.25829655,0.30107176 23.114276 0 1 0.261839,-0.193533 z m -3.455664,0.540757 a 0.52521919,0.81931008 45.160477 0 1 0.292371,0.109185 0.52521919,0.81931008 45.160477 0 1 -0.210092,0.950075 0.52521919,0.81931008 45.160477 0 1 -0.951628,0.205953 0.52521919,0.81931008 45.160477 0 1 0.210092,-0.950075 0.52521919,0.81931008 45.160477 0 1 0.659257,-0.315138 z m 1.268839,1.557583 a 0.56594914,0.7436308 44.087736 0 1 0.364815,0.128333 l 5.16e-4,5.18e-4 a 0.56594914,0.7436308 44.087736 0 1 -0.110739,0.927822 0.56594914,0.7436308 44.087736 0 1 -0.924201,0.140752 0.56594914,0.7436308 44.087736 0 1 0.110739,-0.927823 0.56594914,0.7436308 44.087736 0 1 0.55887,-0.269602 z m -3.458253,0.131955 a 0.20474657,0.51186641 19.622251 0 1 0.03518,0.0047 0.20474657,0.51186641 19.622251 0 1 0.0207,0.550588 0.20474657,0.51186641 19.622251 0 1 -0.364299,0.413458 0.20474657,0.51186641 19.622251 0 1 -0.02121,-0.551105 0.20474657,0.51186641 19.622251 0 1 0.329629,-0.417598 z m 5.623862,0.289783 a 0.31409979,0.4164731 59.48017 0 1 0.249421,0.131956 0.31409979,0.4164731 59.48017 0 1 -0.199225,0.481765 0.31409979,0.4164731 59.48017 0 1 -0.517988,-0.059 0.31409979,0.4164731 59.48017 0 1 0.199225,-0.481764 0.31409979,0.4164731 59.48017 0 1 0.268567,-0.07297 z m -4.839377,0.228721 a 0.46533307,0.52582638 43.08107 0 1 0.289266,0.114362 0.46533307,0.52582638 43.08107 0 1 -0.01915,0.70169 0.46533307,0.52582638 43.08107 0 1 -0.699101,0.06675 0.46533307,0.52582638 43.08107 0 1 0.01915,-0.701687 0.46533307,0.52582638 43.08107 0 1 0.409838,-0.181117 z m -2.158366,0.89212 a 0.23024238,0.48039861 17.866292 0 1 5.17e-4,0 0.23024238,0.48039861 17.866292 0 1 0.03933,0.0057 0.23024238,0.48039861 17.866292 0 1 0.07141,0.52782 0.23024238,0.48039861 17.866292 0 1 -0.36637,0.386549 0.23024238,0.48039861 17.866292 0 1 -0.07192,-0.527817 0.23024238,0.48039861 17.866292 0 1 0.327042,-0.392243 z m 6.325032,0.482797 c 0,0 -0.20202,0.0699 -0.250971,0.08642 -0.181601,0.107687 -0.437635,0.351499 -0.696516,0.926787 -0.473816,1.052929 -3.343372,3.829794 -3.343372,3.829794 l 0.07918,-1.460816 c 0,0 1.473982,-2.316376 1.763537,-2.487478 0.256962,-0.151842 1.811231,-0.678022 2.197178,-0.808287 0.150771,-0.08942 0.250971,-0.08642 0.250971,-0.08642 z m 0.731186,0.03209 a 0.21223093,0.26487734 34.621801 0 1 0.09574,0.03104 0.21223093,0.26487734 34.621801 0 1 0.0238,0.338424 0.21223093,0.26487734 34.621801 0 1 -0.324971,0.0978 0.21223093,0.26487734 34.621801 0 1 -0.02432,-0.338944 0.21223093,0.26487734 34.621801 0 1 0.229757,-0.12833 z m 0.856413,0.68513 a 0.31423338,0.21716652 0 0 1 0.314104,0.216818 0.31423338,0.21716652 0 0 1 -0.314104,0.217338 0.31423338,0.21716652 0 0 1 -0.314106,-0.217338 0.31423338,0.21716652 0 0 1 0.314106,-0.216818 z M 49.89423,29.66159 a 0.2632321,0.73262209 35.617747 0 1 0.07296,0.01915 0.2632321,0.73262209 35.617747 0 1 -0.212162,0.748781 l -5.17e-4,5.17e-4 a 0.2632321,0.73262209 35.617747 0 1 -0.640628,0.442436 0.2632321,0.73262209 35.617747 0 1 0.212679,-0.748779 0.2632321,0.73262209 35.617747 0 1 0.567665,-0.462101 z m -1.672979,0.40104 a 0.32162799,0.52582638 13.601098 0 1 0.05485,0.0052 0.32162799,0.52582638 13.601098 0 1 0.188877,0.586812 0.32162799,0.52582638 13.601098 0 1 -0.436229,0.43571 0.32162799,0.52582638 13.601098 0 1 -0.188876,-0.586813 0.32162799,0.52582638 13.601098 0 1 0.381377,-0.440883 z m 6.019209,0.158346 c 0.07911,-0.0073 0.161521,1.9e-5 0.245281,0.02794 0.335041,0.111676 0.74464,0.707381 0.74464,0.707381 0,0 0.223377,0.223231 0.01862,0.465205 -0.204752,0.241972 -6.347285,5.081553 -6.347285,5.081553 v -0.07451 l 1.023555,-2.643235 c 0,0 3.611028,-3.164472 3.759935,-3.294729 0.111681,-0.09772 0.317927,-0.247789 0.555247,-0.269602 z m 2.178547,0.08848 a 0.18755289,0.13984206 80.019528 0 1 0.156277,0.161969 0.18755289,0.13984206 80.019528 0 1 -0.105564,0.208541 0.18755289,0.13984206 80.019528 0 1 -0.170248,-0.160416 0.18755289,0.13984206 80.019528 0 1 0.105565,-0.209058 0.18755289,0.13984206 80.019528 0 1 0.01397,-9.92e-4 z m -3.218661,0.07141 0.0295,0.03364 -3.666791,3.238844 -0.0295,-0.03363 z m -6.350909,0.312553 a 0.18613324,0.59562635 14.362738 0 1 0.01294,0.0021 0.18613324,0.59562635 14.362738 0 1 0.0326,0.623037 0.18613324,0.59562635 14.362738 0 1 -0.328076,0.530922 0.18613324,0.59562635 14.362738 0 1 -0.0326,-0.623033 0.18613324,0.59562635 14.362738 0 1 0.315139,-0.532994 z m 10.06893,0.649423 a 0.12832566,0.11845445 0 0 1 0.0093,0 0.12832566,0.11845445 0 0 1 0.128331,0.118502 0.12832566,0.11845445 0 0 1 -0.128331,0.118499 0.12832566,0.11845445 0 0 1 -0.128334,-0.118499 0.12832566,0.11845445 0 0 1 0.119019,-0.118502 z m -0.999753,0.654083 c 0.02734,-0.0013 0.05167,8.28e-4 0.07141,0.0072 0.157939,0.05265 0.447614,0.6845 0.447614,0.842439 0,0.157944 0.02592,0.63172 -0.158347,0.789659 -0.184261,0.157939 -1.368738,0.894848 -2.184756,1.552928 -0.816022,0.658079 -4.001024,3.895877 -4.580126,4.238077 -0.579115,0.342203 -4.00108,3.237811 -4.00108,3.237811 l 3.237811,-5.554524 6.633447,-4.922172 c 0,0 0.342565,-0.181386 0.534027,-0.191464 z m -7.154536,0.21475 c 0.02334,-0.0013 0.04452,0.0016 0.06313,0.0098 0.297811,0.130292 0.372373,1.284403 0.1304,1.954482 -0.241974,0.67008 -0.72601,2.643236 -0.72601,2.643236 l -2.959409,6.086481 -0.316692,-0.07451 c 0,0 0.03745,-3.759919 0.260804,-4.355544 0.223364,-0.595627 1.116707,-3.945737 1.749567,-4.597204 0.593293,-0.610747 1.448251,-1.647002 1.798209,-1.666769 z m 6.057501,0.01086 0.02639,0.03571 -6.179626,4.597202 -0.02639,-0.03518 z m 3.017883,0.05641 a 0.15821323,0.28850652 41.164976 0 1 0.07503,0.02329 0.15821323,0.28850652 41.164976 0 1 -0.07089,0.321349 0.15821323,0.28850652 41.164976 0 1 -0.30893,0.113324 0.15821323,0.28850652 41.164976 0 1 0.07089,-0.321348 0.15821323,0.28850652 41.164976 0 1 0.233895,-0.136611 z m -32.976284,0.134023 a 0.47607589,0.08078505 21.872542 0 1 5.17e-4,0 0.47607589,0.08078505 21.872542 0 1 0.42536,0.117985 0.47607589,0.08078505 21.872542 0 1 0.411906,0.252007 0.47607589,0.08078505 21.872542 0 1 -0.471932,-0.10246 0.47607589,0.08078505 21.872542 0 1 -0.411907,-0.252006 0.47607589,0.08078505 21.872542 0 1 0.04606,-0.01553 z m 24.553429,0.06262 0.105561,1.109975 -0.916438,3.244019 -3.179851,5.947798 -0.03933,-0.0207 3.177267,-5.943658 0.913332,-3.2316 -0.105045,-1.101177 z m -24.992244,0.0098 a 0.44108551,0.24622262 17.493816 0 1 5.18e-4,0 0.44108551,0.24622262 17.493816 0 1 0.04036,0 0.44108551,0.24622262 17.493816 0 1 0.198708,0.03467 0.44108551,0.24622262 17.493816 0 1 0.346705,0.367404 0.44108551,0.24622262 17.493816 0 1 -0.494701,0.102459 0.44108551,0.24622262 17.493816 0 1 -0.346704,-0.367404 0.44108551,0.24622262 17.493816 0 1 0.255112,-0.13713 z m -0.291335,0.690822 a 0.36440953,0.21273635 21.450899 0 1 5.17e-4,0 0.36440953,0.21273635 21.450899 0 1 0.195604,0.04088 0.36440953,0.21273635 21.450899 0 1 0.261322,0.33118 0.36440953,0.21273635 21.450899 0 1 -0.417081,0.06468 0.36440953,0.21273635 21.450899 0 1 -0.261322,-0.33118 0.36440953,0.21273635 21.450899 0 1 0.22096,-0.105565 z m 1.283325,0.315141 a 0.52370996,0.16714146 27.299572 0 1 0.426912,0.134024 0.52370996,0.16714146 27.299572 0 1 0.389137,0.388618 0.52370996,0.16714146 27.299572 0 1 -0.542307,-0.09159 0.52370996,0.16714146 27.299572 0 1 -0.38862,-0.388621 0.52370996,0.16714146 27.299572 0 1 0.09366,-0.04191 0.52370996,0.16714146 27.299572 0 1 0.02121,-5.17e-4 z m 1.434426,0.317727 a 0.52649566,0.18942697 18.161609 0 1 0.365335,0.06313 0.52649566,0.18942697 18.161609 0 1 0.440883,0.344117 0.52649566,0.18942697 18.161609 0 1 -0.559385,0.01604 0.52649566,0.18942697 18.161609 0 1 -0.440884,-0.344119 0.52649566,0.18942697 18.161609 0 1 0.194051,-0.07917 z m -2.045558,0.0357 a 0.64596873,0.24590636 19.869057 0 1 0.445024,0.08435 0.64596873,0.24590636 19.869057 0 1 0.534546,0.450716 0.64596873,0.24590636 19.869057 0 1 -0.682543,0.01863 0.64596873,0.24590636 19.869057 0 1 -0.534546,-0.450718 0.64596873,0.24590636 19.869057 0 1 0.237519,-0.102978 z m 0.05227,0.751366 a 0.41125348,0.20879676 27.336985 0 1 0.281503,0.07918 0.41125348,0.20879676 27.336985 0 1 0.269602,0.374131 0.41125348,0.20879676 27.336985 0 1 -0.461583,-0.0031 0.41125348,0.20879676 27.336985 0 1 -0.269085,-0.37465 0.41125348,0.20879676 27.336985 0 1 0.179563,-0.07554 z m 2.9532,0.03985 a 0.57385241,0.37328264 20.175793 0 1 0.274257,0.05226 0.57385241,0.37328264 20.175793 0 1 0.409838,0.548001 0.57385241,0.37328264 20.175793 0 1 -0.667019,0.152656 0.57385241,0.37328264 20.175793 0 1 -0.409834,-0.54852 0.57385241,0.37328264 20.175793 0 1 0.355499,-0.203882 0.57385241,0.37328264 20.175793 0 1 0.03726,-5.17e-4 z m 1.431321,0.108669 a 0.36528651,0.11167993 29.396912 0 1 0.307894,0.106598 0.36528651,0.11167993 29.396912 0 1 0.263392,0.276846 0.36528651,0.11167993 29.396912 0 1 -0.373094,-0.08228 0.36528651,0.11167993 29.396912 0 1 -0.263392,-0.276327 0.36528651,0.11167993 29.396912 0 1 0.0652,-0.02483 z m 1.391995,0.29651 a 0.38855312,0.10935326 28.282045 0 1 0.327559,0.111256 0.38855312,0.10935326 28.282045 0 1 0.2903,0.280468 0.38855312,0.10935326 28.282045 0 1 -0.393795,-0.08797 0.38855312,0.10935326 28.282045 0 1 -0.290817,-0.280468 0.38855312,0.10935326 28.282045 0 1 0.06675,-0.02329 z m 26.885664,0.186804 a 0.2000932,0.13029324 0 0 1 0.01397,0 0.2000932,0.13029324 0 0 1 0.200261,0.129887 0.2000932,0.13029324 0 0 1 -0.200261,0.130403 0.2000932,0.13029324 0 0 1 -0.200259,-0.130403 0.2000932,0.13029324 0 0 1 0.186289,-0.129887 z M 29.557152,35.36823 a 0.55435257,0.26464064 28.581487 0 1 0.417078,0.120571 0.55435257,0.26464064 28.581487 0 1 0.36016,0.497287 0.55435257,0.26464064 28.581487 0 1 -0.6132,-0.0326 0.55435257,0.26464064 28.581487 0 1 -0.36016,-0.497807 0.55435257,0.26464064 28.581487 0 1 0.196122,-0.08745 z m 29.082323,0.07193 a 0.17217322,0.12563992 50.977954 0 1 0.145926,0.07606 0.17217322,0.12563992 50.977954 0 1 0.01086,0.212682 0.17217322,0.12563992 50.977954 0 1 -0.206471,-0.05433 0.17217322,0.12563992 50.977954 0 1 -0.01035,-0.213198 0.17217322,0.12563992 50.977954 0 1 0.06003,-0.02121 z m -2.822281,0.473483 0.225617,0.249421 c -0.804926,1.05488 -1.796653,1.617365 -2.825385,2.0823 1.189135,-1.039147 2.237072,-2.023432 2.599768,-2.331721 z m -29.478188,0.07038 a 0.31769178,0.14137549 34.41035 0 1 5.17e-4,0 0.31769178,0.14137549 34.41035 0 1 0.250973,0.09728 0.31769178,0.14137549 34.41035 0 1 0.18215,0.296511 0.31769178,0.14137549 34.41035 0 1 -0.342048,-0.06313 0.31769178,0.14137549 34.41035 0 1 -0.18215,-0.295994 0.31769178,0.14137549 34.41035 0 1 0.09056,-0.03467 z m 30.045335,0.0533 0.548519,0.53403 c -1.591614,1.698193 -3.240953,3.63554 -5.499672,5.143133 -1.687964,0.903994 -3.964424,1.513819 -5.753745,2.108172 -0.292359,-0.383878 -0.549376,-0.726791 -0.627175,-0.810359 l 0.145411,-0.01345 c 0,0 3.822066,-1.740787 4.504573,-2.084887 0.624323,-0.314764 1.502973,-0.979055 2.40313,-1.723173 1.660608,-1.005221 3.173811,-2.066387 4.278959,-3.153462 z m -27.659282,0.143339 a 0.5824106,0.38452487 25.918594 0 1 0.309965,0.07607 0.5824106,0.38452487 25.918594 0 1 0.374647,0.597678 0.5824106,0.38452487 25.918594 0 1 -0.682023,0.10815 0.5824106,0.38452487 25.918594 0 1 -0.37465,-0.597677 0.5824106,0.38452487 25.918594 0 1 0.372061,-0.18422 z m 30.77859,0.299097 a 0.21405318,0.11633326 64.827609 0 1 0.173353,0.150583 0.21405318,0.11633326 64.827609 0 1 -0.01397,0.243211 0.21405318,0.11633326 64.827609 0 1 -0.196637,-0.144373 0.21405318,0.11633326 64.827609 0 1 0.01449,-0.243211 0.21405318,0.11633326 64.827609 0 1 0.02277,-0.0063 z m -26.25642,0.0207 a 0.46230144,0.07711566 30.411986 0 1 0.408801,0.176975 0.46230144,0.07711566 30.411986 0 1 0.359641,0.300648 0.46230144,0.07711566 30.411986 0 1 -0.437778,-0.16766 0.46230144,0.07711566 30.411986 0 1 -0.359644,-0.30065 0.46230144,0.07711566 30.411986 0 1 0.02898,-0.0093 z m 23.909695,0.146962 c 0.715406,0.487972 1.052781,0.915333 1.22071,1.656937 -1.062494,1.233457 -2.264677,2.06306 -3.557087,3.112582 h -2.401064 c 1.732356,-1.494271 3.340593,-2.795944 4.737437,-4.769519 z M 32.5207,36.692433 a 0.52405076,0.18664546 26.598369 0 1 0.421223,0.117466 0.52405076,0.18664546 26.598369 0 1 0.392758,0.402591 0.52405076,0.18664546 26.598369 0 1 -0.546967,-0.0621 0.52405076,0.18664546 26.598369 0 1 -0.39276,-0.402591 0.52405076,0.18664546 26.598369 0 1 0.125746,-0.05536 z m -0.415009,0.444505 a 0.59934358,0.2886059 17.91561 0 1 0.322382,0.05744 0.59934358,0.2886059 17.91561 0 1 0.477107,0.459512 0.59934358,0.2886059 17.91561 0 1 -0.662362,0.08693 0.59934358,0.2886059 17.91561 0 1 -0.477107,-0.459513 0.59934358,0.2886059 17.91561 0 1 0.33998,-0.144375 z m -3.551913,0.474005 a 0.3644949,0.19360554 29.147672 0 1 0.257182,0.07606 0.3644949,0.19360554 29.147672 0 1 0.224064,0.346706 0.3644949,0.19360554 29.147672 0 1 -0.412424,-0.0082 0.3644949,0.19360554 29.147672 0 1 -0.224064,-0.346706 0.3644949,0.19360554 29.147672 0 1 0.135578,-0.06727 0.3644949,0.19360554 29.147672 0 1 0.01966,-5.17e-4 z m 2.371564,0.28978 c 0.833063,0.03172 2.385017,0.642181 2.385017,0.642181 l 1.459784,1.036492 c 0,0 -3.443246,-0.557488 -3.610389,-0.6132 -0.167141,-0.05571 -1.136567,-0.612894 -0.668569,-0.980606 0.08775,-0.06895 0.24191,-0.09216 0.434157,-0.08487 z m 5.171077,0.253563 a 0.38991265,0.04771083 29.866749 0 1 5.16e-4,0 0.38991265,0.04771083 29.866749 0 1 0.350325,0.157311 0.38991265,0.04771083 29.866749 0 1 0.314622,0.235448 0.38991265,0.04771083 29.866749 0 1 -0.362227,-0.152653 0.38991265,0.04771083 29.866749 0 1 -0.314104,-0.235451 0.38991265,0.04771083 29.866749 0 1 0.01086,-0.0047 z m -1.485659,0.131953 c 0.233865,0.005 0.550542,0.06509 0.941279,0.222514 1.998335,0.805118 3.291719,1.48551 4.237561,2.101962 -0.297204,-0.01115 -0.583307,-0.01876 -0.8383,-0.04657 l -0.0098,0.08797 c 0.304829,0.03325 0.642922,0.03771 0.994575,0.0533 1.565269,1.048523 2.140357,1.914463 3.476881,2.895245 5.29e-4,0.0021 0.0013,0.0041 0.0021,0.0063 l -5.578363,-2.60862 c 0,0 -2.046114,-1.209808 -3.041172,-1.859269 -0.420787,-0.274643 -0.630279,-0.614755 -0.630279,-0.614755 -0.104783,-0.102164 0.05578,-0.246443 0.445541,-0.238037 z m -4.715183,0.46262 a 0.25210505,0.16853432 28.804605 0 1 0.154721,0.04347 0.25210505,0.16853432 28.804605 0 1 0.139719,0.269083 0.25210505,0.16853432 28.804605 0 1 -0.302203,0.02639 0.25210505,0.16853432 28.804605 0 1 -0.139716,-0.269599 0.25210505,0.16853432 28.804605 0 1 0.147479,-0.06934 z m 28.703535,0.02483 c 0.48522,0.663873 0.61265,1.327886 0.707381,1.991739 0,0 -0.93061,0.949196 -1.786823,1.13533 -0.85621,0.186134 -1.414475,0.26071 -1.693679,0.149031 -0.279197,-0.111679 -0.85499,-0.439257 -0.502463,-0.558866 0.479662,-0.162745 3.387987,-2.679768 3.275584,-2.717234 z m -24.419403,0.109186 1.091344,0.815531 2.60391,1.604157 5.481557,2.313091 -0.01708,0.04139 -5.461896,-2.304812 v 0.01242 l -4.513889,-0.07451 9.92e-4,-0.0445 4.451791,0.07348 -2.570271,-1.583976 -1.093414,-0.816567 z m -1.557066,0.482797 2.587348,0.344636 -0.0063,0.04398 -2.586834,-0.344117 z m -2.343104,0.259254 a 0.23735865,0.180235 50.670915 0 1 0.190946,0.10194 0.23735865,0.180235 50.670915 0 1 0.01086,0.298063 0.23735865,0.180235 50.670915 0 1 -0.289783,-0.06934 0.23735865,0.180235 50.670915 0 1 -0.01138,-0.298062 0.23735865,0.180235 50.670915 0 1 0.08538,-0.03208 0.23735865,0.180235 50.670915 0 1 0.01397,-5.17e-4 z m 1.663664,0.02226 c 0.68676,0.01813 3.194861,0.299614 3.194861,0.299614 l 2.317748,1.270388 c 0,0 -4.490607,-0.089 -4.657747,-0.089 -0.167143,0 -0.334495,-0.04468 -0.535064,-0.100389 -0.20057,-0.05571 -0.746295,-0.791456 -0.846582,-0.969741 -0.100284,-0.178283 0.267395,-0.323038 0.356539,-0.401038 0.01112,-0.0097 0.07214,-0.01244 0.170245,-0.0098 z m 28.577793,0.754988 a 0.09771994,0.16751989 0 0 1 0.0978,0.16766 0.09771994,0.16751989 0 0 1 -0.0978,0.167662 0.09771994,0.16751989 0 0 1 -0.0978,-0.167662 0.09771994,0.16751989 0 0 1 0.0978,-0.16766 z m -20.332943,0.320832 c 0.307208,0.01987 0.620272,0.0509 0.931961,0.126778 0.736249,0.179249 1.452024,0.586635 2.011923,1.559139 a 0.43433302,0.32000613 36.694883 0 0 -0.289783,0.101942 0.43433302,0.32000613 36.694883 0 0 0.0057,0.345668 c -0.787563,-0.679864 -1.681647,-1.39726 -2.659793,-2.133527 z m -8.978622,0.08383 a 0.2202346,0.08872278 40.535917 0 1 0.189396,0.09056 0.2202346,0.08872278 40.535917 0 1 0.109703,0.210609 0.2202346,0.08872278 40.535917 0 1 -0.225099,-0.07554 0.2202346,0.08872278 40.535917 0 1 -0.109704,-0.21061 0.2202346,0.08872278 40.535917 0 1 0.03571,-0.01501 z m 27.929403,0.73998 c 0.272185,0.299522 0.323563,1.065839 0.149031,2.308432 -1.086704,0.396286 -2.440001,0.297218 -3.871709,0.05279 l -1.544648,0.02174 c 0,0 1.284192,-0.986893 1.675048,-1.07996 0.390883,-0.09307 1.37749,0.0934 1.973114,-0.223028 0.595625,-0.316428 1.619164,-1.079961 1.619164,-1.079961 z m -25.18112,0.01242 c 1.408218,0.0087 4.036783,0.100907 4.036783,0.100907 l 5.299925,1.986048 c 0,0 -0.713281,-0.08914 -1.080992,0 -0.367711,0.08914 -1.893944,0.0111 -2.228226,-0.14489 -0.334283,-0.155999 -3.900139,-0.590435 -4.256709,-0.590435 -0.356567,0 -0.691031,0.08918 -1.058742,0.144893 -0.367711,0.05571 -0.902539,-0.100389 -1.192251,-0.267532 -0.289711,-0.167141 -0.757714,-0.791281 -0.835714,-0.913852 -0.078,-0.122569 0.234071,-0.200155 0.456926,-0.289265 0.05572,-0.02228 0.389595,-0.02876 0.859,-0.02588 z m -2.010886,0.184736 a 0.16296293,0.06546375 34.458237 0 1 0.137127,0.05278 0.16296293,0.06546375 34.458237 0 1 0.0978,0.146445 0.16296293,0.06546375 34.458237 0 1 -0.171797,-0.03829 0.16296293,0.06546375 34.458237 0 1 -0.09728,-0.146445 0.16296293,0.06546375 34.458237 0 1 0.03415,-0.01449 z m 22.080438,0.123159 c 0.261749,-0.007 0.467863,0.0058 0.551623,0.05227 0.335041,0.186134 0.76305,0.48399 0.502464,0.670125 -0.260586,0.186133 -1.358545,1.265729 -1.581907,1.265729 -0.223361,0 -1.265967,0.204687 -1.545165,0.539721 -0.279201,0.335044 -0.576977,0.726013 -0.576977,0.726013 0,0 -2.036611,0.05494 -2.01037,-0.16766 0.04228,-0.358713 -2.527325,-0.171276 -2.661351,-0.03726 l -0.928339,-0.965598 c -7.95e-4,-7.94e-4 -0.0013,-0.0016 -0.0021,-0.0026 l 6.179106,-1.86082 c 0,0 1.287737,-0.198986 2.072985,-0.219925 z m -9.82934,0.633381 c 0.339102,0.101649 1.080716,0.910891 1.197425,1.113597 0.125061,0.217165 0.14086,0.395494 0.0067,0.486939 -0.191846,0.130798 -0.408375,-0.07861 -0.645283,-0.262875 -0.236911,-0.184261 -0.644668,-0.987391 -0.756541,-1.059779 -0.05092,-0.03295 -0.08782,-0.09426 -0.08694,-0.152136 a 0.43433302,0.32000613 36.694883 0 0 0.27012,-0.102976 0.43433302,0.32000613 36.694883 0 0 0.01449,-0.02277 z m 15.970154,0.360162 a 0.09771994,0.31642651 0 0 1 0.0978,0.31669 0.09771994,0.31642651 0 0 1 -0.0978,0.316174 0.09771994,0.31642651 0 0 1 -0.0978,-0.316174 0.09771994,0.31642651 0 0 1 0.0978,-0.31669 z M 43.130903,43.10026 a 0.43433302,0.32000613 36.694883 0 0 0.184736,0.03415 c 0.0073,0.0575 0.01589,0.11701 0.02691,0.178527 l -0.01811,-0.04606 c -0.06037,-0.054 -0.131563,-0.112016 -0.193534,-0.166626 z m 0.303755,0.571289 c 0.03993,0.113839 0.08584,0.219549 0.143857,0.294957 0.02231,0.029 0.08456,0.110414 0.127297,0.166107 L 43.460013,43.87595 c 0,0 -0.187004,-0.0046 -0.320313,-0.0077 0.16164,-0.103447 0.270121,-0.178988 0.294958,-0.196636 z m 0.660291,0.270119 a 0.07567925,0.17439128 0 0 1 0.07607,0.174387 0.07567925,0.17439128 0 0 1 -0.07607,0.174387 0.07567925,0.17439128 0 0 1 -0.07556,-0.174387 0.07567925,0.17439128 0 0 1 0.07556,-0.174387 z m -1.019416,0.183182 0.753956,0.483835 -2.456948,1.302989 -4.876637,-0.586293 -0.64218,-0.679438 c 0,0 1.696819,0.171205 1.861339,0.190947 0.16452,0.01973 3.052911,-0.256146 3.481019,-0.256146 0.428106,0 1.879451,-0.455894 1.879451,-0.455894 z m -7.445873,0.0057 c 1.062129,0.125194 2.040556,0.148091 2.327578,0.161966 0.146273,0.0071 0.455771,0.02235 0.819673,0.03777 -0.215019,0.06744 -0.567515,0.171399 -1.167412,0.302205 -0.875245,0.190842 -1.414762,-0.09211 -1.414762,-0.09211 l -0.445542,-0.323418 z m 8.9129,0.05433 a 0.08884085,0.18755289 0 0 1 0.08901,0.18784 0.08884085,0.18755289 0 0 1 -0.08901,0.187324 0.08884085,0.18755289 0 0 1 -0.08901,-0.187324 0.08884085,0.18755289 0 0 1 0.08901,-0.18784 z m 15.547383,0.0098 a 0.07567925,0.25665135 9.4577194 0 1 5.18e-4,0 0.07567925,0.25665135 9.4577194 0 1 0.0052,5.2e-4 0.07567925,0.25665135 9.4577194 0 1 0.0326,0.26546 0.07567925,0.25665135 9.4577194 0 1 -0.116947,0.240624 0.07567925,0.25665135 9.4577194 0 1 -0.0326,-0.265462 0.07567925,0.25665135 9.4577194 0 1 0.111256,-0.241142 z m -6.422835,0.03415 c 0.396641,0.0035 0.920229,0.03918 1.465992,0.164038 1.293915,0.296001 3.293651,0.332935 3.423579,0.246317 -0.597171,0.995075 -1.122069,2.106096 -2.053321,2.56665 -0.379018,-0.138871 -0.782066,-0.318215 -1.368705,-0.803113 -0.418242,-0.250945 -3.692425,-0.86248 -3.211421,-0.816051 -0.144779,-0.32904 -0.22379,-0.53925 -0.118499,-0.657704 -0.248256,-0.06795 0.590578,-0.616925 1.158097,-0.671676 0.03808,-0.0037 0.307611,-0.03198 0.704278,-0.02846 z m -18.574063,0.403628 a 0.2171665,0.10529283 61.531084 0 1 0.167659,0.147478 0.2171665,0.10529283 61.531084 0 1 0.01087,0.24114 0.2171665,0.10529283 61.531084 0 1 -0.19612,-0.14075 0.2171665,0.10529283 61.531084 0 1 -0.01086,-0.241141 0.2171665,0.10529283 61.531084 0 1 0.0207,-0.0063 0.2171665,0.10529283 61.531084 0 1 0.0077,-5.16e-4 z m 8.987931,0.181113 0.679441,0.865728 -0.614238,2.410375 -0.623552,-0.223547 -0.493149,0.502462 c -0.921282,-0.07072 -2.273781,0.221099 -1.72214,-1.088755 l 0.400518,-0.856347 z m 2.379846,0.07556 0.09883,0.111772 c -0.454501,0.06111 -0.767097,0.301486 -0.605437,1.138951 l -0.131441,-0.13189 c -0.08431,-0.569201 0.03039,-1.006752 0.638043,-1.118768 z m 1.901701,0.05951 c 0.637126,0.04287 4.271195,1.164824 4.271195,1.164824 -0.355097,0.631864 -0.662618,1.282318 -0.671157,2.052803 -0.965074,-0.429114 -1.930153,-0.667953 -2.895243,-0.831056 -0.622039,-0.598144 -1.528791,-1.619065 -2.026929,-1.935338 -0.05969,-0.03789 -0.135652,-0.105565 -0.220961,-0.190945 0.464313,-0.04401 1.29551,-0.167719 1.457712,-0.25408 0.01388,-0.0073 0.0429,-0.009 0.08539,-0.0063 z m -13.0656,0.476134 a 0.15135844,0.07238883 53.554509 0 1 0.126779,0.08642 0.15135844,0.07238883 53.554509 0 1 0.03209,0.164557 0.15135844,0.07238883 53.554509 0 1 -0.148514,-0.07866 0.15135844,0.07238883 53.554509 0 1 -0.03156,-0.165071 0.15135844,0.07238883 53.554509 0 1 0.02121,-0.0072 z m 0.92006,0.04036 c 1.466497,0.457316 3.129101,0.682969 4.867323,0.819153 L 40.674468,47.289197 37.4082,47.149481 Z m 23.563508,0.132989 a 0.07238883,0.25336089 17.744678 0 1 0.0047,9.92e-4 0.07238883,0.25336089 17.744678 0 1 -0.0082,0.263392 0.07238883,0.25336089 17.744678 0 1 -0.145927,0.21889 0.07238883,0.25336089 17.744678 0 1 0.0082,-0.263392 0.07238883,0.25336089 17.744678 0 1 0.141268,-0.219926 z m -12.584347,0.06003 c 0.0256,0.01396 0.105044,0.0978 0.105044,0.0978 -0.274681,-0.01477 -0.521235,0.0607 -0.472448,1.077374 l -0.135062,-0.09573 c -0.03462,-0.628457 0.08522,-1.051411 0.502466,-1.079444 z m -2.110244,0.08642 0.549036,0.437262 1.005444,1.982429 c -0.08551,0.640411 -0.08501,1.366608 0.02794,2.205454 -0.573688,-0.380452 -1.117129,-0.893706 -1.7594,-0.976983 -0.0021,-0.937977 -0.09753,-1.950705 -0.223028,-2.987353 0.192329,-0.04345 0.400004,-0.04084 0.400004,-0.660809 z m 13.661204,0.17387 a 0.15464886,0.24019932 10.34725 0 1 5.19e-4,0 0.15464886,0.24019932 10.34725 0 1 0.02639,0.0016 0.15464886,0.24019932 10.34725 0 1 0.108668,0.263911 0.15464886,0.24019932 10.34725 0 1 -0.195087,0.208541 0.15464886,0.24019932 10.34725 0 1 -0.109187,-0.263912 0.15464886,0.24019932 10.34725 0 1 0.168696,-0.210092 z m -5.773929,0.213715 c 0.358785,-0.02544 2.860905,0.792293 3.140526,1.356808 0.107268,0.216557 0.437804,0.36424 0.140234,0.647354 -0.295752,0.281383 -0.521153,0.204384 -0.595608,0.185771 0.04817,-0.202547 -3.258794,-0.183788 -3.331988,-0.074 l 0.604921,-2.099376 c 0.0036,-0.0095 0.01799,-0.01485 0.04192,-0.01656 z m -5.211439,0.05433 0.07451,0.07451 c 0,0 -0.09861,-0.01392 -0.167658,0.04192 -0.118577,0.102847 -0.21396,0.878885 -0.0326,1.177245 l -0.228202,-0.163005 c -0.0081,-0.06726 0.09308,-1.019645 0.139716,-1.046841 0.0941,-0.05489 0.214231,-0.08383 0.214231,-0.08383 z m -11.770369,0.624069 a 0.17110085,0.07238883 54.073283 0 1 0.137129,0.102461 0.17110085,0.07238883 54.073283 0 1 0.04192,0.181112 0.17110085,0.07238883 54.073283 0 1 -0.15938,-0.09573 0.17110085,0.07238883 54.073283 0 1 -0.04139,-0.181117 0.17110085,0.07238883 54.073283 0 1 0.02174,-0.0067 z m 22.771263,0.174387 a 0.11845445,0.24348974 36.65013 0 1 0.0445,0.01242 0.11845445,0.24348974 36.65013 0 1 -0.05019,0.265981 0.11845445,0.24348974 36.65013 0 1 -0.240623,0.12471 0.11845445,0.24348974 36.65013 0 1 0.0502,-0.265981 0.11845445,0.24348974 36.65013 0 1 0.196123,-0.13713 z m -10.607099,0.187843 c -4.5e-4,0.360357 -0.163423,0.490982 0.06262,1.17155 L 48.003917,48.09076 c 0.01519,-0.648357 0.0753,-0.863316 0.151617,-0.917991 z m 9.712392,0.312033 a 0.16122966,0.2204569 32.877724 0 1 0.07451,0.01966 0.16122966,0.2204569 32.877724 0 1 0.01553,0.272708 0.16122966,0.2204569 32.877724 0 1 -0.255112,0.09728 0.16122966,0.2204569 32.877724 0 1 -0.01553,-0.272708 0.16122966,0.2204569 32.877724 0 1 0.180597,-0.116949 z m -20.013148,0.01863 c 0.956567,0.20396 1.875175,0.219025 2.782438,0.176456 l 0.428465,0.586294 c -0.25887,0.862603 -0.796204,1.194497 -1.601052,1.014758 z m -1.188109,0.06933 a 0.26652254,0.05922723 45.927028 0 1 0.215784,0.154208 0.26652254,0.05922723 45.927028 0 1 0.142823,0.23286 0.26652254,0.05922723 45.927028 0 1 -0.228205,-0.150065 0.26652254,0.05922723 45.927028 0 1 -0.142823,-0.232862 0.26652254,0.05922723 45.927028 0 1 0.01242,-0.0042 z m 20.264119,0.0082 a 0.14148726,0.14806806 0 0 1 0.0098,0 0.14148726,0.14806806 0 0 1 0.141788,0.147998 0.14148726,0.14806806 0 0 1 -0.141788,0.147995 0.14148726,0.14806806 0 0 1 -0.141268,-0.147995 0.14148726,0.14806806 0 0 1 0.131437,-0.147998 z m -8.248987,0.213718 c -0.01238,0.416307 -0.1523,0.773007 0.0921,1.309713 L 48.49085,48.745831 c -0.02946,-0.566785 0.05418,-0.830482 0.190946,-0.951108 z m -4.776764,0.423288 c 0.259764,0.0167 0.438334,0.289569 0.641144,0.485906 0.09758,1.101695 0.220055,2.205348 0.586293,3.331469 -0.62405,0.08511 -1.520024,-0.403654 -2.354486,-0.762749 l 0.549035,-2.736382 c 0.237074,-0.246121 0.422154,-0.328264 0.578014,-0.318244 z m 13.464049,0.09987 a 0.21716652,0.10858325 0 0 1 5.16e-4,0 0.21716652,0.10858325 0 0 1 0.01553,0 0.21716652,0.10858325 0 0 1 0.217337,0.10867 0.21716652,0.10858325 0 0 1 -0.217337,0.108669 0.21716652,0.10858325 0 0 1 -0.217336,-0.108669 0.21716652,0.10858325 0 0 1 0.201295,-0.10867 z M 43.010846,48.54557 42.66621,49.439241 c -0.141627,1.023028 -0.29803,1.927567 -0.586292,1.777508 -0.701009,-0.287274 -1.303623,-0.919363 -1.907911,-1.545165 l 1.116699,-0.223029 c 0.19733,-0.217459 0.267623,-0.466831 0.372578,-0.707382 z m -5.318037,0.150067 a 0.29613613,0.06251763 41.413624 0 1 0.0067,0 0.29613613,0.06251763 41.413624 0 1 0.244245,0.154206 0.29613613,0.06251763 41.413624 0 1 0.181116,0.243211 0.29613613,0.06251763 41.413624 0 1 -0.263912,-0.149031 0.29613613,0.06251763 41.413624 0 1 -0.180596,-0.242695 0.29613613,0.06251763 41.413624 0 1 0.01242,-0.0057 z m 11.4366,0.04347 c -0.05211,0.161121 -0.126124,0.29674 -0.14489,0.496771 l 0.0859,0.326006 -0.194569,-0.306342 c 0.06748,-0.243502 0.155124,-0.40297 0.253559,-0.516435 z m 0.36844,0.72394 c -0.03576,0.121088 -0.110397,0.227667 -0.101942,0.365335 l 0.06262,0.213715 -0.198192,-0.278399 c 0.05405,-0.138012 0.1475,-0.216602 0.23752,-0.300651 z m -4.495778,0.199225 1.68488,0.949559 c -0.248406,0.477279 -0.287203,1.374162 -0.400521,2.121625 -1.078447,-0.719316 -1.368898,-1.807489 -1.284359,-3.071184 z m -5.84327,0.209577 a 0.27639373,0.05264643 34.794426 0 1 0.238036,0.12057 0.27639373,0.05264643 34.794426 0 1 0.197156,0.200778 0.27639373,0.05264643 34.794426 0 1 -0.257184,-0.11436 0.27639373,0.05264643 34.794426 0 1 -0.197156,-0.201297 0.27639373,0.05264643 34.794426 0 1 0.01915,-0.0057 z m 1.587598,1.146194 a 0.3553634,0.07567925 34.034728 0 1 0.310997,0.145927 0.3553634,0.07567925 34.034728 0 1 0.252527,0.261323 0.3553634,0.07567925 34.034728 0 1 -0.336873,-0.136095 0.3553634,0.07567925 34.034728 0 1 -0.252009,-0.261322 0.3553634,0.07567925 34.034728 0 1 0.02536,-0.0098 z m 2.21891,1.254349 a 0.28297458,0.07238884 27.445454 0 1 0.251491,0.08124 0.28297458,0.07238884 27.445454 0 1 0.217854,0.194567 0.28297458,0.07238884 27.445454 0 1 -0.284609,-0.06624 0.28297458,0.07238884 27.445454 0 1 -0.217337,-0.194567 0.28297458,0.07238884 27.445454 0 1 0.0326,-0.015 z m 1.804416,0.108667 a 0.12174484,0.05593682 63.925954 0 1 0.09315,0.08797 0.12174484,0.05593682 63.925954 0 1 0.0031,0.133509 0.12174484,0.05593682 63.925954 0 1 -0.10401,-0.08435 0.12174484,0.05593682 63.925954 0 1 -0.0031,-0.134025 0.12174484,0.05593682 63.925954 0 1 0.01086,-0.0031 z m 0.455893,0.400522 a 0.19084329,0.07567925 31.98476 0 1 5.16e-4,0 0.19084329,0.07567925 31.98476 0 1 0.0119,0 0.19084329,0.07567925 31.98476 0 1 0.1511,0.05589 0.19084329,0.07567925 31.98476 0 1 0.121607,0.165071 0.19084329,0.07567925 31.98476 0 1 -0.201813,-0.03674 0.19084329,0.07567925 31.98476 0 1 -0.122124,-0.16559 0.19084329,0.07567925 31.98476 0 1 0.03881,-0.01862 z m 0.772581,0.113328 a 0.13161605,0.07567925 57.855352 0 1 0.112291,0.07813 0.13161605,0.07567925 57.855352 0 1 0.0057,0.151617 0.13161605,0.07567925 57.855352 0 1 -0.134024,-0.07089 0.13161605,0.07567925 57.855352 0 1 -0.0057,-0.152134 0.13161605,0.07567925 57.855352 0 1 0.02173,-0.0067 z m -1.440636,0.06157 a 0.20071449,0.10200245 23.10293 0 1 5.19e-4,0 0.20071449,0.10200245 23.10293 0 1 0.123157,0.02898 0.20071449,0.10200245 23.10293 0 1 0.14489,0.172317 0.20071449,0.10200245 23.10293 0 1 -0.224581,0.015 0.20071449,0.10200245 23.10293 0 1 -0.144892,-0.172317 0.20071449,0.10200245 23.10293 0 1 0.100907,-0.04398 z m 1.274012,0.362746 a 0.05264643,0.05264643 0 0 1 5.17e-4,0 0.05264643,0.05264643 0 0 1 0.0037,0 0.05264643,0.05264643 0 0 1 0.05279,0.05278 0.05264643,0.05264643 0 0 1 -0.05279,0.05279 0.05264643,0.05264643 0 0 1 -0.05278,-0.05279 0.05264643,0.05264643 0 0 1 0.04865,-0.05278 z"
       id="path4348"
       inkscape:connector-curvature="0" />
  </g>
</svg>
