<?xml version="1.0" encoding="UTF-8" standalone="no"?>
<!-- Created with Inkscape (http://www.inkscape.org/) -->

<svg
   xmlns:dc="http://purl.org/dc/elements/1.1/"
   xmlns:cc="http://creativecommons.org/ns#"
   xmlns:rdf="http://www.w3.org/1999/02/22-rdf-syntax-ns#"
   xmlns:svg="http://www.w3.org/2000/svg"
   xmlns="http://www.w3.org/2000/svg"
   xmlns:sodipodi="http://sodipodi.sourceforge.net/DTD/sodipodi-0.dtd"
   xmlns:inkscape="http://www.inkscape.org/namespaces/inkscape"
   width="39.687515mm"
   height="18.134243mm"
   viewBox="0 0 39.687515 18.134243"
   version="1.1"
   id="svg821"
   inkscape:version="0.92.3 (2405546, 2018-03-11)"
   sodipodi:docname="butterfly-wireframe3-transparent.svg">
  <defs
     id="defs815">
    <filter
       x="-0.12675001"
       y="-0.27739999"
       width="1.2535"
       height="1.5548"
       style="color-interpolation-filters:sRGB"
       id="filter4174">
      <feGaussianBlur
         stdDeviation="50.627189"
         id="feGaussianBlur4176" />
    </filter>
    <clipPath
       clipPathUnits="userSpaceOnUse"
       id="clipPath4319">
      <path
         d="m 865.04,0.13477 c -11.708,-0.030768 -19.562,0.19583 -21.762,0.65039 -2.5781,0.53277 -9.539,1.83 -15.469,2.8828 -21.474,3.8127 -31.944,6.2825 -39.844,9.3984 -1.0315,0.40678 -7.3595,2.5505 -14.063,4.7637 -6.7031,2.2132 -13.242,4.545 -14.531,5.1816 -1.2891,0.63666 -6.7734,2.9638 -12.188,5.1719 -11.904,4.8548 -25.018,10.601 -30.469,13.352 -3.7254,1.8794 -4.7614,2.3724 -9.375,4.4629 -9.3695,4.2452 -42.186,20.956 -44.063,22.438 -2.1822,1.7226 -8.1325,4.6895 -9.4042,4.6895 -0.7577,0 -1.377,0.31923 -1.377,0.70898 0,0.38975 -1.3711,1.3086 -3.0469,2.043 -1.6758,0.73441 -5.69,2.9464 -8.9219,4.916 -3.2317,1.9696 -6.1075,3.582 -6.3906,3.582 -0.2831,0 -1.8979,1.0547 -3.5879,2.3438 -1.6901,1.2891 -3.3372,2.3438 -3.6601,2.3438 -0.323,0 -2.3931,1.2192 -4.5996,2.709 -10.41,7.0288 -27.063,17.916 -27.404,17.916 -0.2094,0 -3.0476,1.7905 -6.3067,3.9785 -3.2591,2.188 -6.6201,4.4028 -7.4687,4.9219 -1.8597,1.1374 -10.294,7.1304 -14.936,10.613 -1.8447,1.3842 -6.6962,5.021 -10.781,8.0801 -9.8421,7.3704 -25.368,19.424 -39.717,30.834 -10.393,8.2647 -18.041,13.76 -19.152,13.76 -0.2121,0 -0.6754,-1.1602 -1.0293,-2.5781 -0.3538,-1.418 -1.2739,-3.2791 -2.0449,-4.1348 -1.2611,-1.3998 -1.1842,-1.6208 0.7754,-2.2188 10.958,-3.3436 8.4124,-18.785 -3.043,-18.459 -2.3065,0.0656 -2.748,-0.28793 -2.748,-2.2031 0,-1.2546 0.3884,-2.2812 0.8633,-2.2812 0.4748,0 4.2639,-4.7939 8.4199,-10.652 4.156,-5.8584 8.1973,-11.182 8.9805,-11.832 0.7832,-0.65 1.4238,-1.5476 1.4238,-1.9941 0,-0.4466 0.6145,-1.5566 1.3652,-2.4648 5.53,-6.6897 11.754,-14.901 11.754,-15.518 0.01,-0.81457 0.3279,-1.2576 4.9121,-6.7578 4.1106,-4.9318 8.315,-10.402 10.23,-13.311 0.8486,-1.2886 2.8393,-3.8828 4.4238,-5.7656 4.3098,-5.1214 11.696,-15.285 13.086,-18.006 0.673,-1.3173 2.4629,-3.7203 3.9765,-5.3398 1.5136,-1.6196 2.752,-3.4466 2.752,-4.0586 0,-0.61202 0.7631,-1.795 1.6953,-2.6289 1.4349,-1.2836 14.242,-19.49 14.242,-20.246 0,-0.14095 1.7159,-2.0786 3.8125,-4.3047 2.0174,-2.142 3.0889,-3.7177 3.3301,-4.9062 1.5399,-1.5821 5.2783,-6.7711 6.4043,-8.9688 1.4785,-2.8856 1.9221,-4.5733 2.6191,-9.9297 0.38,-2.9202 -2.527,-2.7976 -3.8926,0.16406 -0.6626,1.437 -1.752,3.668 -2.4218,4.957 -0.6698,1.2891 -2.8847,5.729 -4.9219,9.8672 -2.0372,4.1382 -9.2377,15.405 -16.002,25.037 -11.092,15.793 -53.441,73.374 -69.137,94.002 -0.7846,1.0312 -2.7685,3.7734 -4.4082,6.0938 l -2.9805,4.2188 -0.832,-5.1562 c -0.4567,-2.8359 -0.9772,-5.3137 -1.1582,-5.5059 -0.6478,-0.68764 -6.9747,5.9482 -7.0117,7.3535 -0.021,0.78888 -0.7844,-0.0583 -1.6973,-1.8828 -0.9129,-1.8246 -1.9638,-3.8119 -2.3359,-4.4141 -1.2096,-1.9571 -3.3648,-0.14068 -3.9942,3.3672 -1.4524,8.0962 3.6934,14.03 -45.805,-52.824 -17.94,-24.235 -35.31,-47.649 -38.59,-52.032 -3.2814,-4.3828 -5.9726,-8.669 -5.9726,-9.5254 -0.022,-5.6061 -10.735,-23.421 -12.572,-20.908 -1.4763,2.0189 7.2285,22.115 10.604,24.479 1.0795,0.75615 1.9629,1.9092 1.9629,2.5625 0,0.6533 3.0586,4.7833 6.7969,9.1777 9.5198,11.191 11.975,14.406 15.56,20.387 2.9617,4.9394 9.5586,14.101 12.062,16.752 0.6264,0.66329 1.8787,2.4563 2.7813,3.9844 0.9027,1.5281 2.1138,2.7793 2.6933,2.7793 0.5795,0 1.4892,0.94922 2.0215,2.1094 0.5323,1.16018 3.9964,5.9062 7.6973,10.547 3.7008,4.6406 10.131,13.5 14.289,19.688 4.1581,6.1875 8.9292,12.727 10.602,14.531 1.6723,1.8047 3.2603,3.9141 3.5293,4.6875 0.2689,0.77344 2.4394,3.9956 4.8223,7.1602 3.7553,4.9871 5.9507,10.826 3.5019,9.3125 -1.1232,-0.69414 -6.5515,1.2175 -9.7168,3.4219 -5.5622,3.8736 -2.2186,15.73 4.4356,15.73 2.3675,0 2.3833,0.049 0.9785,2.7656 -0.7866,1.5213 -1.4297,3.4197 -1.4297,4.2188 0,1.9638 -0.6366,1.8323 -3.1719,-0.65626 -1.1819,-1.1602 -4.3733,-4.0078 -7.0918,-6.3281 -2.7185,-2.3203 -5.9125,-5.1488 -7.0976,-6.2852 -1.1851,-1.1363 -4.6148,-3.6394 -7.6211,-5.5625 -3.0062,-1.9231 -6.2776,-4.2537 -7.2715,-5.1797 -0.9939,-0.92596 -3.531,-2.839 -5.6367,-4.25 -2.1057,-1.411 -4.5144,-3.2128 -5.3535,-4.0039 -2.6312,-2.4808 -5.6251,-4.8359 -15.793,-12.426 -5.428,-4.0517 -10.558,-7.9363 -11.4,-8.6328 -2.401,-1.9863 -12.973,-8.9098 -16.678,-10.922 -3.7589,-2.0413 -3.1978,-1.6917 -17.422,-10.807 -5.7182,-3.6643 -11.431,-7.2082 -12.695,-7.875 -1.2645,-0.66682 -2.5098,-1.4662 -2.7676,-1.7773 -0.6197,-0.74794 -10.302,-6.6543 -10.908,-6.6543 -0.2596,0 -2.2352,-1.2063 -4.3906,-2.6797 -5.2706,-3.6029 -17.867,-10.782 -33.92,-19.334 -4.6407,-2.4724 -9.0704,-5.0143 -9.8438,-5.6484 -0.7734,-0.63415 -6.0468,-3.3552 -11.719,-6.0449 -16.776,-7.9555 -18.727,-8.9204 -19.219,-9.5195 -0.2578,-0.31405 -2.1564,-1.1409 -4.2187,-1.8359 -2.0626,-0.695 -4.4165,-1.8079 -5.2305,-2.4746 -0.8141,-0.66673 -1.7326,-1.2129 -2.041,-1.2129 -0.3085,0 -3.6499,-1.42 -7.4258,-3.1562 -3.7759,-1.7362 -7.9199,-3.4827 -9.209,-3.8809 -1.2891,-0.39818 -4.4532,-1.7024 -7.0313,-2.8984 -2.578,-1.1961 -8.0624,-3.2659 -12.187,-4.5977 -4.125,-1.3318 -8.344,-2.7826 -9.375,-3.2246 -2.7906,-1.1958 -7.0853,-2.6572 -10.781,-3.668 -1.8047,-0.49352 -7.5,-2.2441 -12.656,-3.8906 -11.81,-3.771 -17.58,-5.4763 -29.52,-8.7351 -42.833,-11.689 -102.83,-5.2669 -127.01,13.598 -21.081,16.444 -20.997,50.82 0.1797,73.887 1.1786,1.2838 2.1426,2.6923 2.1426,3.1309 0,1.0713 14.185,15.047 20.621,20.316 2.8342,2.3203 6.031,5.0625 7.1035,6.0938 1.0725,1.0312 3.3725,2.9297 5.1094,4.2188 1.737,1.2891 4.4464,3.4114 6.0215,4.7168 1.5751,1.3055 5.3945,4.2104 8.4882,6.4551 7.0377,5.1061 17.559,15.67 22.953,23.047 5.4182,7.4096 22.539,24.097 24.105,23.496 0.6726,-0.25807 1.2227,-0.0748 1.2227,0.40625 0,0.48102 2.4816,3.3156 5.5137,6.2988 3.0321,2.9833 7.8433,9.0098 10.691,13.393 10.29,15.835 21.076,24.375 30.787,24.375 2.8038,0 2.8487,0.0721 2.2441,3.6504 -0.3391,2.0073 -0.7216,5.7193 -0.8496,8.25 -0.1279,2.5307 -0.5917,5.1806 -1.0293,5.8887 -4.294,6.9478 0.8723,28.101 9.0469,37.045 3.939,4.3098 4.5382,5.496 4.5742,9.0469 0.085,8.4539 7.2475,20.598 17.416,29.531 5.6399,4.9546 10.668,15.145 10.668,21.633 0,4.6704 7.2926,16.162 16.641,26.234 2.1914,2.3611 3.9844,4.8732 3.9844,5.582 0,0.70885 0.3988,2.0226 0.8867,2.918 0.488,0.89535 1.9935,3.9473 3.3457,6.7832 6.476,13.582 12.093,18.357 27.531,23.402 10.141,3.3139 12.629,4.5425 19.639,9.7031 10.268,7.5601 11.412,8.0344 22.192,9.1894 4.6404,0.49728 8.9681,1.0854 9.6171,1.3086 0.649,0.22322 2.2234,0.0101 3.4981,-0.47461 1.7631,-0.67032 4.5097,-0.19997 11.476,1.9668 13.654,4.2466 29.957,5.4785 36.346,2.7461 1.0312,-0.44107 6.1443,-1.2791 11.361,-1.8613 9.941,-1.1094 19.287,-3.9846 26.527,-8.1602 2.3645,-1.3637 6.4957,-3.702 9.1797,-5.1973 5.2317,-2.9145 13.235,-11.363 16.914,-17.855 1.2428,-2.1929 2.9475,-4.7514 3.789,-5.6856 1.3904,-1.5432 4.4609,-10.449 8.3028,-24.082 1.2831,-4.5532 4.4416,-18.57 6.9707,-30.938 0.9153,-4.476 1.9461,-7.5273 4.5957,-13.594 0.9008,-2.0625 2.2146,-5.4375 2.9179,-7.5 0.7034,-2.0625 2.0246,-5.1347 2.9375,-6.8262 0.913,-1.6915 1.6602,-3.7001 1.6602,-4.4648 0,-0.76475 0.4014,-2.1242 0.8926,-3.0195 4.6659,-8.5036 8.5045,-28.48 9.0488,-47.096 0.4958,-16.958 3.1836,-33.932 3.1836,-20.105 0,0.80173 0.8529,3.329 1.8945,5.6152 3.8677,8.4903 4.7821,37.805 1.8848,60.428 -5.4655,42.675 5.6079,83.061 16.227,59.178 6.9546,-15.642 7.656,-31.565 2.9355,-66.678 -1.1844,-8.8101 -1.4394,-15.325 -1.0273,-26.25 0.5513,-14.618 0.7648,-15.9 4.1816,-25.285 l 1.8672,-5.1289 0.5,3.2539 c 0.2755,1.7898 0.7261,9.582 1,17.316 0.5114,14.438 2.2028,27.589 4.8242,37.5 1.7407,6.5813 5.84,19.801 6.9766,22.5 1.8312,4.3484 4.9522,15.213 9.4258,32.812 2.6214,10.312 5.0889,20.016 5.4843,21.562 7.3265,28.66 36.271,56.746 60.826,59.023 7.9744,0.73975 14.799,1.9192 18,3.1113 7.4225,2.7642 12.636,1.8506 25.781,-4.5215 10.034,-4.8642 21.28,-5.9491 29.932,-2.8867 8.361,2.9595 14.897,0.45087 27.166,-10.43 1.0175,-0.90233 2.221,-1.6406 2.6738,-1.6406 0.4528,0 2.2004,-1.0512 3.8848,-2.3359 1.6845,-1.2848 4.4074,-2.6049 6.0508,-2.9336 1.6435,-0.32869 3.2147,-0.96503 3.4922,-1.4141 0.2775,-0.44902 2.1429,-0.81641 4.1445,-0.81641 2.0016,0 3.9,-0.42188 4.2187,-0.9375 0.3188,-0.51563 1.2273,-0.9375 2.0196,-0.9375 0.7923,0 2.561,-0.78223 3.9297,-1.7383 1.3686,-0.95607 3.6484,-2.0185 5.0664,-2.3613 1.4179,-0.34284 2.5781,-0.95862 2.5781,-1.3672 0,-0.40858 0.8856,-1.6929 1.9688,-2.8555 1.083,-1.1626 1.7362,-2.3477 1.4511,-2.6328 -0.2851,-0.28511 -0.011,-1.044 0.6094,-1.6875 4.452,-4.6206 5.0504,-5.9208 5.2148,-11.332 0.1799,-5.9216 1.632,-11.65 2.9532,-11.65 0.4409,0 1.069,-0.84375 1.3965,-1.875 0.3271,-1.0312 1.1636,-1.875 1.8593,-1.875 0.6957,0 1.4062,-0.31643 1.5781,-0.70312 0.4252,-0.95689 7.9838,-6.778 8.9297,-6.877 4.0239,-0.42121 9.3408,-11.584 10.268,-21.557 0.6321,-6.8004 4.9715,-13.988 8.4453,-13.988 0.683,0 1.9864,-0.60567 2.8946,-1.3457 0.9083,-0.74003 3.5336,-2.7549 5.8359,-4.4766 7.0962,-5.3066 10.633,-12.485 10.924,-22.174 0.2741,-9.1385 0.8958,-11.963 2.7949,-12.691 0.7227,-0.2773 1.3145,-1.1303 1.3145,-1.8965 0,-0.76618 0.9492,-2.3831 2.1094,-3.5918 7.8806,-8.2102 8.9191,-11.53 7.2636,-23.225 -1.4765,-10.43 -3.7476,-16.896 -7.2285,-20.572 -4.6615,-4.9229 -4.1773,-5.5621 4.1836,-5.5078 7.7511,0.0503 16.612,-2.1847 17.465,-4.4062 0.2698,-0.7029 2.0939,-2.1052 4.0527,-3.1152 4.4937,-2.3174 9.2672,-8.0585 14.482,-17.418 3.7609,-6.7493 12.943,-17.393 15.006,-17.393 5.8117,0 24.023,-17.675 29.781,-28.904 3.149,-6.1408 11.25,-14.608 20.688,-21.623 3.873,-2.8788 8.9395,-7.0259 11.26,-9.2168 2.3203,-2.191 4.91,-3.9871 5.7539,-3.9941 0.844,-0.006 3.7971,-2.3551 6.5625,-5.2188 2.7654,-2.8636 8.7188,-8.9766 13.23,-13.586 4.5117,-4.6094 8.2031,-8.9827 8.2031,-9.7168 0,-0.73405 0.3164,-1.4746 0.7031,-1.6465 1.0657,-0.47364 5.8594,-7.7712 5.8594,-8.9199 0,-0.55368 0.6327,-1.5319 1.4063,-2.1738 0.7732,-0.6419 1.4062,-1.8205 1.4062,-2.6191 0,-0.79861 0.6588,-2.1797 1.4648,-3.0703 2.8553,-3.155 5.0966,-17.581 4.1524,-26.732 -2.0027,-19.412 -7.3728,-30.301 -17.465,-35.412 -2.1838,-1.1059 -7.477,-3.87 -11.764,-6.1445 -13.71,-7.3047 -16.7,-7.7904 -50.9,-8.288 -4.69,-0.06832 -9.02,-0.10698 -12.93,-0.11723 z"
         id="path4321"
         inkscape:connector-curvature="0" />
    </clipPath>
  </defs>
  <sodipodi:namedview
     id="base"
     pagecolor="#ffffff"
     bordercolor="#666666"
     borderopacity="1.0"
     inkscape:pageopacity="0.0"
     inkscape:pageshadow="2"
     inkscape:zoom="2.8"
     inkscape:cx="59.748338"
     inkscape:cy="-40.231683"
     inkscape:document-units="mm"
     inkscape:current-layer="layer1"
     showgrid="false"
     fit-margin-top="0"
     fit-margin-left="0"
     fit-margin-right="0"
     fit-margin-bottom="0"
     inkscape:window-width="1920"
     inkscape:window-height="1015"
     inkscape:window-x="0"
     inkscape:window-y="0"
     inkscape:window-maximized="1" />
  <metadata
     id="metadata818">
    <rdf:RDF>
      <cc:Work
         rdf:about="">
        <dc:format>image/svg+xml</dc:format>
        <dc:type
           rdf:resource="http://purl.org/dc/dcmitype/StillImage" />
        <dc:title></dc:title>
      </cc:Work>
    </rdf:RDF>
  </metadata>
  <g
     inkscape:label="Taso 1"
     inkscape:groupmode="layer"
     id="layer1"
     transform="translate(-65.045451,-29.695937)">
    <path
       inkscape:connector-curvature="0"
       id="path4166"
       d="m 89.93556,47.768893 c -0.132534,-0.0494 -0.415092,-0.0982 -0.745272,-0.12883 -1.01666,-0.0943 -2.214951,-1.25712 -2.5183,-2.44369 -0.01637,-0.064 -0.118563,-0.46577 -0.227092,-0.89271 -0.185215,-0.72862 -0.314435,-1.17845 -0.390249,-1.35847 -0.04706,-0.11175 -0.216747,-0.65907 -0.288815,-0.93154 -0.10853,-0.41034 -0.178582,-0.9548 -0.199754,-1.55256 -0.01135,-0.32022 -0.02995,-0.64285 -0.04136,-0.71695 l -0.02074,-0.13474 -0.07731,0.21236 c -0.14146,0.38855 -0.150242,0.44168 -0.173071,1.04685 -0.01706,0.45231 -0.0065,0.72204 0.04253,1.08679 0.195437,1.45374 0.166414,2.11302 -0.121517,2.76063 -0.439646,0.98879 -0.89817,-0.68326 -0.671868,-2.45012 0.119953,-0.93663 0.0821,-2.15028 -0.07803,-2.50182 -0.04312,-0.0947 -0.0784,-0.19926 -0.0784,-0.23245 0,-0.57242 -0.111271,0.1303 -0.131798,0.83238 -0.02254,0.7707 -0.181443,1.59782 -0.374619,1.9499 -0.02034,0.0371 -0.03698,0.0933 -0.03698,0.12497 0,0.0317 -0.03092,0.11486 -0.06872,0.18489 -0.0378,0.07 -0.09255,0.19719 -0.121668,0.28258 -0.02912,0.0854 -0.08346,0.22512 -0.120752,0.31051 -0.109698,0.25116 -0.152416,0.3775 -0.190311,0.56282 -0.104709,0.51201 -0.23546,1.09234 -0.288583,1.28089 -0.159061,0.56442 -0.286185,0.93319 -0.34375,0.99707 -0.03484,0.0387 -0.105446,0.1446 -0.156904,0.23539 -0.152338,0.26879 -0.483655,0.61854 -0.700269,0.73923 -0.111122,0.0619 -0.282136,0.15875 -0.38003,0.21521 -0.299749,0.17287 -0.68673,0.29191 -1.098305,0.33784 -0.215997,0.0241 -0.427638,0.0588 -0.470365,0.077 -0.264503,0.11312 -0.939488,0.0621 -1.504787,-0.11369 -0.288433,-0.0897 -0.402143,-0.1092 -0.475126,-0.0814 -0.05278,0.0201 -0.117945,0.0289 -0.144815,0.0197 -0.02687,-0.009 -0.206052,-0.0336 -0.398181,-0.0542 -0.446269,-0.0478 -0.493632,-0.0674 -0.918745,-0.38044 -0.290193,-0.21365 -0.393188,-0.26455 -0.813047,-0.40175 -0.639201,-0.20888 -0.871755,-0.40654 -1.139872,-0.96884 -0.05598,-0.11741 -0.118318,-0.24381 -0.138518,-0.28088 -0.0202,-0.0371 -0.03673,-0.0914 -0.03673,-0.12076 0,-0.0293 -0.07423,-0.13333 -0.164961,-0.23109 -0.387023,-0.417 -0.6888,-0.89278 -0.688924,-1.08617 -1.73e-4,-0.26861 -0.20823,-0.6905 -0.441715,-0.89564 -0.420973,-0.36984 -0.717492,-0.87263 -0.721011,-1.22264 -0.0015,-0.14701 -0.02634,-0.19618 -0.189417,-0.37461 -0.338443,-0.37031 -0.552258,-1.24603 -0.374495,-1.53369 0.01812,-0.0293 0.03728,-0.13902 0.04258,-0.2438 0.0053,-0.10478 0.02112,-0.2585 0.03516,-0.34161 0.02503,-0.14815 0.02321,-0.1511 -0.09287,-0.1511 -0.402057,0 -0.848653,-0.35357 -1.274677,-1.00916 -0.117916,-0.18146 -0.317104,-0.431 -0.442625,-0.5545 -0.125534,-0.12351 -0.228244,-0.24086 -0.228244,-0.26077 0,-0.0199 -0.02278,-0.0275 -0.05063,-0.0168 -0.06487,0.0249 -0.773715,-0.66602 -0.99803,-0.97281 -0.222575,-0.30555 -0.658121,-0.74275 -0.949507,-0.95431 -0.128097,-0.0927 -0.28621,-0.21322 -0.351459,-0.26704 -0.06521,-0.0542 -0.177365,-0.14201 -0.24928,-0.19542 -0.07191,-0.0534 -0.167097,-0.13207 -0.21148,-0.17471 -0.04442,-0.0427 -0.176744,-0.15609 -0.294117,-0.25214 -0.266462,-0.21819 -0.853787,-0.79686 -0.853787,-0.8412 0,-0.0182 -0.03992,-0.0765 -0.08872,-0.12965 -0.876722,-0.95498 -0.8802,-2.3782 -0.0074,-3.05901 1.001259,-0.781 3.485072,-1.04697 5.258432,-0.56302 0.494419,0.13492 0.7331,0.20558 1.222634,0.3619 0.213476,0.0682 0.449292,0.14066 0.52398,0.1611 0.153021,0.0418 0.330837,0.10233 0.446352,0.15184 0.04269,0.0183 0.217359,0.0784 0.388141,0.13353 0.170782,0.0551 0.397846,0.14076 0.504604,0.19028 0.106738,0.0495 0.237737,0.10353 0.291104,0.12001 0.05337,0.0165 0.224944,0.0888 0.381273,0.16067 0.156329,0.0719 0.294685,0.1307 0.307457,0.1307 0.01277,0 0.0508,0.0226 0.0845,0.0502 0.0337,0.0276 0.131144,0.0737 0.216535,0.10251 0.08539,0.0288 0.163988,0.063 0.174666,0.076 0.02036,0.0248 0.101136,0.0648 0.795699,0.39419 0.234827,0.11136 0.453142,0.22396 0.485187,0.25021 0.03202,0.0263 0.215417,0.13149 0.40755,0.23384 0.664622,0.35409 1.186077,0.65138 1.404305,0.80051 0.08924,0.061 0.171043,0.11091 0.181787,0.11091 0.02511,0 0.425982,0.2445 0.451651,0.27547 0.01067,0.0129 0.06224,0.046 0.114596,0.0736 0.05235,0.0276 0.288889,0.17432 0.525636,0.32603 0.588898,0.37738 0.56563,0.36294 0.721259,0.44747 0.153394,0.0833 0.591093,0.36992 0.690498,0.45215 0.03486,0.0288 0.247247,0.18968 0.47198,0.35743 0.420973,0.31423 0.544929,0.41175 0.653857,0.51445 0.03474,0.0328 0.134494,0.10735 0.221673,0.16577 0.08718,0.0584 0.192175,0.13758 0.233324,0.17592 0.04115,0.0383 0.176653,0.13485 0.301115,0.21447 0.124466,0.0796 0.266444,0.18325 0.31551,0.2303 0.04906,0.047 0.181298,0.16414 0.293848,0.2602 0.112551,0.0961 0.244676,0.21396 0.293609,0.26199 0.104966,0.10304 0.131314,0.10849 0.131314,0.0272 0,-0.0331 0.02665,-0.11168 0.05922,-0.17467 0.05816,-0.11247 0.05744,-0.11451 -0.04058,-0.11451 -0.275495,0 -0.413885,-0.4909 -0.1836,-0.65125 0.131049,-0.0913 0.355802,-0.17041 0.402304,-0.14167 0.101385,0.0627 0.01046,-0.1791 -0.145021,-0.38557 -0.09866,-0.13102 -0.18849,-0.26441 -0.199623,-0.29643 -0.01113,-0.032 -0.0769,-0.11936 -0.146136,-0.19408 -0.06924,-0.0747 -0.266743,-0.34544 -0.438899,-0.6016 -0.172157,-0.25618 -0.438362,-0.62298 -0.591589,-0.81512 -0.15322,-0.19213 -0.296619,-0.38863 -0.318657,-0.43666 -0.02236,-0.0477 -0.06003,-0.087 -0.08405,-0.087 -0.02399,0 -0.0742,-0.0518 -0.111573,-0.11503 -0.03737,-0.0633 -0.08917,-0.1375 -0.11511,-0.16496 -0.103665,-0.10976 -0.376809,-0.48908 -0.499429,-0.6936 -0.148462,-0.24761 -0.250091,-0.38076 -0.64421,-0.84406 -0.154772,-0.18194 -0.281404,-0.35292 -0.281404,-0.37997 0,-0.0271 -0.03657,-0.0748 -0.08126,-0.1061 -0.139731,-0.0979 -0.500133,-0.9298 -0.439024,-1.01339 0.07608,-0.10405 0.519592,0.63349 0.520544,0.86559 1.72e-4,0.0354 0.111412,0.21293 0.247268,0.39438 0.135856,0.18146 0.854821,1.15085 1.597692,2.15417 2.049303,2.76788 1.836291,2.52224 1.896447,2.18705 0.02605,-0.14523 0.115221,-0.22043 0.165301,-0.13939 0.01541,0.0249 0.05894,0.10713 0.09673,0.18267 0.0378,0.0755 0.06941,0.11062 0.07026,0.078 0.0016,-0.0582 0.263467,-0.33288 0.290283,-0.30441 0.0075,0.008 0.0291,0.11053 0.04801,0.22794 l 0.03438,0.21348 0.123431,-0.17467 c 0.06789,-0.0961 0.15001,-0.20959 0.182494,-0.25229 0.649801,-0.85404 2.403163,-3.23799 2.86235,-3.89185 0.280052,-0.39877 0.578216,-0.86521 0.662551,-1.03653 0.08434,-0.17133 0.17604,-0.35517 0.203772,-0.40854 0.02773,-0.0534 0.07287,-0.14571 0.100295,-0.20521 0.05653,-0.12261 0.176897,-0.12768 0.161164,-0.007 -0.02886,0.22176 -0.0473,0.29161 -0.108505,0.41108 -0.05904,0.11524 -0.250319,0.34389 -0.250319,0.29924 0,-0.009 0.06113,-0.13622 0.135846,-0.28212 0.07472,-0.1459 0.134378,-0.30227 0.132582,-0.34748 -0.0023,-0.0589 -0.02474,-0.0355 -0.07886,0.0822 -0.04157,0.0904 -0.07245,0.16903 -0.06862,0.17467 0.0038,0.006 -0.02958,0.0819 -0.07426,0.16946 -0.04468,0.0876 -0.07231,0.19336 -0.0614,0.23508 0.01364,0.0522 -0.02941,0.12812 -0.137983,0.24341 -0.0868,0.0922 -0.157819,0.17234 -0.157819,0.17818 0,0.0313 -0.530274,0.7851 -0.589684,0.83826 -0.0386,0.0345 -0.07017,0.0835 -0.07017,0.10885 0,0.0253 -0.05127,0.10092 -0.113938,0.16798 -0.06267,0.067 -0.136733,0.16654 -0.164596,0.22108 -0.05754,0.11263 -0.363382,0.53346 -0.541824,0.74547 -0.0656,0.078 -0.14802,0.18539 -0.183154,0.23874 -0.0793,0.1204 -0.253373,0.34688 -0.423539,0.55105 -0.189794,0.22772 -0.203112,0.24604 -0.203348,0.27977 -1.57e-4,0.0255 -0.257717,0.36555 -0.486678,0.64251 -0.03108,0.0376 -0.05651,0.0835 -0.05651,0.10198 0,0.0185 -0.02653,0.0556 -0.05896,0.0825 -0.03243,0.0269 -0.199738,0.24738 -0.371804,0.48995 -0.172065,0.24255 -0.328932,0.44101 -0.348589,0.44101 -0.01966,0 -0.03575,0.0425 -0.03575,0.0944 0,0.0793 0.01824,0.0939 0.113735,0.0912 0.474256,-0.0135 0.579665,0.62579 0.126018,0.76424 -0.08113,0.0248 -0.08435,0.034 -0.03213,0.0919 0.03192,0.0354 0.07002,0.11244 0.08467,0.17115 0.01465,0.0587 0.03383,0.10673 0.04261,0.10673 0.04601,0 0.362662,-0.22749 0.792926,-0.56964 0.594031,-0.4724 1.236875,-0.97145 1.644352,-1.27662 0.169126,-0.12666 0.369989,-0.27717 0.446351,-0.33447 0.192171,-0.1442 0.541369,-0.39237 0.618377,-0.43948 0.03513,-0.0215 0.17428,-0.11319 0.309212,-0.20378 0.134933,-0.0906 0.252427,-0.1647 0.2611,-0.1647 0.01412,0 0.703622,-0.45074 1.134615,-0.74175 0.09135,-0.0617 0.177033,-0.11215 0.190406,-0.11215 0.01336,0 0.08156,-0.0437 0.151529,-0.097 0.06997,-0.0534 0.136813,-0.097 0.148534,-0.097 0.01172,0 0.130788,-0.0667 0.264586,-0.14827 0.133798,-0.0815 0.300038,-0.17314 0.36942,-0.20354 0.06938,-0.0304 0.126145,-0.0685 0.126145,-0.0846 0,-0.0161 0.02567,-0.0293 0.05704,-0.0293 0.05265,0 0.298975,-0.12284 0.389321,-0.19416 0.07771,-0.0613 1.436351,-0.75322 1.824243,-0.92897 0.191019,-0.0866 0.233908,-0.10697 0.388142,-0.18478 0.225692,-0.11386 0.768622,-0.35177 1.261468,-0.55276 0.224153,-0.0914 0.451197,-0.18777 0.504605,-0.21414 0.05337,-0.0264 0.324097,-0.12289 0.601608,-0.21452 0.277519,-0.0916 0.539505,-0.18038 0.582191,-0.19722 0.32704,-0.12901 0.760508,-0.23126 1.64961,-0.38911 0.245501,-0.0436 0.533709,-0.0973 0.640444,-0.11936 0.121419,-0.0251 0.658989,-0.0333 1.436139,-0.022 1.41602,0.0206 1.53961,0.0407 2.10813,0.34233 0.17748,0.0942 0.39666,0.20868 0.48705,0.25446 0.41783,0.21159 0.64016,0.66235 0.72309,1.46604 0.0391,0.37887 -0.0537,0.97613 -0.17188,1.10675 -0.0334,0.0369 -0.0607,0.0941 -0.0607,0.12716 0,0.0331 -0.0262,0.0819 -0.0582,0.10843 -0.032,0.0266 -0.0582,0.0671 -0.0582,0.09 0,0.0476 -0.19847,0.34969 -0.24259,0.3693 -0.016,0.007 -0.0291,0.0378 -0.0291,0.0682 0,0.0304 -0.15283,0.21139 -0.33962,0.40223 -0.18679,0.19083 -0.43331,0.44399 -0.54779,0.56252 -0.11449,0.11856 -0.23675,0.21577 -0.2717,0.21602 -0.0349,3e-4 -0.14212,0.0747 -0.23819,0.16539 -0.0961,0.0907 -0.30586,0.26244 -0.46622,0.38163 -0.39071,0.29042 -0.72607,0.64094 -0.85644,0.89515 -0.23841,0.46494 -0.9924,1.19671 -1.23303,1.19671 -0.0854,0 -0.465597,0.44064 -0.621268,0.72006 -0.215923,0.3875 -0.41357,0.62521 -0.599621,0.72114 -0.08109,0.0418 -0.156581,0.0998 -0.167748,0.12894 -0.03529,0.092 -0.402175,0.18457 -0.72308,0.18248 -0.346155,-0.002 -0.36624,0.0242 -0.173246,0.228 0.144116,0.1522 0.238193,0.4199 0.299319,0.85172 0.06854,0.48419 0.02554,0.62169 -0.300735,0.9616 -0.04803,0.05 -0.08733,0.11694 -0.08733,0.14865 0,0.0317 -0.02448,0.0671 -0.0544,0.0786 -0.07863,0.0302 -0.104375,0.14707 -0.115727,0.52543 -0.01203,0.40112 -0.158461,0.69836 -0.452272,0.91808 -0.09532,0.0713 -0.204078,0.15468 -0.241678,0.18531 -0.0376,0.0306 -0.0915,0.0557 -0.11978,0.0557 -0.143821,0 -0.323496,0.29759 -0.349661,0.57913 -0.03838,0.41289 -0.258521,0.87506 -0.425114,0.89254 -0.03916,0.004 -0.352085,0.24507 -0.369692,0.28468 -0.0071,0.016 -0.0365,0.0291 -0.06531,0.0291 -0.0288,0 -0.06346,0.0349 -0.07701,0.0776 -0.01355,0.0427 -0.03957,0.0776 -0.05782,0.0776 -0.0547,0 -0.114824,0.23716 -0.122271,0.48233 -0.0068,0.22403 -0.03158,0.27786 -0.215898,0.46916 -0.02567,0.0266 -0.03701,0.0581 -0.02521,0.0699 0.0118,0.0118 -0.01523,0.0608 -0.06007,0.10897 -0.04484,0.0481 -0.08153,0.10136 -0.08153,0.11827 0,0.0169 -0.04803,0.0424 -0.106738,0.0566 -0.05871,0.0142 -0.153099,0.0582 -0.209767,0.0978 -0.05667,0.0396 -0.129863,0.072 -0.162666,0.072 -0.0328,0 -0.07044,0.0175 -0.08363,0.0388 -0.01319,0.0213 -0.09179,0.0388 -0.174665,0.0388 -0.08287,0 -0.160076,0.0152 -0.171566,0.0338 -0.01149,0.0186 -0.07656,0.0449 -0.144602,0.0585 -0.06804,0.0136 -0.180773,0.0683 -0.25051,0.12146 -0.06974,0.0532 -0.142136,0.0967 -0.160882,0.0967 -0.01875,0 -0.06855,0.0306 -0.11068,0.0679 -0.507958,0.4505 -0.778519,0.55437 -1.124678,0.43182 -0.358203,-0.12679 -0.823812,-0.0819 -1.239237,0.11949 -0.544225,0.26382 -0.760093,0.30169 -1.067377,0.18725 z m -8.824775,-1.40724 c 0.330712,-0.16498 0.391341,-0.98462 0.113482,-1.53418 -0.08095,-0.16011 -0.165251,-0.32962 -0.187335,-0.37668 -0.02208,-0.0471 -0.101744,-0.11481 -0.177025,-0.15053 l -0.136874,-0.0649 -0.110969,0.13112 c -0.311507,0.36806 -0.536981,1.34708 -0.366319,1.59073 0.03499,0.05 0.06362,0.12205 0.06362,0.16021 0,0.21695 0.531474,0.37894 0.801414,0.24428 z m 8.149928,-0.0706 c 0.295493,-0.30686 0.361607,-0.58935 0.210425,-0.8992 -0.06207,-0.12721 -0.103397,-0.24659 -0.09183,-0.2653 0.01156,-0.0187 -0.006,-0.0893 -0.03906,-0.15686 -0.03304,-0.0676 -0.06982,-0.14904 -0.08172,-0.18106 -0.02169,-0.0584 -0.06063,-0.12422 -0.187085,-0.31634 -0.03736,-0.0568 -0.06792,-0.12967 -0.06792,-0.16204 0,-0.071 -0.195288,-0.121 -0.319195,-0.0817 -0.131206,0.0416 -0.182672,0.13263 -0.185074,0.32716 -0.0012,0.0961 -0.04533,0.27947 -0.09809,0.40755 -0.106146,0.25769 -0.129513,0.64393 -0.05306,0.87722 0.128299,0.39156 0.166603,0.43746 0.461338,0.55284 0.109674,0.0429 0.367739,-0.0156 0.451279,-0.10232 z m 1.217749,-0.22054 c 0.07472,-0.0206 0.198674,-0.045 0.275462,-0.0543 0.837723,-0.10182 1.084518,-1.09715 0.501582,-2.02322 -0.222775,-0.35391 -0.569233,-0.45551 -0.720224,-0.21121 -0.04331,0.0701 -0.570972,0.28159 -0.71538,0.28679 -0.08898,0.003 -0.160875,0.17943 -0.13543,0.33196 0.07863,0.47136 0.276779,1.22781 0.343245,1.31037 0.02376,0.0295 0.07377,0.0874 0.11113,0.12852 0.03736,0.0412 0.06793,0.0975 0.06793,0.12531 0,0.12464 0.08414,0.1574 0.271698,0.1058 z m -10.82655,-0.13919 c 0.08114,-0.0734 0.10049,-0.14995 0.147365,-0.58268 0.01867,-0.17235 0.06663,-0.38195 0.106585,-0.46577 0.173531,-0.36409 0.06292,-0.62993 -0.348934,-0.83864 -0.125521,-0.0636 -0.273056,-0.15723 -0.32786,-0.20804 -0.347658,-0.32237 -0.854614,0.0845 -0.944911,0.75844 -0.0474,0.35362 -0.09604,0.59552 -0.142968,0.71087 -0.0567,0.13939 -0.06075,0.12143 0.05573,0.24711 0.0551,0.0594 0.11186,0.12585 0.126147,0.14755 0.07927,0.12045 0.276601,0.20393 0.544391,0.23032 0.156967,0.0155 0.322868,0.044 0.36867,0.0635 0.112948,0.048 0.329562,0.0154 0.415798,-0.0627 z m 2.683825,-0.26448 c 0.07189,-0.0892 0.130312,-0.37635 0.09519,-0.46788 -0.08075,-0.21042 -0.426644,-0.20183 -0.478479,0.0119 -0.01359,0.056 -0.0483,0.13628 -0.07714,0.17839 -0.177866,0.25973 0.261344,0.52456 0.460428,0.27761 z m 5.572671,-0.0828 c 0.01077,-0.14657 -0.120065,-0.36848 -0.216945,-0.36848 -0.173336,0 -0.255225,0.26209 -0.129073,0.41309 0.152624,0.18268 0.331991,0.15954 0.346458,-0.0447 z m 4.925148,-0.35058 c 0.313167,-0.12723 0.464279,-0.37167 0.401702,-0.6498 -0.173818,-0.7726 -0.317614,-1.23005 -0.397164,-1.26346 -0.01694,-0.007 -0.03081,-0.0324 -0.03081,-0.0561 0,-0.43195 -0.829029,-0.58447 -1.053178,-0.19375 -0.1855,0.32338 0.140655,1.63839 0.563148,2.27043 l 0.07066,0.10571 0.141759,-0.0736 c 0.07797,-0.0405 0.214713,-0.10322 0.303877,-0.13944 z m -15.25529,-0.0853 c 0.416129,-0.44374 0.561324,-1.4214 0.28277,-1.90448 -0.04071,-0.0706 -0.07401,-0.14807 -0.07401,-0.17216 0,-0.1276 -0.168824,-0.22347 -0.39354,-0.22347 -0.237497,0 -0.305114,0.0503 -0.305114,0.22719 0,0.0424 -0.02485,0.12648 -0.05521,0.18692 -0.321394,0.6397 -0.565217,1.26466 -0.565341,1.44898 -8.3e-5,0.16011 0.07727,0.38814 0.13167,0.38814 0.02798,0 0.17084,0.0625 0.317452,0.13895 0.332514,0.17332 0.426272,0.16054 0.661309,-0.0901 z m 16.730021,-0.7088 c 0.09489,-0.064 0.185359,-0.11644 0.201033,-0.11644 0.368207,0 0.165393,-1.08489 -0.276513,-1.47912 -0.688593,-0.61432 -1.087292,-0.35173 -0.915474,0.60294 0.203692,1.13192 0.437533,1.36613 0.990949,0.99264 z m -18.384434,0.007 c 0,-0.0173 0.03246,-0.0663 0.07214,-0.10893 0.03968,-0.0426 0.09335,-0.1417 0.119274,-0.22025 0.02593,-0.0786 0.06333,-0.15284 0.08312,-0.16507 0.01979,-0.0122 0.03598,-0.0823 0.03598,-0.1558 0,-0.0735 0.01679,-0.13355 0.03732,-0.13355 0.106362,0 0.197412,-0.84431 0.106088,-0.98367 -0.271873,-0.41492 -1.061871,-0.0147 -1.214022,0.61494 -0.01547,0.064 -0.03854,0.12518 -0.05126,0.13585 -0.18042,0.15135 -0.186954,0.48655 -0.01034,0.5304 0.128043,0.0318 0.48262,0.28927 0.577099,0.41907 0.06486,0.0891 0.244593,0.13836 0.244593,0.067 z m -1.079342,-1.56333 c 0.289095,-0.3039 0.347911,-0.43463 0.336028,-0.74697 -0.01181,-0.31051 -0.117353,-0.56939 -0.232127,-0.56939 -0.03747,0 -0.07893,-0.0175 -0.09213,-0.0388 -0.03581,-0.0579 -0.22684,-0.0468 -0.312798,0.0182 -0.04144,0.0313 -0.10591,0.0575 -0.143267,0.0582 -0.03736,6.3e-4 -0.06792,0.0161 -0.06792,0.0343 0,0.0182 -0.0503,0.0857 -0.111764,0.15 -0.06147,0.0643 -0.157832,0.20867 -0.214134,0.32077 l -0.10237,0.20381 0.09351,0.19928 c 0.05143,0.1096 0.102266,0.22644 0.112973,0.25963 0.01071,0.0332 0.09556,0.0826 0.188552,0.10981 0.093,0.0272 0.21275,0.0727 0.266117,0.10106 0.05337,0.0284 0.104105,0.0532 0.11275,0.0552 0.0086,0.002 0.0836,-0.0678 0.16658,-0.15504 z m 20.653247,0.0324 c 0.232073,-0.31337 0.33227,-1.16293 0.144534,-1.22549 -0.02196,-0.007 -0.03993,-0.0345 -0.03993,-0.0605 0,-0.11862 -0.456538,-0.20576 -0.634399,-0.12108 -0.465811,0.22171 -0.487215,0.61117 -0.0603,1.09735 0.0512,0.0583 0.127315,0.17093 0.169146,0.25027 0.116415,0.22079 0.283964,0.24447 0.420974,0.0595 z m -12.661888,0.0125 c 0.07618,0.0482 0.242693,0.0444 0.414638,-0.009 0.196836,-0.0616 0.630134,-0.74792 0.630134,-0.99803 0,-0.0367 0.01649,-0.0832 0.03664,-0.10352 0.09457,-0.0952 0.291241,-2.11344 0.205949,-2.11344 -0.01815,0 -0.05362,0.0206 -0.07884,0.0459 -0.02759,0.0276 -0.153588,0.0439 -0.316301,0.0408 -0.247056,-0.005 -0.272676,0.002 -0.29615,0.0803 -0.01413,0.0469 -0.04971,0.13771 -0.07906,0.20176 -0.05171,0.11284 -0.37356,1.04518 -0.442129,1.28088 -0.07673,0.26365 -0.267803,0.99191 -0.349961,1.33384 -0.04958,0.20636 -0.0028,0.2909 0.132589,0.23944 0.04984,-0.0189 0.111255,-0.0183 0.142547,0.002 z m 4.062048,-0.0879 c 0.348949,-0.0643 0.437863,-0.23442 0.279448,-0.53466 -0.01726,-0.0327 -0.08336,-0.20796 -0.146876,-0.38942 -0.06352,-0.18146 -0.188623,-0.5046 -0.278004,-0.71807 -0.08938,-0.21348 -0.188707,-0.45799 -0.220718,-0.5434 -0.153476,-0.40939 -0.414183,-0.87867 -0.517935,-0.93232 -0.05892,-0.0305 -0.180487,-0.13009 -0.270146,-0.22137 l -0.163016,-0.16597 0.02551,0.19407 c 0.01404,0.10674 0.04075,0.53466 0.05937,0.95096 0.0483,1.07959 0.248205,2.00517 0.496201,2.29755 0.09132,0.10765 0.36539,0.13098 0.736163,0.0627 z m -4.905691,-0.0896 c 0.07664,-0.032 0.190593,-0.0582 0.253234,-0.0582 0.09312,0 0.12175,-0.0225 0.156987,-0.12363 0.0237,-0.068 0.06676,-0.15096 0.09567,-0.18437 0.02892,-0.0334 0.0645,-0.13934 0.07906,-0.2354 0.03042,-0.20053 0.47939,-1.54147 0.743989,-2.22207 0.08529,-0.21937 0.08409,-0.22108 -0.299426,-0.42748 l -0.257336,-0.13848 -0.133488,0.14225 c -0.07342,0.0782 -0.210801,0.23832 -0.305296,0.35574 -0.09449,0.11741 -0.189347,0.23336 -0.210793,0.25766 -0.377347,0.42764 -0.840579,1.10642 -0.883719,1.29488 -0.02427,0.10603 -0.146149,0.5617 -0.235758,0.8814 l -0.05666,0.20217 0.131616,0.10039 c 0.281548,0.21474 0.636344,0.27444 0.921892,0.15511 z m 6.312107,-0.0842 c 0.09678,-0.0356 0.203534,-0.088 0.23724,-0.11644 0.0337,-0.0284 0.08312,-0.0516 0.109821,-0.0516 0.08388,0 -0.08429,-0.57983 -0.309436,-1.06692 -0.05932,-0.12834 -0.119858,-0.28137 -0.134522,-0.34008 -0.01466,-0.0587 -0.04411,-0.10674 -0.06542,-0.10674 -0.02132,0 -0.0301,-0.0226 -0.01952,-0.0501 0.02742,-0.0714 -0.0277,-0.13706 -0.631997,-0.75215 -0.600491,-0.61121 -0.621564,-0.62425 -0.872996,-0.53888 -0.09771,0.0332 -0.231316,0.0603 -0.296896,0.0603 -0.07991,0 -0.112813,0.016 -0.09975,0.0485 0.01072,0.0267 0.141225,0.31924 0.290018,0.65013 0.41307,0.91858 0.639078,1.46856 0.869354,2.11537 l 0.05527,0.15526 0.244258,0.007 c 0.134339,0.004 0.254434,0.0167 0.266876,0.0291 0.04029,0.0403 0.177767,0.0241 0.357705,-0.0422 z m -7.59763,-0.21661 c 0.30359,-0.23708 0.428797,-1.09276 0.140112,-0.95754 -0.110282,0.0516 -0.210661,0.0953 -0.223069,0.0971 -0.01241,0.002 -0.144823,0.0606 -0.294258,0.13073 -0.149436,0.0701 -0.356001,0.15803 -0.459021,0.19526 -0.282923,0.10225 -0.334969,0.17005 -0.195582,0.25479 0.06117,0.0372 0.158155,0.0998 0.215521,0.13904 0.201792,0.13818 0.707804,0.22536 0.816318,0.14063 z m 8.511366,-0.0698 c 0.02135,-0.0165 0.108679,-0.0416 0.19407,-0.0558 0.08539,-0.0142 0.198923,-0.0402 0.252293,-0.0577 0.05337,-0.0175 0.197466,-0.0615 0.320218,-0.0977 0.274596,-0.081 0.276742,-0.10221 0.01941,-0.19196 -0.173481,-0.0605 -0.536194,-0.24562 -0.824805,-0.42093 -0.09637,-0.0585 -0.416045,-0.28663 -0.699647,-0.49918 -0.197652,-0.14814 -0.314985,-0.18129 -0.224349,-0.0634 0.05336,0.0694 0.386578,0.90073 0.458608,1.14413 0.08861,0.29944 0.299173,0.40071 0.504189,0.24248 z m -9.586983,-0.47276 c 0.106738,-0.0332 0.316334,-0.11315 0.465769,-0.17761 1.095407,-0.47247 1.104143,-0.47744 1.162395,-0.66094 0.01478,-0.0465 0.127998,-0.21987 0.251602,-0.38515 0.230066,-0.30764 0.290102,-0.37971 0.541328,-0.64984 0.07941,-0.0854 0.198778,-0.23386 0.265265,-0.32992 0.06649,-0.0961 0.178408,-0.22428 0.248721,-0.28491 l 0.127836,-0.11025 -0.09532,-0.0726 c -0.05243,-0.0399 -0.156453,-0.10372 -0.231171,-0.14173 -0.07472,-0.038 -0.159612,-0.0861 -0.188659,-0.10684 -0.27458,-0.19619 -0.642679,-0.2928 -1.115569,-0.2928 -0.261895,0 -0.51864,-0.0162 -0.570558,-0.0359 -0.103231,-0.0392 -0.338459,1e-5 -0.421345,0.0703 -0.02867,0.0243 -0.22679,0.16478 -0.440266,0.31214 -0.213475,0.14736 -0.426686,0.29585 -0.473801,0.32998 -0.0494,0.0358 -0.0963,0.12346 -0.110754,0.20705 -0.08672,0.50141 -0.522241,1.31057 -0.779553,1.44827 -0.05027,0.0269 -0.09139,0.0679 -0.09139,0.0911 0,0.0421 -0.256442,0.13875 -0.368123,0.13875 -0.08286,0 -0.07333,0.0678 0.01339,0.0953 0.03972,0.0126 0.136494,0.0924 0.215041,0.17728 0.07855,0.0849 0.165594,0.15435 0.193433,0.15435 0.02784,0 0.101086,0.0434 0.162771,0.0964 0.228831,0.19663 0.821244,0.25764 1.239029,0.12759 z m 11.46455,-0.0513 c 0.226891,-0.0332 0.430081,-0.083 0.451485,-0.1108 0.02143,-0.0278 0.08256,-0.064 0.135848,-0.0805 0.05329,-0.0165 0.123088,-0.0548 0.155107,-0.0851 0.03202,-0.0303 0.09243,-0.0785 0.134242,-0.10722 0.08296,-0.0569 0.04659,-0.099 -0.325173,-0.37651 -0.142932,-0.1067 -0.419442,-0.3701 -0.488333,-0.46515 -0.241398,-0.33319 -0.485188,-0.83996 -0.485188,-1.00855 0,-0.0405 -0.01747,-0.0736 -0.03881,-0.0736 -0.02135,0 -0.03895,-0.048 -0.03911,-0.10674 -3.13e-4,-0.0849 -0.03401,-0.12582 -0.164961,-0.19994 -0.09056,-0.0513 -0.330593,-0.20232 -0.533378,-0.33568 l -0.368733,-0.24249 -0.425112,0.0323 c -0.233813,0.0178 -0.439272,0.0236 -0.456579,0.0129 -0.0173,-0.0107 -0.08631,0.008 -0.153356,0.0414 -0.06705,0.0335 -0.143333,0.0608 -0.169506,0.0608 -0.04194,0 -1.329824,0.64127 -1.374744,0.68453 -0.0097,0.009 0.09514,0.11646 0.232885,0.23814 0.137742,0.12168 0.320303,0.29835 0.405694,0.39259 0.75434,0.83255 1.705048,1.48938 2.387058,1.64924 0.138761,0.0325 0.322155,0.0757 0.407551,0.0959 0.220828,0.0523 0.254182,0.0515 0.71306,-0.0155 z m -17.312956,-0.28814 c 0.0073,-0.0219 0.03799,-0.0397 0.06823,-0.0397 0.03024,0 0.05499,-0.0339 0.05499,-0.0753 0,-0.0414 0.01747,-0.0861 0.03881,-0.0993 0.08497,-0.0525 -0.0029,-0.58004 -0.09395,-0.56406 -0.01965,0.003 -0.0671,-0.0764 -0.105441,-0.17736 -0.08668,-0.22835 -0.11513,-0.25693 -0.274473,-0.27573 -0.602892,-0.0711 -0.745066,0.62712 -0.236325,1.1607 0.135665,0.1423 0.508289,0.19045 0.548158,0.0708 z m 22.865341,-0.15462 c 0.450243,-0.2297 0.419276,-0.95497 -0.0465,-1.08866 -0.435463,-0.12497 -0.790771,0.0976 -0.751772,0.47082 0.05611,0.53686 0.414018,0.81388 0.798267,0.61784 z m -19.11476,-0.1219 c 0.02028,-0.019 0.06831,-0.0345 0.106738,-0.0345 0.03843,0 0.06987,-0.0136 0.06987,-0.0303 0,-0.0167 0.08028,-0.054 0.178404,-0.083 0.175783,-0.0519 0.520254,-0.32932 0.520254,-0.41899 0,-0.0239 0.01412,-0.0492 0.03137,-0.0563 0.03689,-0.0152 0.279142,-0.36427 0.279142,-0.4022 0,-0.0143 0.0254,-0.081 0.05646,-0.14827 0.215281,-0.46639 0.25359,-0.64628 0.137615,-0.64628 -0.04269,0 -0.07763,0.0154 -0.07763,0.0343 0,0.0189 -0.03057,0.044 -0.06792,0.0558 -0.03736,0.0118 -0.11159,0.047 -0.164961,0.0781 -0.05337,0.0311 -0.175634,0.0867 -0.271699,0.12348 -0.09606,0.0368 -0.209596,0.0813 -0.252293,0.099 -0.04269,0.0177 -0.199892,0.0783 -0.349327,0.13465 -0.149436,0.0564 -0.326739,0.12718 -0.394008,0.1573 -0.06727,0.0301 -0.145867,0.0555 -0.174666,0.0564 -0.02879,9.4e-4 -0.227018,0.0634 -0.440514,0.13892 -0.213476,0.0755 -0.437575,0.14684 -0.49798,0.1585 -0.209985,0.0405 0.158453,0.5937 0.395432,0.5937 0.01784,0 0.07271,0.0349 0.121936,0.0776 0.04923,0.0427 0.134867,0.0779 0.190308,0.0782 0.05544,3.1e-4 0.170666,0.0256 0.256057,0.0562 0.151927,0.0544 0.273616,0.0466 0.347385,-0.0223 z m 15.178284,-0.0748 c 0.45989,-0.13658 0.948265,-0.54808 0.720969,-0.60753 -0.04429,-0.0116 -0.08053,-0.0365 -0.08053,-0.0553 0,-0.0189 -0.02471,-0.0343 -0.05491,-0.0343 -0.09521,0 -0.685281,-0.23354 -1.128942,-0.44681 -1.452372,-0.69816 -1.48632,-0.71161 -1.443968,-0.57209 0.09327,0.30748 0.268367,0.74718 0.297538,0.74718 0.0156,0 0.04414,0.0329 0.06342,0.0732 0.161707,0.33783 0.731735,0.82862 1.102445,0.94922 0.08286,0.027 0.342066,4.7e-4 0.523981,-0.0536 z m -16.799161,-0.70259 c 0.05971,-0.0243 0.160962,-0.066 0.225006,-0.0925 0.110124,-0.0456 0.374201,-0.13267 1.416725,-0.46717 0.2455,-0.0788 0.462954,-0.15851 0.483241,-0.1772 0.02028,-0.0187 0.06395,-0.0342 0.09704,-0.0344 0.229423,-0.002 1.738665,-0.95965 1.746407,-1.10861 0.0012,-0.0241 -0.08494,-0.0439 -0.204272,-0.0471 -0.11354,-0.003 -0.360361,-0.0323 -0.54849,-0.0651 -0.188121,-0.0328 -0.397974,-0.0597 -0.466349,-0.0597 -0.06836,0 -0.137371,-0.0131 -0.153356,-0.0291 -0.05225,-0.0523 -0.511643,-0.10923 -0.647192,-0.0803 -0.07281,0.0155 -0.272109,0.0469 -0.442874,0.0697 -0.830477,0.11068 -1.713617,0.39982 -2.765925,0.90554 l -0.281813,0.13543 0.165371,0.099 c 0.09095,0.0545 0.283519,0.21344 0.427928,0.35326 0.144405,0.13982 0.278932,0.25422 0.298941,0.25422 0.02001,0 0.0985,0.064 0.174422,0.14213 0.223358,0.22999 0.312798,0.26795 0.475209,0.20174 z m 18.209718,-0.0372 c 0.06707,-0.0232 0.122135,-0.0563 0.122135,-0.0733 0,-0.0169 0.04661,-0.0425 0.103583,-0.0568 0.192675,-0.0484 0.62645,-0.38038 0.712316,-0.54522 0.04448,-0.0854 0.105907,-0.19893 0.136502,-0.2523 0.149315,-0.26048 0.08936,-0.34368 -0.37019,-0.51371 -0.117411,-0.0435 -0.370673,-0.15385 -0.562814,-0.24534 -0.518846,-0.24706 -1.119544,-0.44337 -1.37433,-0.44908 -0.400421,-0.009 -1.141859,0.006 -1.242756,0.0246 -0.05494,0.0103 -0.274563,0.0299 -0.488043,0.0436 -0.213475,0.0137 -0.41435,0.0382 -0.446353,0.0544 -0.03202,0.0163 -0.232883,0.0411 -0.446351,0.0553 -0.665244,0.0441 -0.673606,0.0616 -0.179762,0.37554 0.549276,0.34916 0.651249,0.40899 0.820209,0.48138 0.09606,0.0412 0.303706,0.14064 0.461423,0.22106 0.157719,0.0804 0.314918,0.14676 0.349326,0.14744 0.03441,6.3e-4 0.09695,0.0272 0.138994,0.059 0.04203,0.0318 0.141681,0.0754 0.221433,0.0968 0.07975,0.0215 0.170745,0.0648 0.202202,0.0962 0.03146,0.0315 0.08076,0.0572 0.109553,0.0572 0.0288,0 0.08681,0.0237 0.128917,0.0526 0.04211,0.0289 0.172623,0.0836 0.290039,0.12152 0.117411,0.0379 0.257143,0.0917 0.310513,0.11952 0.295767,0.1543 0.76026,0.21425 1.003371,0.12949 z m -10.017974,-0.9158 c 0.127703,-0.13541 0.133901,-0.15433 0.111205,-0.33962 -0.07976,-0.65121 -0.104962,-0.93539 -0.0885,-0.99832 0.02925,-0.11187 -0.06287,-0.0841 -0.204053,0.0616 -0.0708,0.073 -0.16867,0.14284 -0.217491,0.15509 -0.04882,0.0123 -0.173349,0.0605 -0.276729,0.10722 -0.20828,0.0941 -0.236387,0.10142 -0.459725,0.11934 -0.08543,0.007 -0.172765,0.0219 -0.19407,0.0334 -0.02131,0.0115 -0.2396,0.0255 -0.485104,0.031 -0.2455,0.005 -0.450037,0.0136 -0.45455,0.0181 -0.0045,0.004 0.109028,0.0581 0.252294,0.1191 0.143267,0.061 0.400214,0.20195 0.571013,0.31314 0.918083,0.59771 1.176388,0.66557 1.445748,0.37998 z m 3.286426,-0.40223 0.857058,-0.43343 -0.318877,0.0263 c -0.754794,0.0623 -1.486155,-0.009 -1.975275,-0.19265 l -0.236988,-0.089 -0.02429,0.36978 c -0.06139,0.93452 0.334253,1.00883 1.698382,0.31895 z m 10.53798,-0.55685 c 0.11246,-0.1355 -0.02995,-0.32417 -0.210482,-0.27886 -0.09539,0.0239 -0.144061,0.23451 -0.07107,0.30749 0.04641,0.0464 0.235202,0.0272 0.281556,-0.0286 z m -25.793684,-0.0419 c 0.08977,-0.068 0.06009,-0.16062 -0.07055,-0.22014 -0.169573,-0.0773 -0.285846,0.0856 -0.154722,0.21674 0.07456,0.0746 0.130196,0.0754 0.225275,0.003 z m 26.280155,-0.6861 c 0.196671,-0.0896 0.104617,-0.43298 -0.12809,-0.47782 -0.166578,-0.0321 -0.221709,0.27876 -0.0768,0.43302 0.0989,0.10527 0.08081,0.10132 0.204885,0.0448 z M 71.53701,37.725483 c 0.122135,-0.12213 0.01295,-0.26747 -0.159753,-0.21265 -0.07683,0.0244 -0.135176,0.18017 -0.09302,0.24838 0.04061,0.0657 0.169573,0.0475 0.252774,-0.0357 z m 15.255292,-0.25347 c 0.02541,-0.0157 0.152941,-0.0359 0.283411,-0.0449 0.407314,-0.028 1.861628,-0.41402 2.60777,-0.69216 0.577925,-0.21543 1.097684,-0.39583 1.630193,-0.56583 0.611461,-0.19522 0.981551,-0.32835 1.249337,-0.44946 0.110754,-0.0501 0.227623,-0.0911 0.259706,-0.0911 0.03208,0 0.06765,-0.0151 0.07903,-0.0335 0.01139,-0.0184 0.104112,-0.0566 0.206064,-0.0848 0.258901,-0.0716 0.548158,-0.20304 0.848777,-0.38568 0.141155,-0.0857 0.269595,-0.15591 0.285431,-0.15591 0.09606,0 0.429418,-0.39294 0.434469,-0.5121 0.01388,-0.32835 -0.07809,-0.8419 -0.15206,-0.84911 -0.01541,-0.001 -0.197109,-0.01 -0.403765,-0.0186 -0.206658,-0.009 -0.458111,-0.0344 -0.558758,-0.0569 -0.163388,-0.0366 -0.192066,-0.0325 -0.267195,0.038 -0.04629,0.0435 -0.104866,0.0791 -0.130175,0.0791 -0.02531,0 -0.04601,0.0175 -0.04601,0.0388 0,0.0213 -0.03294,0.0388 -0.07321,0.0388 -0.04026,0 -0.177828,0.0699 -0.305701,0.15526 -0.127874,0.0854 -0.24548,0.15525 -0.261341,0.15525 -0.01586,0 -0.129476,0.0611 -0.252476,0.13585 -0.122996,0.0747 -0.249283,0.13585 -0.280637,0.13585 -0.03135,0 -0.133868,0.0521 -0.227809,0.11573 -0.09394,0.0637 -0.194716,0.11606 -0.223947,0.11645 -0.02923,3.7e-4 -0.160224,0.0659 -0.291103,0.14548 -0.130879,0.0796 -0.290363,0.17286 -0.354402,0.20719 -0.588236,0.31532 -0.763615,0.41274 -0.931539,0.51748 -0.106738,0.0666 -0.246122,0.14709 -0.30974,0.1789 -0.06362,0.0318 -0.24935,0.14519 -0.412741,0.25193 -0.163392,0.10674 -0.492432,0.3076 -0.731196,0.44635 -0.238775,0.13876 -0.491148,0.28722 -0.560786,0.32992 -0.06965,0.0427 -0.269314,0.16393 -0.443702,0.2694 -0.174371,0.10547 -0.317043,0.20507 -0.317043,0.22133 0,0.0163 -0.130908,0.0952 -0.290905,0.17534 -0.159997,0.0802 -0.339026,0.1849 -0.397845,0.23271 l -0.106941,0.0869 0.200323,-0.0518 c 0.110177,-0.0285 0.22111,-0.0646 0.246522,-0.0803 z m -3.515214,0.023 c 0.01207,-0.0195 -0.04367,-0.0753 -0.123853,-0.12402 -0.08019,-0.0487 -0.159761,-0.11131 -0.176835,-0.13916 -0.01707,-0.0279 -0.05036,-0.0506 -0.07396,-0.0506 -0.02361,0 -0.09697,-0.0405 -0.163032,-0.09 -0.06606,-0.0495 -0.224902,-0.14905 -0.352991,-0.22124 -0.128088,-0.0722 -0.311481,-0.18673 -0.40755,-0.25454 -0.09606,-0.0678 -0.227064,-0.15017 -0.291104,-0.18301 -0.06404,-0.0328 -0.151373,-0.0926 -0.19407,-0.1329 -0.04269,-0.0403 -0.103828,-0.0856 -0.135848,-0.10076 -0.03202,-0.0152 -0.105591,-0.058 -0.163491,-0.0951 -0.2605,-0.16703 -1.038148,-0.6303 -1.058021,-0.6303 -0.01214,0 -0.09595,-0.0469 -0.186258,-0.10426 -0.09031,-0.0573 -0.522241,-0.28634 -0.959857,-0.50887 -0.437617,-0.22255 -0.823274,-0.42888 -0.856975,-0.45856 -0.0337,-0.0296 -0.07549,-0.0539 -0.09287,-0.0539 -0.01737,0 -0.273396,-0.13099 -0.568942,-0.2911 -0.295542,-0.16011 -0.578879,-0.2911 -0.629679,-0.2911 -0.05077,0 -0.135996,-0.0344 -0.189388,-0.0764 -0.05339,-0.042 -0.109094,-0.0643 -0.123787,-0.0496 -0.01469,0.0147 -0.03886,0.009 -0.05371,-0.0119 -0.08162,-0.11665 -0.627609,-0.35355 -0.667189,-0.28949 -0.01256,0.0203 -0.0975,0.0633 -0.188767,0.0955 -0.09127,0.0322 -0.215517,0.0939 -0.276108,0.13699 -0.06059,0.0431 -0.121817,0.0785 -0.136059,0.0785 -0.207584,0 -0.129132,0.7574 0.101368,0.97865 0.434221,0.41684 0.820334,0.66028 1.124305,0.70892 0.09389,0.015 0.310443,0.0846 0.481212,0.15459 0.948555,0.38874 2.930207,1.10435 3.279803,1.18442 0.07472,0.0171 0.249379,0.0696 0.388141,0.11668 0.138762,0.0471 0.374558,0.1179 0.52398,0.1574 0.149436,0.0395 0.428881,0.11801 0.621026,0.17444 0.192129,0.0564 0.384258,0.10752 0.426935,0.11353 0.04269,0.006 0.121294,0.0283 0.174665,0.0495 0.05337,0.0212 0.175635,0.0505 0.271699,0.0651 0.09606,0.0146 0.27073,0.06 0.388141,0.10105 0.248796,0.0869 0.260053,0.0886 0.289059,0.0416 z m -10.025426,-0.4401 c 0.01383,-0.0221 0.06173,-0.0306 0.106444,-0.0189 0.08265,0.0216 0.40678,-0.0594 0.485228,-0.1213 0.02367,-0.0187 0.112907,-0.0465 0.198298,-0.0619 0.08539,-0.0154 0.172724,-0.0417 0.19407,-0.0585 0.02135,-0.0168 0.08248,-0.0429 0.135848,-0.0579 0.08413,-0.0236 0.253825,-0.0877 0.931538,-0.35192 0.07472,-0.0291 0.245016,-0.0912 0.378437,-0.13795 0.21933,-0.0768 0.242589,-0.0954 0.242589,-0.19332 0,-0.1877 -0.272427,-0.88819 -0.364128,-0.9363 -0.04523,-0.0237 -0.162742,-0.11001 -0.261141,-0.19174 l -0.178905,-0.14862 -0.273264,0.0757 c -0.150297,0.0417 -0.314318,0.0914 -0.364493,0.11052 -0.05018,0.0191 -0.161094,0.0559 -0.246485,0.0818 -0.08539,0.0258 -0.207654,0.07 -0.271699,0.0982 -0.06404,0.0281 -0.33477,0.13969 -0.601608,0.24789 -0.266846,0.1082 -0.667685,0.28993 -0.890758,0.40386 l -0.405567,0.20713 -0.05208,0.1919 c -0.12096,0.44568 -0.0056,0.82178 0.278861,0.90934 0.147713,0.0455 0.924625,0.007 0.958822,-0.048 z m 23.996022,-0.0155 c 0.08274,-0.0288 0.180259,-0.0523 0.216713,-0.0523 0.192576,0 0.363209,-0.24354 0.366853,-0.5236 l 0.0035,-0.26677 -1.129729,-0.57089 c -1.664764,-0.84128 -1.781018,-0.87283 -2.234201,-0.60587 -0.156538,0.0922 -0.341374,0.19254 -0.410756,0.22295 -0.06938,0.0304 -0.126147,0.0655 -0.126147,0.078 0,0.0125 -0.08733,0.0636 -0.19407,0.1136 -0.166759,0.0781 -0.263216,0.19407 -0.161426,0.19407 0.01796,0 0.07837,0.084 0.134245,0.18667 0.12211,0.22436 0.274329,0.39554 0.351725,0.39554 0.0311,0 0.2721,0.086 0.53553,0.19109 0.263449,0.1051 0.596766,0.22884 0.740719,0.27498 0.143955,0.0461 0.271617,0.0999 0.283692,0.11942 0.01208,0.0195 0.05549,0.0355 0.09648,0.0355 0.04099,0 0.210254,0.0465 0.376147,0.10323 0.572958,0.1961 0.821908,0.21867 1.150719,0.10434 z m -26.039611,-0.77715 c 0.27752,-0.13938 0.53077,-0.26728 0.562815,-0.28423 0.265555,-0.14052 1.198704,-0.58231 1.229962,-0.58231 0.02177,0 0.212433,-0.0808 0.423706,-0.17964 0.331884,-0.15522 1.138878,-0.48291 1.344769,-0.54605 0.114128,-0.035 0.07592,-0.12896 -0.07763,-0.1909 -0.182499,-0.0736 -0.432317,-0.1945 -0.532675,-0.25776 -0.04214,-0.0266 -0.176557,-0.11234 -0.298697,-0.19063 l -0.222074,-0.14232 -0.361143,0.13361 c -0.198629,0.0735 -0.435174,0.1681 -0.525678,0.21025 -0.0905,0.0422 -0.173817,0.0766 -0.185157,0.0766 -0.01134,0 -0.164361,0.0676 -0.340045,0.15026 -0.175684,0.0827 -0.363093,0.16329 -0.416459,0.1792 -0.335181,0.1 -1.240023,0.60248 -1.474937,0.81913 -0.05337,0.0492 -0.135412,0.1244 -0.18232,0.16706 -0.178098,0.16197 -0.201763,0.49988 -0.04864,0.69455 0.230939,0.2936 0.426562,0.28353 1.104266,-0.0568 z m 28.476517,0.0766 c 0.229842,-0.22984 0.143423,-0.72838 -0.17149,-0.98925 -0.06924,-0.0574 -0.178293,-0.14603 -0.242337,-0.19704 -0.20293,-0.16163 -1.267018,-0.65448 -1.630192,-0.75508 -0.19213,-0.0532 -0.4454,-0.13169 -0.562816,-0.17441 -0.117411,-0.0427 -0.292076,-0.10005 -0.388141,-0.12741 -0.09606,-0.0274 -0.313908,-0.0954 -0.484111,-0.15116 -0.399307,-0.13087 -0.37194,-0.13582 -0.610717,0.11061 -0.62529,0.64529 -0.66901,0.53823 0.454385,1.11201 1.702769,0.86969 2.026655,1.01472 2.639359,1.18161 0.128089,0.0349 0.285282,0.0784 0.349328,0.0966 0.237803,0.0678 0.51868,0.0215 0.646695,-0.10654 z m -29.687931,-1.74466 c 0.175378,-0.0991 0.327604,-0.1923 0.338277,-0.20702 0.02192,-0.0302 0.408978,-0.21159 0.753428,-0.35303 0.42768,-0.1756 0.834411,-0.68768 0.687145,-0.86513 -0.06566,-0.0791 -0.954807,0.0974 -1.565565,0.31075 -0.143937,0.0503 -0.280343,0.0914 -0.303123,0.0914 -0.02278,0 -0.113722,0.0349 -0.20209,0.0776 -0.08837,0.0427 -0.190187,0.0776 -0.226256,0.0776 -0.03607,0 -0.0862,0.0248 -0.111387,0.0552 -0.02519,0.0304 -0.11903,0.0673 -0.208528,0.0821 -0.0895,0.0148 -0.231506,0.0598 -0.315568,0.10007 -0.08409,0.0397 -0.193263,0.0729 -0.242614,0.0729 -0.04936,0 -0.08975,0.0175 -0.08975,0.0388 0,0.0213 0.01941,0.0388 0.04313,0.0388 0.02372,0 0.124155,0.067 0.22318,0.14885 0.197627,0.16339 0.612083,0.44751 0.704036,0.48262 0.123431,0.0472 0.207178,0.0225 0.515617,-0.15188 z m 30.546601,-0.13027 c 0.0717,0 0.41613,-0.25494 0.41613,-0.30799 0,-0.0383 -0.27762,-0.18149 -0.57793,-0.29801 -0.14112,-0.0548 -0.31771,-0.1272 -0.392427,-0.16099 -0.642224,-0.29045 -2.057168,-0.73981 -2.057168,-0.65332 0,0.52439 0.583514,1.00105 1.766031,1.44256 0.106737,0.0399 0.255084,0.10193 0.329654,0.13795 0.13423,0.0648 0.13713,0.0644 0.28905,-0.0474 0.0844,-0.0621 0.18638,-0.11286 0.22662,-0.11286 z m -32.285059,-0.42644 c 0.02135,-0.0163 0.08248,-0.0424 0.135847,-0.0581 0.05337,-0.0157 0.149435,-0.0505 0.213476,-0.0773 0.06404,-0.0269 0.195039,-0.0718 0.291103,-0.0997 0.09606,-0.028 0.192129,-0.0624 0.213476,-0.0767 0.0725,-0.0482 1.00718,-0.34388 1.455519,-0.46043 0.2455,-0.0638 0.551139,-0.14473 0.679236,-0.17982 0.128089,-0.0351 0.372616,-0.0995 0.543398,-0.14311 0.170782,-0.0436 0.319244,-0.0908 0.329922,-0.10485 0.01067,-0.014 0.1015,-0.025 0.201833,-0.0242 0.242374,0.002 0.266371,-0.0317 0.285987,-0.39858 0.0092,-0.17218 0.03212,-0.35351 0.05093,-0.40295 l 0.03419,-0.0899 -0.490238,0.0121 c -0.726227,0.018 -2.107471,0.18154 -2.857919,0.33842 -0.362911,0.0759 -0.716332,0.14817 -0.785349,0.16067 -0.06904,0.0125 -0.145411,0.0467 -0.169714,0.076 -0.0243,0.0293 -0.09881,0.0541 -0.165582,0.0551 -0.59428,0.009 -0.831636,0.94148 -0.362977,1.42571 0.122553,0.12663 0.269968,0.14432 0.396839,0.0476 z m 33.563549,-0.0142 c 0.22357,-0.10019 0.49599,-0.36607 0.49599,-0.48448 0,-0.041 0.026,-0.0962 0.0579,-0.12258 0.0911,-0.0756 -0.035,-0.44602 -0.19927,-0.58546 -0.47156,-0.40031 -2.970158,-0.88595 -4.438263,-0.86264 -0.769243,0.0122 -0.799756,0.0253 -0.660357,0.2834 0.04036,0.0747 0.103355,0.20336 0.139996,0.28589 0.06703,0.15095 0.214374,0.2449 0.441715,0.28163 0.05394,0.009 0.167938,0.0401 0.253329,0.0698 0.08539,0.0297 0.207654,0.065 0.271698,0.0785 0.163189,0.0344 0.724654,0.20582 1.047961,0.32 0.149435,0.0528 0.355194,0.1216 0.457241,0.15295 0.102051,0.0314 0.31165,0.11479 0.46577,0.18543 0.15412,0.0706 0.41994,0.18926 0.59072,0.26361 0.17078,0.0743 0.35418,0.15426 0.40755,0.17759 0.16694,0.073 0.44821,0.0545 0.66843,-0.0439 z m 0.18509,-1.65656 c -0.26704,-1.03898 -1.51738,-1.60983 -2.966436,-1.35467 -0.734881,0.12938 -1.5004,0.33656 -2.126807,0.57553 l -0.106133,0.0405 0.08398,0.14232 0.08398,0.14233 0.4685,-0.0257 c 1.227024,-0.0672 3.493936,0.28007 4.369536,0.66942 0.26881,0.11955 0.27241,0.11602 0.19369,-0.19002 z m -33.616957,-0.0741 c 0.689132,-0.17915 1.02254,-0.24793 1.595871,-0.32922 0.552547,-0.0784 1.615909,-0.17537 2.24153,-0.20452 0.488375,-0.0228 0.514334,-0.0281 0.514831,-0.10531 2.97e-4,-0.0447 0.01085,-0.11985 0.02347,-0.16692 0.01816,-0.0677 0.0039,-0.0895 -0.06845,-0.10426 -1.934702,-0.39564 -3.230576,-0.44308 -3.854541,-0.1411 -0.08939,0.0433 -0.176951,0.0787 -0.194547,0.0787 -0.04745,0 -0.486884,0.46361 -0.486884,0.51371 0,0.0237 -0.02845,0.0744 -0.06323,0.11286 -0.03478,0.0384 -0.0761,0.14024 -0.09183,0.22624 l -0.02861,0.15633 h 0.135839 c 0.07471,0 0.198998,-0.0164 0.276191,-0.0365 z m 26.449074,-0.13936 c 0.27812,-0.0923 0.397282,-0.52282 0.144712,-0.52282 -0.04003,0 -0.47906,0.22881 -0.522615,0.27239 -0.02097,0.021 -0.06956,0.0381 -0.107988,0.0381 -0.09184,0 -0.08813,0.0499 0.0173,0.23312 0.07853,0.13644 0.09488,0.14663 0.164961,0.1028 0.04278,-0.0268 0.179427,-0.0824 0.303645,-0.1236 z m -28.230176,-0.42308 c 0.324341,-0.28737 0.434014,-0.51541 0.344752,-0.71708 -0.07783,-0.17584 -0.404453,-0.2261 -0.52841,-0.0813 -0.03656,0.0427 -0.08607,0.0776 -0.110025,0.0776 -0.05396,0 -0.249702,0.16496 -0.249702,0.21044 0,0.0183 -0.03057,0.0556 -0.06792,0.083 -0.114815,0.084 -0.09513,0.46205 0.02864,0.55007 0.218191,0.15517 0.284922,0.14112 0.582688,-0.12269 z m 8.464168,0.0826 0.09972,-0.16455 -0.381116,-0.13915 -0.381115,-0.13916 v 0.0944 c 0,0.053 -0.0506,0.14504 -0.115163,0.20961 -0.07262,0.0726 -0.09771,0.12129 -0.06792,0.13176 0.158022,0.0555 0.602974,0.16878 0.668265,0.17007 0.05061,0.001 0.112331,-0.0557 0.177344,-0.16302 z m 28.576291,0.0657 c 0.35445,-0.16902 0.27435,-0.5742 -0.17949,-0.90794 -0.24579,-0.18075 -0.55967,-0.15951 -0.69468,0.047 -0.13852,0.21189 -0.1048,0.30804 0.23217,0.66218 0.0676,0.0711 0.32143,0.2177 0.40408,0.23346 0.0496,0.009 0.0939,0.0196 0.0985,0.0225 0.005,0.003 0.0673,-0.0228 0.13939,-0.0572 z m -30.791283,-0.59204 c 0,-0.0513 -0.374388,-0.30388 -0.582191,-0.39278 -0.05337,-0.0228 -0.149436,-0.066 -0.213476,-0.0958 -0.345601,-0.16121 -0.448091,-0.19305 -0.669548,-0.20799 -0.513009,-0.0346 -0.11352,0.39805 0.456081,0.49396 0.160109,0.027 0.343506,0.0579 0.40755,0.0688 0.06404,0.0109 0.145858,0.0355 0.181816,0.0548 0.03596,0.0192 0.109155,0.035 0.162667,0.035 0.05351,0 0.108092,0.0175 0.121286,0.0388 0.02938,0.0475 0.135848,0.0517 0.135848,0.005 z m 25.267883,-0.25922 c 0.33795,-0.0799 0.65779,-0.44474 0.389884,-0.44474 -0.127705,0 -1.076114,0.54551 -1.146539,0.65949 -0.01253,0.0203 0.08708,-0.004 0.221372,-0.0545 0.134295,-0.0503 0.37517,-0.12238 0.535283,-0.16023 z m -27.169878,-0.0954 c 0,-0.0213 -0.016,-0.0388 -0.03556,-0.0388 -0.01956,0 -0.163657,-0.0856 -0.320217,-0.19026 -0.291762,-0.19501 -0.669176,-0.33561 -0.783362,-0.29181 -0.12038,0.0462 -0.103459,0.0697 0.223975,0.31175 0.16547,0.12229 0.238225,0.14763 0.543397,0.18922 0.193794,0.0264 0.356714,0.0504 0.36205,0.0534 0.005,0.003 0.0095,-0.0121 0.0095,-0.0335 z m 9.706218,-0.38753 c -0.08949,-0.172 -0.16995,-0.35039 -0.178814,-0.39641 -0.0089,-0.046 -0.03595,-0.10243 -0.0602,-0.12534 -0.0326,-0.0308 -0.03646,-0.0164 -0.01483,0.0554 0.04574,0.15172 0.378482,0.81719 0.398566,0.79707 0.0099,-0.01 -0.05523,-0.15871 -0.144719,-0.33071 z m 18.899885,0.17751 c 0.3594,-0.0567 0.517815,-0.10817 0.607035,-0.19738 0.2138,-0.2138 -0.353444,-0.14745 -0.868819,0.10161 -0.323873,0.15653 -0.263563,0.17859 0.26178,0.0958 z"
       style="stroke-width:0.04140172;fill:#000000;fill-opacity:0.05839416" />
  </g>
</svg>
