<?xml version="1.0" encoding="UTF-8" standalone="no"?>
<!-- Created with Inkscape (http://www.inkscape.org/) -->

<svg
   xmlns:dc="http://purl.org/dc/elements/1.1/"
   xmlns:cc="http://creativecommons.org/ns#"
   xmlns:rdf="http://www.w3.org/1999/02/22-rdf-syntax-ns#"
   xmlns:svg="http://www.w3.org/2000/svg"
   xmlns="http://www.w3.org/2000/svg"
   xmlns:sodipodi="http://sodipodi.sourceforge.net/DTD/sodipodi-0.dtd"
   xmlns:inkscape="http://www.inkscape.org/namespaces/inkscape"
   width="39.6875mm"
   height="33.88681mm"
   viewBox="0 0 39.6875 33.88681"
   version="1.1"
   id="svg1552"
   inkscape:version="0.92.3 (2405546, 2018-03-11)"
   sodipodi:docname="butterfly-wireframe2-transparent.svg">
  <defs
     id="defs1546" />
  <sodipodi:namedview
     id="base"
     pagecolor="#ffffff"
     bordercolor="#666666"
     borderopacity="1.0"
     inkscape:pageopacity="0.0"
     inkscape:pageshadow="2"
     inkscape:zoom="2.8"
     inkscape:cx="9.5836707"
     inkscape:cy="36.572551"
     inkscape:document-units="mm"
     inkscape:current-layer="layer1"
     showgrid="false"
     fit-margin-top="0"
     fit-margin-left="0"
     fit-margin-right="0"
     fit-margin-bottom="0"
     inkscape:window-width="1920"
     inkscape:window-height="1015"
     inkscape:window-x="0"
     inkscape:window-y="0"
     inkscape:window-maximized="1" />
  <metadata
     id="metadata1549">
    <rdf:RDF>
      <cc:Work
         rdf:about="">
        <dc:format>image/svg+xml</dc:format>
        <dc:type
           rdf:resource="http://purl.org/dc/dcmitype/StillImage" />
        <dc:title />
      </cc:Work>
    </rdf:RDF>
  </metadata>
  <g
     inkscape:label="Taso 1"
     inkscape:groupmode="layer"
     id="layer1"
     transform="translate(-59.997013,-25.750666)">
    <g
       id="g16698"
       transform="matrix(0.23544665,0,0,0.23544665,55.051721,18.646353)">
      <path
         style="fill:#000000;fill-opacity:0.04014599;stroke-width:0.08466667"
         d="m 153.17473,174.07243 c -4.08187,-5.72065 -9.69201,-11.9448 -15.77584,-16.33465 -5.58791,-5.04689 -12.50431,-8.04686 -18.85543,-12.0428 -9.02878,-3.86019 -17.84416,-8.19068 -27.369166,-10.89569 -6.246666,-1.95613 -10.918572,-7.71446 -17.856742,-7.38568 -9.517177,0.0129 -19.305814,-0.89522 -28.597398,1.39547 -5.253633,0.99591 -10.818811,2.41172 -15.901382,4.73336 -2.303773,1.02515 -12.127478,6.37743 -5.623898,1.53914 1.810171,-3.09198 -0.0061,-7.48026 5.485977,-7.7179 7.051801,-2.72216 14.532987,-4.09242 22.046094,-4.71853 1.85663,-4.01038 2.695223,-7.76198 -3.254116,-6.88071 -4.465154,-1.9399 0.10459,-5.793 1.04385,-4.69688 -8.444416,-2.8307 -18.517803,-5.9952 -26.791566,-1.01621 -3.04824,-1.34638 8.562298,-4.28874 11.019741,-3.21863 4.699212,-0.53593 13.71351,3.45805 15.504001,3.20353 -7.433008,-5.00114 -16.421635,-7.35102 -25.255603,-7.51768 3.429436,-2.37452 10.665391,0.57849 14.979619,1.87915 6.047629,0.21344 10.497534,8.937 16.077969,4.32598 -0.636175,-10.419454 4.260696,-20.182569 7.970561,-29.660356 5.520904,-11.742781 13.664914,-22.356269 23.45319,-30.838239 5.305864,-5.647371 14.646569,-6.576752 19.426479,-0.532726 0.74561,6.404367 -1.60791,12.676005 -1.87586,19.188228 -1.52661,5.708139 -1.6142,11.300003 4.46206,13.751588 5.64098,5.185757 6.23981,12.518891 5.39,19.936485 -0.19074,6.88619 -5.16648,13.36524 -11.76622,15.19391 -7.888881,1.2174 -15.551851,2.04469 -23.323936,2.36999 -9.378061,0.8637 4.094001,5.82919 7.95988,3.64449 6.888145,-0.99934 13.773135,-0.9222 20.371116,-3.35416 8.92246,-3.09421 18.03197,-6.66198 24.43821,-13.97198 6.06349,-4.733049 4.25846,-12.560365 6.49063,-19.079869 3.52053,-17.839851 19.28843,-28.970017 28.82298,-43.410839 2.50388,-2.571334 4.76879,-13.657195 6.83731,-11.512882 -1.05333,10.899265 -6.68904,20.797946 -7.90055,31.71044 -2.13052,11.180439 -5.61583,22.833692 -14.46351,30.647764 -5.23607,6.936969 -14.68273,8.260506 -20.37096,14.769346 -2.8948,3.23156 -10.31934,6.08912 -1.66032,5.28966 8.45871,1.72213 16.48812,-3.98372 24.96779,-1.45849 12.84536,1.96532 21.14007,13.15737 28.38395,22.88928 1.48067,3.20944 10.52116,11.33373 7.15902,11.90247 -6.98894,-4.32327 -13.92408,-8.62635 -21.45795,-11.97159 -6.82343,-4.74354 -15.67211,-6.21403 -21.37833,-12.64731 -3.41209,-4.65456 -7.57769,-7.41383 -13.58533,-6.70294 -6.36403,-2.10239 -11.95943,1.88774 -17.69809,3.96878 -8.6135,4.31679 -18.351881,5.12669 -27.21727,8.66494 0.0605,6.14902 12.454725,1.68488 17.10159,4.10106 12.03138,1.30613 24.95005,4.32458 33.08935,13.98325 6.03838,5.26132 9.78082,12.21109 13.6487,19.07148 -0.0549,1.83344 4.38612,9.96054 1.8494,9.40695 z M 53.451369,122.58098 c 2.831619,-6.23045 -2.579987,-5.02178 -0.856947,-0.005 l 0.357301,0.0847 0.499647,-0.0794 z m 4.947489,-0.29679 c 2.994852,-0.96358 16.366679,1.10005 9.239242,-3.15319 -3.276558,2.46991 -10.775111,-1.1108 -12.398377,1.47691 -1.053819,2.43164 1.81116,1.74747 3.159135,1.67628 z m 18.034001,-0.32763 c -2.231306,-2.87354 -9.851201,-4.91167 -4.1275,-0.12639 1.368098,-0.0869 2.792309,0.36424 4.1275,0.12639 z"
         id="path16702"
         inkscape:connector-curvature="0" />
      <path
         style="fill:#000000;fill-opacity:0.05474453;stroke-width:0.08466667"
         d="m 150.70694,168.70743 c -1.24018,-2.00111 -1.97014,-1.74836 -1.61069,-2.39161 0.67031,-0.42778 3.25843,2.7976 1.61069,2.39161 z M 121.09753,145.1919 c -3.08152,-0.42048 -0.19964,-1.68736 0,0 z m -98.726274,-8.97738 c 1.696702,-1.9674 3.543139,-1.97024 4.820911,-3.31122 3.996028,-2.14441 8.617208,-3.2162 13.009149,-4.1367 -1.62855,1.11631 -4.634503,1.56214 -5.574561,1.92781 -1.78251,0.35154 -6.190255,2.97731 -7.031251,2.39168 -0.868857,1.43639 -4.103114,2.72829 -5.224248,3.12843 z m 6.239688,-3.57724 c -0.500078,-0.1809 0.0693,0.45754 0,0 z m 2.756315,-0.96338 c -0.33558,-0.17821 -0.07857,0.19055 0,0 z m 9.738195,-2.80452 c 0.845497,-1.00417 4.853563,-0.64053 0.370473,0.0475 z m 37.571072,-1.12486 c -2.034677,-0.88375 -7.295956,0.15839 -4.475141,-1.31208 0.88944,-0.40619 3.343467,0.9705 4.038643,-0.01 -0.168225,0.55512 2.590223,1.25139 0.43648,1.32208 z m -2.751667,-0.69158 c -0.501002,-0.24696 -2.790814,0.26149 0,0 z m -25.633478,0.23715 c 4.317832,-0.50262 -3.386433,-0.58294 1.840318,-1.28428 5.22369,-0.74692 5.000577,1.17224 -1.840318,1.28428 z m 2.978218,-0.35733 c 0.480124,-0.45251 -0.730284,0.11019 0,0 z m 1.281199,-0.23959 c 1.946273,-1.37491 -2.08105,0.0374 0,0 z m -1.081225,-0.37123 c -0.601495,-0.35832 -0.886021,0.49399 0,0 z m 17.819654,0.77178 c -2.05305,-1.05743 1.148312,-0.86496 0,0 z m -3.386535,-0.0943 c -2.92545,-0.49557 -12.35825,0.59519 -11.431816,-0.65495 3.125882,-0.19505 3.890521,0.003 6.761385,-0.38086 2.066925,0.43849 8.551374,-0.52197 6.13267,0.60209 -0.455221,0.52999 1.446647,0.40595 -1.462239,0.43372 z m -0.888576,-0.33277 c -0.435442,-0.41552 -0.770857,0.4082 0,0 z m 1.498793,-0.0153 c -0.383327,-0.35997 -0.855548,0.38932 0,-3.3e-4 z m -5.012884,-0.38685 c -0.875,-0.3261 -0.918141,0.39559 0,0 z m 9.059334,0.48792 c -1.477078,-0.47785 2.269253,-0.26625 0,0 z m 4.128591,-0.20737 c -0.733936,-0.60055 1.220627,0.0972 0,0 z m -5.960097,-0.30724 c 0.198194,-1.52774 1.550519,0.5348 0,0 z m 22.82884,-1.25761 c 0.253963,-1.2155 2.600637,-0.88093 0,0 z m 1.756834,-0.75732 c 0.453553,-0.78981 0.640848,0.87412 0,0 z m 0.852922,-0.0681 c 1.606664,-1.04617 1.767324,0.0719 0,0 z m 1.771745,-0.46414 c 0.487806,-0.62488 1.024364,0.39612 0,0 z m 1.580444,-0.31951 c 0.221898,-0.84864 2.596092,-0.24045 0,0 z m 2.331152,-0.63782 c -0.34315,-0.90526 0.81599,0.6124 0,0 z m -0.80346,-0.1524 c 0.31239,-0.62816 0.75509,0.50864 0,0 z m 1.35803,-0.11577 c -0.0352,-0.94835 6.99023,-1.37783 1.34258,-0.40457 -0.29971,0.44156 -0.83876,0.57865 -1.34258,0.40457 z m 4.87778,-1.3659 c -0.59927,-0.77182 1.03018,0.38255 0,0 z m 0.30805,-0.36273 c 2.44526,-1.68697 1.86235,0.45945 0,0 z m 2.26349,-0.47757 c -0.68831,-1.10168 1.69106,0.62368 0,-10e-6 z m -55.010822,-0.0772 c -0.44439,-2.59919 2.922644,-5.95717 0.154225,-6.08858 0.115765,5.48661 -1.159742,2.39181 -4.405815,2.13791 -3.250526,0.43493 -4.767204,-2.20551 -4.469039,-4.16504 2.030089,-1.10982 4.543257,-0.73086 6.548769,-2.60082 2.818138,-4.48093 1.734853,-13.085965 4.956966,-18.785531 5.142092,-16.353646 15.023863,-31.107546 27.898023,-42.356922 4.733409,-4.330718 10.561463,-6.163977 16.240683,-3.264788 5.41237,2.196265 2.9892,10.289668 1.37284,14.411 0.96621,3.662679 -0.99606,7.343123 -0.98276,11.253715 -0.80649,4.764773 0.33521,7.886603 4.82437,9.464359 1.62432,4.483184 6.18644,6.139555 5.65549,11.046225 0.11736,2.762032 0.32781,5.662431 0.0545,8.602127 -0.95533,3.914445 -0.4197,7.921635 -4.01357,9.971595 -2.29268,3.96388 -6.65998,6.82722 -11.666695,6.05951 -9.043478,-0.32814 -19.127516,1.84109 -27.16865,-3.4001 1.751661,2.8243 5.791859,10.02014 1.472943,3.34125 -1.812477,-3.1033 -5.477498,-8.2578 -3.406187,-1.36446 -3.71e-4,3.56225 7.675041,3.98069 1.403606,4.58993 0.668923,0.22326 -4.141222,0.58036 -1.980948,-2.17394 -0.07951,-2.84155 -0.93769,-9.82177 -0.903333,-2.868 1.853517,6.23816 -4.952947,7.41342 -6.689605,2.87798 -2.694538,-3.67687 4.032047,6.10358 -2.235998,2.99785 -3.052247,-0.57872 -1.497876,-4.32634 -2.659795,0.31473 z m 4.233333,-1.0316 c -0.635042,-0.92818 -0.983761,0.56058 0,0 z m 6.239238,-3.05245 c -0.788227,-2.18943 -2.217373,0.4287 0,0 z M 50.503691,115.838 c 0.23966,-1.87756 -2.290718,0.83772 3e-6,0 z m 10.7315,-0.37494 c -0.17328,-2.44474 -0.565615,1.54678 0,0 z m -12.056944,-0.56421 c 2.047734,-1.22001 -3.073921,0.1745 0,0 z m 44.35728,0.025 c 5.065923,0.73768 7.140363,-2.47901 7.134883,-5.22833 -6.148664,1.09929 -12.554444,1.08723 -18.861217,1.57686 -2.361129,0.97563 -11.88119,-1.20531 -10.371668,0.76793 6.456598,4.07095 14.842218,2.57555 22.098002,2.88354 z m 2.096431,-1.56077 c -5.941501,-0.83092 6.016792,-2.00972 0.607051,0.14148 L 95.631962,113.363 Z m -47.054434,0.79656 c -0.707824,-0.96438 -0.21672,0.55001 0,0 z m -0.122441,-0.47602 c -0.07226,-0.64429 -0.421532,0.33251 0,0 z m 2.195063,-0.40817 c -0.28855,-2.97874 -1.655685,1.24989 0,0 z m -1.929605,-0.27359 c 1.008519,-1.81561 -2.477255,0.95247 0,0 z m 55.288839,0.2023 c 1.797,-3.01144 -2.73967,0.76161 0,0 z m -47.786217,-0.14701 c -0.336533,-0.40416 -0.384056,0.39625 0,0 z m 45.223527,0.0281 c 1.66701,-2.63356 -2.661747,-0.79508 0,0 z m -45.869688,-0.47788 c 0.125257,-1.93916 -0.700993,1.5583 0,0 z m -1.581315,0.0268 c -0.318812,-2.05699 -1.55648,0.29078 0,0 z m 8.875596,-0.0723 c -0.497275,-0.94737 -0.311116,0.75436 0,0 z m 2.978242,0.0284 c -0.325462,-0.30366 -0.217019,0.31371 0,0 z m -9.525001,-0.33866 c -0.102389,-0.30966 -0.208812,0.30172 0,0 z m -7.284531,-0.42851 c -0.470531,-0.14432 -0.173672,0.39699 0,0 z m 16.555532,0.0898 c -0.217019,-0.31371 -0.325462,0.30366 0,0 z m -7.403774,-0.83929 c -0.726086,-0.35153 0.07066,0.57226 0,0 z m -2.422077,-0.2136 c 1.747243,-1.86745 -0.514275,-2.16781 0,0 z m 7.519308,-0.0689 c -1.018325,-0.75995 0.306935,0.71875 0,0 z m 1.37521,0.11617 c -0.477125,-1.80671 -0.708172,0.25455 0,0 z m -10.14589,-0.60301 c -0.184744,-2.91772 -2.317999,1.76585 0,0 z m 48.700138,0.24786 c 0.77602,-2.24289 -1.72803,0.35253 0,0 z m -45.458801,0.013 c -0.393352,-0.96523 -0.850479,0.39938 0,0 z m 48.611521,-0.18717 c 0.8859,-2.79769 -3.04218,1.03485 0,0 z M 74.222769,110.0503 c 1.114949,-1.23432 5.374396,0.83533 6.585404,-1.02243 3.758957,0.78491 7.885665,0.31074 11.880722,0.003 3.040274,-0.38553 14.602805,-0.83531 6.908166,-2.47076 0.480959,-2.75498 6.441739,-1.42306 2.830449,-3.62546 -5.074898,-0.76219 -9.189581,0.40013 -13.529776,-0.50442 -2.807899,0.91775 -4.118784,0.23552 -6.962976,1.56591 -1.667414,-0.28205 -6.187967,3.58862 -9.127546,2.98507 -4.199845,1.25127 -3.328055,3.38355 1.415557,3.06915 z m -0.562744,-0.4794 c -0.337701,-0.84976 1.176808,0.0315 0,0 z m 2.391834,-0.2826 c 0.325462,-0.30366 0.217019,0.31371 0,0 z m 9.319952,-0.0755 c -1.238889,-0.91095 3.470851,0.0367 0,0 z m -2.712705,-0.29264 c -0.132089,-0.88454 1.075532,0.2805 0,0 z m -4.93512,-2.53168 c 0.441948,-0.4586 0.378888,0.40005 0,0 z m 15.388207,-0.27517 c 0.561339,-0.41027 0.561291,0.41029 0,0 z m -40.320738,3.78355 c -0.284658,-0.37676 -0.307658,0.44417 0,0 z m 5.897807,0.0784 c -0.07501,-0.58091 -0.739324,0.24302 0,0 z m 8.24767,-0.0731 c 2.310798,-1.56661 -2.056116,-0.83749 0,0 z m 14.396275,-0.35167 c 0.07615,-0.72656 -0.802821,0.22542 0,0 z M 61.108191,109.2634 c 1.961081,-2.97359 -0.608672,-2.85993 -1.038622,-3.94422 -1.831353,-0.96491 0.248637,-6.33522 0.697012,-3.49697 3.036262,4.23557 3.429565,-10.361185 0.73007,-3.521712 -2.119214,2.626382 -5.978429,10.223772 -0.38846,10.962902 z m -3.577624,-0.29121 c -0.164402,-0.24772 -0.520572,0.39939 0,0 z m 7.042461,-0.15707 c 1.609938,-4.66318 -2.367107,-0.0444 0,0 z m -8.052759,-0.28538 c -0.03022,-3.32853 0.252441,-7.1211 1.624584,-10.967571 1.053987,-4.545593 -2.319106,5.362601 -2.62553,6.942671 -0.285984,1.41985 -1.826414,5.20317 1.000946,4.0249 z M 108.873,107.19802 c 1.56668,-3.52335 -2.92912,0.23753 0,0 z m -3.13194,-0.15193 c -0.28358,-3.1797 -2.19621,0.72977 0,0 z m -36.217067,-0.47436 c 4.146621,-0.97258 5.979786,-3.6602 9.160547,-4.86803 3.511515,-1.902796 9.119584,-3.099713 11.232747,-6.431473 -1.836798,0.298255 -1.140678,-2.322102 -3.845832,0.05715 -4.368114,2.121949 0.88204,-2.627748 2.89207,-2.495561 -3.447055,-0.30365 -4.32971,0.143432 -5.992216,2.345734 -3.152342,2.499469 -6.075382,-1.636705 -7.182019,2.593048 -2.094435,-0.39797 -1.608777,1.898886 -3.642379,1.852125 -0.908368,1.042137 -8.454854,6.632817 -2.622918,6.947007 z m -1.264765,-1.18342 c 1.759635,-3.25627 8.423893,-2.05344 2.375178,-1.49221 0.221314,1.6669 -1.197007,0.33306 -2.375178,1.49221 z m 6.395631,-2.196 c 0.330465,-0.30942 0.330465,0.30942 0,0 z m -0.875403,-0.74318 c -1.259653,-1.45055 2.265622,-0.10786 0,0 z m 7.86111,-5.436339 c -0.0067,-1.017063 1.274835,0.474102 0,0 z m -2.622948,-0.454566 c -0.263664,-1.065464 0.975015,0.33298 0,0 z m 26.500032,8.294255 c 2.10102,-3.68315 -3.30589,-0.91907 0,0 z m 4.35854,-0.296 c 1.70368,-3.13812 -3.01827,-0.63635 0,0 z m -44.110225,-0.9918 c 2.616645,-2.30172 5.834852,-5.817543 4.167128,-8.312385 1.792967,1.637667 2.846649,-1.141006 3.633084,-5.526259 -2.045423,-4.587902 -6.429315,5.311507 -8.093092,7.623096 -0.390986,1.349055 -2.778066,7.116368 0.29288,6.215548 z m -6.607128,-1.72215 c 0.254885,-2.370562 -1.259776,1.61271 0,0 z m 46.122013,-0.58838 c 0.94755,-3.522079 -3.39994,1.34823 -4.6963,-2.210472 -1.609073,-2.075497 8.42345,-1.092422 1.32883,-2.149117 -3.588809,-1.321596 -4.939458,-2.232211 -9.774863,-0.851806 -4.18145,2.302188 0.941305,1.327292 -1.933063,3.635066 -2.826024,1.161189 3.661639,1.259229 6.148712,1.513879 2.979039,-0.10883 5.967574,0.41427 8.926684,0.0624 z m 2.81734,-0.26317 c 0.87022,-3.046416 -3.15233,-1.15268 0,0 z m 2.74182,-0.25424 c 0.80532,-3.238243 -2.35813,1.01758 0,0 z m -24.797125,0.16944 c 0.657531,-1.501131 -1.905495,0.63221 0,0 z m 22.080305,-3.705364 c 0.76906,-3.455433 -2.1513,1.132978 0,0 z m 3.00184,-0.146695 c 0.23458,-3.426749 -2.82163,1.325679 0,0 z M 60.334874,96.651794 c 1.670044,-4.218019 3.490885,-11.420174 4.666919,-13.184242 1.265176,-0.643072 6.779582,-4.817057 6.531459,-7.791907 -2.007097,1.329458 4.109376,-7.343319 5.544351,-9.331756 2.616639,-5.206685 7.432138,-10.205509 10.729917,-14.051283 -3.715004,2.250217 -8.213608,10.45843 -10.365226,10.600123 2.309332,-2.253367 4.388399,-6.249853 0.451487,-1.675087 -1.711879,2.829195 -8.497325,10.712974 -7.065513,11.103541 2.212974,-3.802969 3.806314,-1.725503 0.989006,0.847323 -0.909203,2.340175 -6.99631,10.780217 -4.159822,4.274216 0.920973,-3.1314 -3.997209,5.302094 -4.453427,7.100732 -0.220955,4.029553 -6.461225,9.058176 -3.033883,12.290252 l 0.16474,-0.181916 z m 9.493985,-19.272943 c 0.106907,-0.349688 0.826603,0.213427 0,0 z m 5.15513,-9.945324 c -1.59648,-2.035862 5.287555,-5.802122 0.859631,-0.789925 0.753184,-1.033878 -0.779144,1.559479 -0.859631,0.789925 z M 64.301472,94.187122 c 4.362063,-5.040175 4.958349,-7.651065 9.878475,-11.110598 2.178784,-2.099653 4.547553,-4.643429 5.709797,-2.288941 3.500212,-3.43937 4.842318,-5.831542 10.554659,-6.827649 7.368553,-3.37219 -4.923879,-4.788893 -7.486901,-0.964852 -4.039806,3.779262 -10.376966,3.100701 -13.555031,8.051915 -4.190118,3.406412 -4.481882,8.105464 -5.923616,12.450982 -0.549685,0.800838 0.68942,2.421646 0.822617,0.689143 z M 76.352638,80.162981 c 1.626878,-4.060831 0.02057,0.848651 0,0 z m 0.672888,-1.513634 c 0.185922,-0.424477 0.373516,-0.140603 0,0 z m 3.514039,-0.180302 c 0.527583,-0.57337 0.590169,0.07782 0,0 z M 65.85608,94.129473 c 5.456826,-6.876467 -1.576679,-2.065965 0,0 z m 35.97678,-0.156102 c 4.38067,-0.07983 -6.119745,-2.025958 0.38573,-2.388107 2.8491,-0.590573 0.18242,-1.456382 2.9586,-1.812654 -1.17438,-4.156961 -12.663937,1.253381 -10.149209,4.076775 2.24,0.369115 4.547736,0.249643 6.804879,0.123986 z m 8.86555,-0.246821 c 1.40782,-3.234547 -3.42087,-1.702205 0,0 z M 76.44123,92.335913 c 4.009924,-4.547859 8.463931,-8.849907 12.983264,-12.765599 -4.026623,-3.17405 -9.644316,2.381754 -12.275068,5.853612 -1.052119,0.883158 -5.227157,11.379173 -0.708196,6.911987 z m 3.648209,0.99563 c 6.6519,-2.370816 11.835102,-7.575026 18.166255,-10.650571 -2.233859,-4.849982 -9.542885,-2.9276 -12.233013,1.360396 -1.1285,1.794635 -10.209979,8.568413 -5.933242,9.290175 z m 27.831051,-0.265485 c 1.00716,-3.712926 -2.87577,0.557467 0,0 z M 92.604193,92.182264 c -1.063732,-0.890116 -1.017442,0.732551 0,0 z m -1.533714,-1.147248 c 3.336061,-1.667523 16.625601,-3.425733 9.191881,-7.860321 -4.416336,2.090563 -8.843283,4.722001 -12.472854,8.016241 1.092239,0.111735 2.206849,0.08985 3.280973,-0.15592 z m 16.049331,-1.018273 c 1.88848,-2.176412 -2.58087,-3.57063 0,0 z M 68.938762,89.539814 c 2.027002,-2.56723 -1.504427,0.881679 0,0 z m 40.937428,-0.223096 c 1.61232,-3.999492 -2.39994,-0.132837 0,0 z M 75.14563,86.925644 c 4.944718,-6.51414 -6.178248,-0.545478 0,0 z m 30.1921,-1.376462 c 0.0544,-2.494093 -2.0076,1.11935 0,0 z m 3.16118,-0.448485 c -0.97844,-2.472589 -2.96432,0.255333 0,0 z m -4.90498,-1.737316 c -0.16626,-3.273422 -3.09311,0.311211 0,0 z m 2.13793,-1.088064 c 0.31112,-3.15465 -2.72945,-0.563766 0,0 z m -6.391682,-1.140956 c -0.01478,-2.067646 -2.381371,0.551804 0,0 z m 3.027112,-1.795633 c -1.89712,-3.695229 -1.24553,1.936991 0,0 z m -5.439531,0.228607 c 0.24219,-3.793913 -4.20692,0.163769 0,0 z M 63.660925,78.667817 c 1.841965,-0.524312 1.935695,-5.300804 0.02993,-0.591591 -0.268852,-0.150892 -0.423972,1.399449 -0.02993,0.591591 z m 27.976283,-0.19817 c 1.092707,-1.716797 -2.112632,-0.04086 0,0 z m 8.370522,-1.119506 c -0.101941,-2.922011 -3.071468,0.921742 0,0 z m -10.640117,-0.10245 c -1.341539,-3.078416 -4.068163,0.733325 0,0 z m 6.263414,-1.485097 c 1.713838,-3.214332 -3.887369,-0.07652 0,0 z m -3.877461,-0.05652 c 1.708907,-2.439143 -2.604035,0.584368 0,0 z M 69.14462,74.882487 c 0.652779,-1.540022 -0.938112,1.028498 0,0 z m 0.684239,-1.408173 c 0.487299,-1.167289 -0.767329,1.118648 0,0 z m 27.691567,0.251021 c 0.722177,-3.15784 -3.605211,-1.381871 0,0 z M 79.480859,72.984763 c 1.07162,-3.162219 1.451173,2.173908 4.065083,-2.180337 0.175007,-5.088306 -9.24894,3.167094 -4.065083,2.180337 z M 76.1289,72.76329 c 3.796265,-0.763918 4.182407,-6.889994 0.889831,-2.970794 -1.019018,0.279521 -3.506451,3.568915 -0.889831,2.970794 z m 21.089627,-2.59256 c 3.431503,-7.265354 -4.571911,-0.60604 0,0 z m -26.18086,-0.61225 c 3.835857,-4.133138 -0.458608,-2.436902 -0.478755,0.4445 z m -1.108356,0.127 c 1.504127,-1.84138 3.322221,-5.64584 0.368848,-1.418166 0.07053,-0.509191 -1.348776,2.065316 -0.368848,1.418166 z m 16.756665,-0.700975 c 4.489627,-0.142647 4.443884,-3.648504 1.299411,-4.021645 -2.459345,0.146819 -5.743829,5.122989 -1.299411,4.021645 z m 14.230744,0.03148 c 4.51563,-5.207382 -3.818886,0.211688 0,0 z M 85.874447,64.405381 c 6.602062,-4.331876 -6.730158,-4.983469 0,0 z m -6.060965,-0.380906 c 4.663313,-4.548951 -2.844765,0.754944 0,0 z m 21.325108,0.119572 c 0.95836,-2.317527 -1.752732,0.144901 3e-5,0 z m -24.585416,-2.93581 c 2.020812,-2.396422 0.09161,-1.373966 0,0 z m 14.549899,0.109194 c 5.075968,1.549067 7.912642,-8.597197 2.125195,-4.764255 -1.178913,1.20977 -7.402578,4.225553 -2.125195,4.764255 z m 8.081287,0.08155 c 2.40246,-3.293757 -2.775016,-0.633648 0,0 z M 83.827589,60.732556 c 5.222574,-3.963265 -1.832869,-1.982568 0,0 z m -0.801762,-4.530238 c 4.171745,-4.690966 -3.656244,2.913001 -0.829978,0.904212 z m 19.523623,0.878462 c 1.57911,-3.177941 -3.656434,0.474063 0,0 z M 88.043167,56.847038 c 1.940685,-2.631535 9.836042,-1.928592 7.152623,-6.102547 -2.734629,-0.941505 -9.588518,4.309003 -7.152623,6.102547 z M 99.48236,55.597371 c 0.94213,-3.67744 -3.43658,0.546169 0,0 z m 3.50694,-1.727901 c 1.75341,-3.30083 -2.98627,0.569259 0,0 z m -3.920762,-2.871707 c -0.428285,-1.177894 -1.499141,0.513969 0,0 z m -0.146329,-0.981098 c 1.867951,-2.888418 -3.771675,0.107639 0,-4e-6 z m 3.230481,-0.126819 c 0.75051,-1.368624 -1.44358,0.220577 0,0 z M 97.077,48.100298 c 0.778103,-2.172383 -3.818848,0.329296 -0.759762,0.166157 z m -7.893763,-0.205361 c 3.570158,-2.39241 -2.098694,-0.502492 0,0 z m 12.818953,-0.09928 c 1.35132,-1.438073 -2.845975,0.754269 0,0 z m -6.752401,-2.12944 c 2.933506,-2.985106 -4.235613,1.101984 0,0 z m 15.867371,74.222643 c 0.67705,-1.4845 7.1772,-3.09141 9.5067,-4.67393 3.94451,-1.49001 -1.88054,2.0636 -3.19118,2.19853 -2.10759,0.59029 -4.40931,2.28566 -6.31552,2.4754 z m 6.75642,-2.89003 c -0.35964,-0.54186 -0.18805,0.35784 0,0 z m -44.153085,2.43557 c -0.260757,-0.5375 0.470329,0.55282 0,0 z m 0.849697,-1.24074 c 2.515985,-0.47583 1.957487,0.23151 0,0 z m 8.382001,-1.08707 c -0.718688,-0.81704 3.637167,-0.0928 0,0 z m 2.455333,-0.36761 c 1.366938,-0.23767 -0.305342,0.28492 0,0 z m 1.32767,-0.0598 c 5.45309,-0.58698 3.885356,0.17439 0,0 z m -15.45984,-0.24661 c -1.582736,-2.67424 -0.08199,-0.61096 0,0 z m 19.953004,0.0759 c 1.221729,-0.12036 0.242093,0.12129 0,0 z m 1.5875,-0.0663 c 1.442135,-0.20951 0.329538,0.14698 0,0 z m 43.2435,-1.54237 c -1.79594,-1.40359 5.89709,-0.5344 1.70883,-0.32586 0.48528,-1.01923 -1.50326,0.64965 -1.70883,0.32586 z m -2.39183,-0.17 c -3.26674,-0.7225 3.92304,-0.32132 0,3e-5 z m -10.668,-0.18477 c 0.50832,-0.90793 1.40905,0.01 0,0 z m 1.46041,-0.0787 c -0.86361,-2.09065 1.98347,0.2096 0,0 z m 5.92676,-0.0179 c -0.55406,-1.2622 3.85908,0.48276 0,0 z m -2.44967,-0.32975 c -3.0853,-1.09573 3.01581,0.28261 0,0 z m 1.26594,0.10639 c 0.55842,-0.1251 0.10778,0.13992 0,0 z m 7.25852,-12.89582 c 1.80366,-2.286273 2.38838,-1.522803 0,0 z m 1.86267,-1.850312 c 1.94376,-2.661665 0.65153,0.414479 0,0 z m 1.94733,-2.017863 c 5.07068,-6.070717 0.46987,0.350071 0,0 z m 16.73578,-19.047766 c 1.41997,-5.367669 2.50027,-3.748456 0,0 z m 2.22955,-0.897174 c 0.14446,-0.972117 0.62279,0.07347 0,0 z m -0.3682,-3.74258 c 0.93868,-3.194321 1.97837,-2.505721 0.224,0.119492 l -0.22393,-0.119492 z m 1.94512,-0.197344 c -0.005,-0.59946 0.59429,0.136548 0,0 z m 1.88752,-11.510624 c 0.15689,-3.187302 2.14146,-2.284467 0,0 z m 1.60677,-7.147061 c -1.87734,3.440366 -0.99347,0.458028 -1.34727,-0.01506 -4.29914,16.487133 0.17734,-8.833067 1.34727,0.01506 z m -2.64171,5.717135 c 0.6604,-4.153899 1.56197,-2.439179 0,0 z m 1.54988,-1.071974 c 0.28956,-1.958751 1.02291,0.293139 0,0 z m 0.60244,-1.667933 c -0.76385,-2.76008 2.15254,-0.501911 0,0 z m 0.60406,-1.585861 c 0.25658,-2.608127 1.57667,-1.09942 0,0 z"
         id="path16700"
         inkscape:connector-curvature="0"
         sodipodi:nodetypes="ccccccccccccccccccccccccccccccccccccccccccccccccccccccccccccccccccccccccccccccccccccccccccccccccccccccccccccccccccccccccccccccccccccccccccccccccccccccccccccccccccccccccccccccccccccccccccccccccccccccccccccccccccccccccccccccccccccccccccccccccccccccccccccccccccccccccccccccccccccccccccccccccccccccccccccccccccccccccccccccccccccccccccccccccccccccccccccccccccccccccccccccccccccccccccccccccccccccccccccccccccccccccccccccccccccccccccccccccccccccccccccccccccccccccccccccccccccccccccccccccccccccccccccc" />
    </g>
  </g>
</svg>
