<?xml version="1.0" encoding="UTF-8" standalone="no"?>
<!-- Created with Inkscape (http://www.inkscape.org/) -->

<svg
   xmlns:dc="http://purl.org/dc/elements/1.1/"
   xmlns:cc="http://creativecommons.org/ns#"
   xmlns:rdf="http://www.w3.org/1999/02/22-rdf-syntax-ns#"
   xmlns:svg="http://www.w3.org/2000/svg"
   xmlns="http://www.w3.org/2000/svg"
   xmlns:sodipodi="http://sodipodi.sourceforge.net/DTD/sodipodi-0.dtd"
   xmlns:inkscape="http://www.inkscape.org/namespaces/inkscape"
   width="76.726624mm"
   height="74.509956mm"
   viewBox="0 0 271.86599 264.01165"
   id="svg2"
   version="1.1"
   inkscape:version="0.92.3 (2405546, 2018-03-11)"
   sodipodi:docname="inkscape-logo.svg">
  <defs
     id="defs4" />
  <sodipodi:namedview
     id="base"
     pagecolor="#ffffff"
     bordercolor="#666666"
     borderopacity="1.0"
     inkscape:pageopacity="0.0"
     inkscape:pageshadow="2"
     inkscape:zoom="0.7"
     inkscape:cx="332.68071"
     inkscape:cy="375.38308"
     inkscape:document-units="px"
     inkscape:current-layer="layer1"
     showgrid="false"
     fit-margin-top="3"
     fit-margin-left="3"
     fit-margin-right="3"
     fit-margin-bottom="3"
     inkscape:window-width="1920"
     inkscape:window-height="1051"
     inkscape:window-x="1920"
     inkscape:window-y="0"
     inkscape:window-maximized="1" />
  <metadata
     id="metadata7">
    <rdf:RDF>
      <cc:Work
         rdf:about="">
        <dc:format>image/svg+xml</dc:format>
        <dc:type
           rdf:resource="http://purl.org/dc/dcmitype/StillImage" />
        <dc:title />
      </cc:Work>
    </rdf:RDF>
  </metadata>
  <g
     inkscape:label="Layer 1"
     inkscape:groupmode="layer"
     id="layer1"
     transform="translate(-166.92415,-246.07064)">
    <g
       id="g5071">
      <path
         d="m 302.82821,256.70123 c -7.14374,0 -14.27461,2.73071 -19.74504,8.20564 l -97.30286,97.30286 c -5.36745,5.36103 -8.08014,12.34387 -8.18634,19.34602 l -0.0399,0 c 0,0.0257 0.0386,0.0515 0.0399,0.0772 -0.001,0.11584 -0.0399,0.23169 -0.0399,0.3411 l 0.18085,0 c 1.87024,7.09225 49.96176,16.13455 55.32922,21.502 8.1091,8.10911 -31.07784,14.05579 -22.96938,22.1649 8.10911,8.10911 49.00862,15.68404 57.11773,23.79315 8.10911,8.10911 -16.57862,16.74595 -8.46951,24.85506 8.10911,8.10911 35.34541,-2.04015 30.40915,19.10789 10.95373,10.9473 33.80082,5.74074 49.09872,-5.20656 8.10267,-8.10911 -15.55533,-7.40117 -7.44622,-15.51028 8.10911,-8.10911 28.56852,-8.15416 45.81646,-27.55166 -6.94423,-10.79284 -29.66904,-15.40087 -21.55993,-23.50998 8.10911,-8.1091 23.87038,-3.98376 57.88359,-19.42968 16.60436,-7.54275 15.2271,-13.26418 15.16274,-20.21484 l 0,-0.41833 -0.0386,0 c -0.10941,-7.00215 -2.79958,-13.98499 -8.16704,-19.34602 l -97.30286,-97.30286 c -5.47043,-5.47557 -12.6206,-8.20628 -19.77077,-8.20628 z"
         id="path572"
         inkscape:connector-curvature="0"
         style="fill-rule:evenodd;stroke-width:1pt" />
      <path
         d="m 377.17457,457.41517 c 11.88692,2.38124 14.26173,10.70273 11.88692,13.07754 -2.37481,2.38125 -8.32149,4.75606 -13.07754,1.19063 -4.75606,-3.56544 -4.75606,-11.88693 1.19062,-14.26817 z"
         id="path580"
         inkscape:connector-curvature="0"
         style="fill-rule:evenodd;stroke-width:1pt" />
      <path
         d="m 256.86372,458.21321 c -1.15844,0.30891 -10.83145,-8.03188 -18.49649,-4.16397 -7.66503,3.86148 -12.80724,12.51763 -5.65063,16.0702 7.16305,3.55256 12.27951,-0.54705 18.55441,-4.95557 6.27491,-4.40209 6.04966,-5.25161 5.59271,-6.95066 z"
         id="path582"
         inkscape:connector-curvature="0"
         style="fill-rule:evenodd;stroke-width:1pt" />
      <path
         d="m 398.26469,437.0523 c 6.46797,-1.61539 21.39903,0 19.02422,9.51211 -2.38125,9.51211 -22.58966,5.94668 -35.6672,1.19062 -1.19063,-9.51211 13.59884,-9.93687 16.64298,-10.70273 z"
         id="path583"
         inkscape:connector-curvature="0"
         style="fill-rule:evenodd;stroke-width:1pt" />
      <path
         d="M 274.51069,286.75062 C 263.33814,292.427 244.9768,316.25877 244.9768,319.6633 l -0.34753,14.17164 31.83146,-3.19216 11.39781,-26.68283 8.84922,30.51857 23.14314,-15.45236 14.9761,7.02146 2.71591,-20.55595 27.23631,13.14834 c 0,-0.42476 -0.0322,-0.84952 -0.0965,-1.27429 -0.0644,-0.42476 -0.15446,-0.84309 -0.28317,-1.26785 -0.12228,-0.41833 -0.28318,-0.83022 -0.46982,-1.24211 -0.18664,-0.41189 -0.41189,-0.81735 -0.66288,-1.2228 -0.251,-0.39902 -0.53418,-0.7916 -0.84309,-1.17775 -0.31536,-0.38615 -0.66289,-0.76586 -1.0426,-1.13914 -0.37328,-0.36684 -0.78517,-0.72724 -1.22281,-1.07478 -0.44407,-0.35397 -0.91388,-0.68863 -1.41587,-1.01685 l -45.97736,-34.09687 c -8.04475,-5.21686 -9.76954,-8.28159 -17.81429,-3.06473 l -20.4401,14.68778 z"
         id="path568"
         inkscape:connector-curvature="0"
         style="fill:#ffffff;fill-rule:evenodd;stroke-width:1pt" />
      <path
         d="m 259.68904,408.43873 c 14.48699,3.75851 30.60223,8.68189 43.53819,8.77199 l 0.55991,5.8244 c -11.07601,-1.13913 -34.51519,-6.48085 -40.04355,-9.30616 l -4.05455,-5.29023 z"
         id="path574"
         inkscape:connector-curvature="0"
         style="fill:#ffffff;fill-rule:evenodd;stroke-width:1pt" />
    </g>
  </g>
</svg>
