<?xml version="1.0" encoding="UTF-8" standalone="no"?>
<!-- Created with Inkscape (http://www.inkscape.org/) -->

<svg
   width="172.35994mm"
   height="40.068275mm"
   viewBox="0 0 172.35994 40.068275"
   version="1.1"
   id="svg1"
   xmlns="http://www.w3.org/2000/svg"
   xmlns:svg="http://www.w3.org/2000/svg">
  <defs
     id="defs1" />
  <g
     id="layer1"
     style="display:inline"
     transform="translate(-15.868327,-17.692361)">
    <path
       id="path2202"
       style="display:inline;fill:#d5e6fe;fill-opacity:1;stroke-width:0.380771"
       d="m 16.058712,39.049416 c 0,0 24.74994,-4.473785 39.51335,-3.643242 14.7634,0.830542 31.92367,4.772814 47.768688,5.957903 15.84501,1.185089 31.23371,-1.828343 46.83717,-1.171574 12.68431,0.533899 37.86001,4.148581 37.86001,4.148581 V 57.570249 H 16.058712 Z" />
    <path
       style="fill:none;stroke:#d35f5f;stroke-width:1;stroke-linecap:round;stroke-dasharray:none;stroke-dashoffset:0;stroke-opacity:1"
       d="m 80.956609,52.933841 c 5.035579,0.710147 6.455871,0.903822 9.03822,-0.516469 2.582346,-1.420292 5.552048,-1.226617 6.45587,-0.774706"
       id="path1481" />
    <g
       id="g225"
       transform="matrix(0.28037294,0,0,0.28037294,8.3961625,-1.3319186)">
      <path
         id="path224"
         style="fill:#ececec;fill-opacity:1;stroke:none;stroke-width:0.15;stroke-dasharray:none"
         d="m 139.57546,98.593982 c 0,0 -4.74468,3.180958 -5.00538,3.441648 -0.26069,0.26069 -8.91573,6.56911 -8.91573,6.56911 l -7.24762,0.15658 -3.93723,1.37304 c -0.31406,0.76317 -0.61704,1.50006 -0.88367,2.15181 -0.97499,2.3833 -3.14142,4.92905 -4.9289,6.49986 -1.78748,1.57081 -2.27518,2.87057 -4.27932,8.77466 0,0 -0.39004,1.62899 -0.46664,1.8588 -0.0766,0.22981 -0.68928,0.84236 -1.07229,1.14877 -0.21633,0.17306 -0.88507,0.84742 -1.67431,1.71876 l -0.0677,2.23087 -2.97191,4.11861 -3.805969,16.31942 -4.948019,4.37802 c 0.03103,0.365 0.0763,0.79118 0.13901,1.3007 0.306409,2.48958 0.383041,4.94098 0.306441,6.12831 -0.0766,1.18733 -0.191357,1.53193 -0.421163,2.02985 -0.229806,0.49791 -0.842876,2.10682 -1.149284,3.75377 -0.306409,1.64694 0.19166,3.17909 0.22996,4.51962 0.0383,1.34055 0.229715,1.68482 -0.2682,2.56574 -0.497914,0.88092 -0.536128,1.72387 -0.382923,3.06441 0.153204,1.34053 0.382923,2.02967 0.382923,3.44682 0,1.41714 0.76597,0.99581 1.340486,1.64693 0.574517,0.65112 1.493617,0.19151 3.676779,0.65112 2.183162,0.45961 3.294137,1.3791 4.749581,2.45153 1.455441,1.07243 1.723326,0.68937 2.757458,1.34049 1.03413,0.65112 1.11098,0.65115 1.8004,0.95756 0.68942,0.30641 0.11456,0.95761 -0.11524,1.26401 -0.22981,0.30641 -0.61282,1.18735 -0.65112,1.95337 -0.0383,0.76602 0.19169,1.68514 0.5364,2.02985 0.3447,0.34471 1.18735,0.498 1.30225,0.91932 0.11491,0.42131 1.34049,0.38274 1.99161,0.49764 0.65112,0.1149 1.14886,0.11488 2.06809,0.34469 0.91923,0.2298 1.03445,0.26832 1.76217,0.19172 0.72772,-0.0766 1.57,-0.30648 2.18281,-0.61289 0.61282,-0.30641 0.53625,-0.6893 0.95756,-0.7276 0.42131,-0.0383 1.07266,0.26789 1.49397,0.4594 0.42131,0.1915 0.88099,0.11518 1.264,0.15348 0.38301,0.0383 0.49765,0.2682 1.14877,0.2682 0.65112,0 0.95778,-0.42162 1.14928,-0.45992 0.19151,-0.0383 1.64684,-0.15324 2.02985,-0.30644 0.38301,-0.1532 0.91936,-0.61277 1.22577,-1.34049 0.30641,-0.72772 0.30632,-1.72344 0.38292,-2.02985 0.0766,-0.30641 0.72749,0.11461 1.45521,0.19121 0.72772,0.0766 1.03417,-0.15276 1.60869,-0.61237 0.57451,-0.45961 1.07256,-0.9194 1.22576,-1.53221 0.1532,-0.61282 0.11478,-1.76186 0.0765,-2.60449 -0.0383,-0.84262 -1.34042,-1.45527 -1.37872,-2.06809 -0.0383,-0.61282 1.30243,0.19142 2.48977,-0.2682 1.18733,-0.45961 1.22537,-1.41716 1.79989,-1.95337 0.57451,-0.53622 2.52772,-0.65124 5.3237,-0.57464 1.52199,0.0417 2.52204,0.0606 3.43235,0.0754 l 1.54461,-7.05745 c -1.43168,-0.0882 -2.6985,-0.12005 -3.32951,-0.10387 -1.49374,0.0383 -3.4091,-0.0765 -3.4091,-0.0765 0,0 0.11494,-2.02983 0.30645,-3.02566 0.1915,-0.99583 1.34076,-2.64303 1.49396,-3.75377 0.15321,-1.11073 0.45936,-3.8683 0.15296,-5.63015 -0.30641,-1.76185 -0.94491,-3.16908 -1.30121,-4.9506 -0.3563,-1.78151 -0.74244,-3.97845 -0.8909,-5.55212 -0.14846,-1.57367 -0.45153,-2.88506 -0.32556,-4.12378 0.12598,-1.23873 0.50383,-1.63777 0.67179,-2.16266 0.16797,-0.52488 0.546,-1.38565 0.86093,-1.97352 0.31494,-0.58787 0.0626,-1.61658 0.46147,-2.14147 0.39892,-0.52488 0.924,-2.05777 1.49087,-3.52744 0.56688,-1.46968 0.65106,-2.22557 1.32291,-4.47207 0.67184,-2.24651 -0.10537,-2.85545 -0.0424,-3.5693 0.063,-0.71384 0.84019,-0.46155 0.94516,-0.92345 0.10498,-0.4619 0.37794,-1.82703 0.39894,-2.47789 0.021,-0.65085 -0.50428,-2.0785 -0.60926,-2.70836 -0.10498,-0.62986 -0.62991,-1.11241 -0.231,-1.09141 0.39891,0.021 1.47018,0.2729 2.37298,0.3359 0.9028,0.063 1.99447,-0.3573 2.64532,-0.77721 0.65086,-0.41991 1.49066,-1.11248 1.63763,-1.72134 0.14697,-0.60887 0.10474,-0.3147 0.48266,-0.48266 0.37791,-0.16797 0.77699,-0.1264 1.09192,-0.27337 0.31494,-0.14696 0.58758,-0.6297 0.9865,-1.11259 0.3989,-0.48289 0.39899,-0.94488 0.46199,-1.19683 0.063,-0.25194 0.46217,-0.71373 0.48317,-1.34359 0.021,-0.62986 -0.12609,-0.90291 -0.12609,-1.02888 0,-0.12597 0.35694,-0.29368 0.39894,-0.6506 0.042,-0.35692 0.0839,-0.48293 -0.063,-0.96583 -0.14697,-0.48289 -0.3779,-0.65123 -0.3359,-0.94517 0.042,-0.29393 0.27285,-1.65816 0.27285,-2.43499 0,-0.77683 -0.27277,-1.38579 -0.37775,-1.93166 -0.10498,-0.54588 -0.41985,-1.11276 -0.50385,-1.46968 -0.084,-0.35692 0.0209,-0.52527 0.27286,-0.77722 0.25195,-0.25194 0.0627,-0.58769 0.0207,-1.28054 -0.042,-0.69284 -0.16785,-0.90297 -0.60875,-1.82676 -0.44091,-0.9238 -0.96554,-0.94453 -1.38545,-1.55339 -0.4199,-0.60887 -0.31495,-1.15498 -0.56689,-1.88981 -0.25195,-0.73484 -0.4829,-1.23856 -0.73484,-1.84743 -0.25194,-0.60886 -0.92415,-0.94463 -1.11311,-1.28055 -0.17722,-0.31504 -0.15095,-0.35327 -0.0951,-1.084167 z" />
      <path
         id="path218"
         style="fill:#000000;fill-opacity:1;stroke:none;stroke-width:0.15;stroke-dasharray:none"
         d="m 103.29034,130.1657 c -0.1569,0.15205 -0.31816,0.29576 -0.45166,0.40256 -0.38301,0.30641 -2.18321,2.18313 -3.562052,3.94498 -1.378839,1.76185 -3.255895,4.443 -4.060218,6.16655 -0.804323,1.72355 -2.412689,5.55358 -3.446818,7.23883 -1.034132,1.68525 -1.838679,3.86856 -2.145088,5.1325 -0.306408,1.26393 -0.0763,2.37485 -0.191203,3.48558 -0.114905,1.11073 -0.229927,1.60837 0.07648,4.09794 0.306409,2.48958 0.383041,4.94098 0.306441,6.12831 -0.0766,1.18733 -0.191357,1.53193 -0.421163,2.02985 -0.167427,0.36275 -0.538523,1.31504 -0.845943,2.44223 0.147538,-0.0198 0.308831,-0.0292 0.536918,-0.12041 0.698711,-0.27949 1.676551,-0.41907 2.235523,-0.76843 0.558969,-0.34936 1.677407,1.67676 3.354317,1.74666 1.676914,0.0699 0.278993,-1.04795 -0.34985,-1.74666 -0.628844,-0.69871 -1.746493,-2.58533 -1.187524,-3.28404 0.558969,-0.69871 2.864676,0.21 3.703133,0.41962 0.838456,0.20961 2.445561,3.28361 3.633367,3.56309 1.18782,0.27949 0.4888,-1.04815 -0.14004,-1.95647 -0.628842,-0.90833 -0.908125,-1.8864 -1.467094,-3.42357 -0.558972,-1.53717 -1.04825,-0.62898 -1.886707,-0.90847 -0.838457,-0.27948 -3.423494,-1.25743 -4.471561,-2.16576 -1.048071,-0.90832 0.629046,-1.18769 1.537374,-1.74666 0.908328,-0.55897 2.375195,-1.7e-4 3.28352,-0.55914 0.908328,-0.55897 -0.06986,-2.51554 1.327568,-3.56361 1.39742,-1.04807 1.46731,-1.39734 1.327567,-2.7249 -0.139742,-1.32755 -0.977993,-3.21411 -1.467094,-5.6596 -0.489098,-2.4455 -0.07009,-2.4454 0.139527,-4.4018 0.209614,-1.95639 1.048306,-3.9126 2.51561,-5.79913 1.46729,-1.88652 0.41926,-0.97835 0.97823,-2.23603 0.55898,-1.25768 0.55872,-1.95628 0.8382,-3.42357 0.12998,-0.6824 0.19978,-1.37993 0.30024,-2.31045 z m -14.944828,45.60238 c 0.06246,0.44949 0.118366,0.88307 0.130224,1.29811 0.0383,1.34055 0.229715,1.68482 -0.2682,2.56574 -0.497914,0.88092 -0.536128,1.72387 -0.382923,3.06441 0.151158,1.32262 0.376918,2.01122 0.382923,3.39049 0.505612,0.19918 1.122026,0.42548 1.856734,0.81907 1.956396,1.04807 2.095852,0.27919 4.191992,0.20929 2.096141,-0.0699 1.188029,-0.83845 -0.139526,-3.00446 -1.327555,-2.16601 -1.327722,-2.51498 -0.559139,-4.26176 0.768586,-1.74678 -1.327496,-1.18808 -2.375566,-2.16628 -1.048067,-0.9782 -1.537302,-1.11782 -2.585372,-1.74666 -0.08333,-0.05 -0.167207,-0.10618 -0.251147,-0.16795 z" />
      <path
         id="path223"
         style="fill:#ffffff;fill-opacity:1;stroke:none;stroke-width:0.15;stroke-dasharray:none"
         d="m 140.0731,101.16643 -0.59841,1.3069 c 0,0 1.43987,5.29529 1.50637,5.47254 0.0665,0.17725 0.86428,0.86416 1.48466,1.08572 0.62041,0.22157 0.48743,0.22188 0.709,0.4656 0.22156,0.24372 0.35476,1.0414 0.62064,1.61747 0.26587,0.57606 0.39871,0.95233 0.48731,1.81643 0.0886,0.8641 0.11058,1.86106 0.28783,2.10478 0.17725,0.24372 0.53189,0.88638 0.9307,1.46245 0.39882,0.57607 0.1328,0.90846 0.1328,1.44022 0,0.53175 0.0889,0.53162 0.26614,0.66456 0.17725,0.13294 0.33228,0.88624 0.33228,1.0635 0,0.17725 -0.44303,1.30734 -0.50953,1.46244 -0.0665,0.15509 -0.70933,0.70906 -0.82011,0.55397 -0.11078,-0.15509 -0.7307,-1.21853 -0.7307,-1.21853 0,0 -0.15555,1.50675 -0.51005,2.17145 -0.3545,0.66469 -0.57567,1.30689 -0.57567,1.30689 0,0 -0.53187,0.70913 -0.55397,0.93069 -0.0221,0.22157 -0.44345,0.95266 -0.82011,1.21854 -0.37666,0.26587 -1.59505,0.93085 -2.59209,0.99735 -0.99704,0.0665 -2.22064,-0.49661 -2.74609,-0.49661 -0.52545,0 -2.82923,0.283 -3.59719,0.3638 -0.76797,0.0808 -4.4863,0.5657 -5.69888,0.80822 -1.21257,0.24251 0.0808,1.13177 0.76791,2.42518 0.68712,1.29341 1.1719,2.34467 1.77819,3.79976 0.60629,1.45509 1.37453,2.26329 1.21285,3.43545 -0.16167,1.17215 -0.92981,3.27387 -1.25316,6.02237 -0.32335,2.74851 -0.4446,4.2035 -0.56586,5.09272 -0.12125,0.88922 -0.12117,4.68869 -0.40411,5.78001 -0.28293,1.09132 -2.91022,4.56743 -3.35483,5.78001 -0.44461,1.21257 -1.29337,4.52712 -1.33377,5.7397 -0.0404,1.21257 -0.16196,2.62722 -0.64699,4.6886 -0.48503,2.06138 -0.48469,2.99092 -0.68678,4.52685 -0.2021,1.53592 -0.64668,3.47607 -1.13171,5.05241 -0.48503,1.57635 -0.80874,6.02237 -0.80874,6.02237 0,0 1.94036,-5.05247 1.98076,-5.21415 0.0404,-0.16167 2.14199,-6.58823 2.14199,-6.58823 0,0 1.13205,-3.67836 1.21285,-4.04213 0.0808,-0.36378 1.25306,-4.48658 1.29346,-4.85035 0.0404,-0.36378 0.88883,-3.07165 0.88883,-3.07165 l 0.97048,-2.02106 c 0,0 0.92933,-0.8889 1.05059,-1.05058 0.12126,-0.16167 1.1722,-2.91031 1.29346,-3.51659 0.0389,-0.19474 0.10292,-0.58971 0.18655,-1.07228 -0.11863,-0.9065 -0.2148,-1.73243 -0.13384,-2.52853 0.12598,-1.23873 0.50383,-1.63777 0.67179,-2.16266 0.16797,-0.52488 0.546,-1.38565 0.86093,-1.97352 0.31494,-0.58787 0.0626,-1.61658 0.46147,-2.14147 0.39892,-0.52488 0.924,-2.05777 1.49087,-3.52744 0.56688,-1.46968 0.65106,-2.22557 1.32291,-4.47207 0.67184,-2.24651 -0.10537,-2.85545 -0.0424,-3.5693 0.063,-0.71384 0.84019,-0.46155 0.94516,-0.92345 0.10498,-0.4619 0.37794,-1.82703 0.39894,-2.47789 0.021,-0.65085 -0.50428,-2.0785 -0.60926,-2.70836 -0.10498,-0.62986 -0.62991,-1.11241 -0.231,-1.09141 0.39891,0.021 1.47018,0.2729 2.37298,0.3359 0.9028,0.063 1.99447,-0.3573 2.64532,-0.77721 0.65086,-0.41991 1.49066,-1.11248 1.63763,-1.72134 0.14697,-0.60887 0.10474,-0.3147 0.48266,-0.48266 0.37791,-0.16797 0.77699,-0.1264 1.09192,-0.27337 0.31494,-0.14696 0.58758,-0.6297 0.9865,-1.11259 0.3989,-0.48289 0.39899,-0.94488 0.46199,-1.19683 0.063,-0.25194 0.46217,-0.71373 0.48317,-1.34359 0.021,-0.62986 -0.12609,-0.90291 -0.12609,-1.02888 0,-0.12597 0.35694,-0.29368 0.39894,-0.6506 0.0285,-0.24213 0.0569,-0.37809 0.0264,-0.59118 -0.0307,-0.10365 -0.0528,-0.18197 -0.0605,-0.22014 -0.0404,-0.2021 -0.76765,-1.21266 -1.05058,-1.65727 -0.28294,-0.44462 -0.84895,-1.69778 -0.88935,-2.18281 -0.0404,-0.48503 -0.32368,-2.06136 -0.24288,-2.62723 0.0808,-0.56586 0.52555,-2.46535 0.52555,-3.07164 0,-0.60629 -0.36354,-0.52577 -0.64648,-1.0108 -0.28293,-0.48503 -1.25299,-1.73791 -1.49551,-2.10168 -0.24251,-0.36377 -1.49548,-1.94038 -1.69757,-3.27421 l 0.24649,-0.33022 z" />
      <path
         id="path222"
         style="fill:#b3b3b3;fill-opacity:1;stroke:none;stroke-width:0.15;stroke-dasharray:none"
         d="m 100.71943,171.07276 c -0.038,0.003 -0.0671,0.0369 -0.0847,0.10749 -0.13294,0.53176 -2.3e-4,2.61482 0.0884,3.85558 0.0886,1.24076 0.75357,5.05136 0.79789,6.46937 0.0443,1.41802 0.70862,3.45663 0.0439,3.81114 -0.66469,0.3545 -1.3291,0.48717 -2.569869,0.26561 -1.240758,-0.22157 -3.057691,0.48784 -3.589445,-0.57567 -0.531755,-1.06351 -0.487439,-1.81708 -0.709001,-2.39314 -0.221565,-0.57607 -0.930432,-2.70281 -1.196309,-3.10162 -0.265877,-0.39882 -2.659141,0.44285 -2.260327,1.68362 0.398817,1.24075 0.265879,4.07688 -0.3545,4.1212 -0.421609,0.0301 -1.82536,-0.51267 -2.765206,-0.5855 0.05207,0.41451 0.08733,0.85744 0.08733,1.41232 0,1.41714 0.76597,0.99581 1.340486,1.64693 0.574517,0.65112 1.493617,0.19151 3.676779,0.65112 2.183162,0.45961 3.294137,1.3791 4.749581,2.45153 0.494978,0.36472 0.852641,0.56081 1.1498,0.68678 0.09488,-1.70921 0.905221,-2.92308 1.466061,-3.02824 0.709,-0.13293 2.7032,-1.7725 2.7032,-1.7725 0,0 -1.10795,-4.43163 -0.75345,-5.62808 0.3545,-1.19645 -0.44338,-4.29817 -0.44338,-5.09581 0,-0.79763 -0.26548,-1.72806 -0.39842,-2.79156 -0.11529,-0.92227 -0.7307,-2.21127 -0.97876,-2.19057 z" />
      <path
         id="path215"
         style="fill:#000000;fill-opacity:1;stroke:none;stroke-width:0.15;stroke-dasharray:none"
         d="m 129.25309,86.439168 c -0.38561,0.008 -0.77998,0.140716 -1.20251,0.397909 -0.96579,0.587872 -2.72896,3.085999 -3.56877,4.429704 -0.83982,1.343703 -1.8899,3.170159 -2.3518,3.884 -0.46189,0.713843 -0.14822,1.373001 -0.68988,2.239657 -0.54166,0.866656 -1.73319,1.462639 -2.59984,2.762622 -0.86666,1.29998 -1.40838,2.65411 -2.11253,4.44159 -0.70416,1.78747 -2.16694,5.30822 -3.14193,7.69152 -0.97499,2.3833 -3.14142,4.92905 -4.9289,6.49986 -0.13,0.11425 -0.25318,0.22678 -0.37052,0.34003 0.72385,-0.15005 1.5734,-0.51189 2.40399,-0.96738 1.18734,-0.65112 2.68077,-2.37442 3.14038,-3.10214 0.45962,-0.72772 1.68508,-2.41284 2.71921,-3.67678 1.03413,-1.26394 0.95776,-0.65124 1.49397,0.0765 0.53622,0.72772 0.3832,2.03012 0.5364,2.83445 0.1532,0.80432 1.34059,1.60851 2.25981,2.37453 0.91923,0.76602 2.06824,0.26789 2.94917,0.4594 0.88092,0.1915 2.06795,0.9193 3.14038,1.26401 1.07243,0.34471 1.80008,-0.0766 2.98741,-0.30644 1.18734,-0.22981 1.6089,-0.53613 2.45153,-1.03405 0.84262,-0.49791 0.76601,0.0381 1.64693,0.45941 0.88093,0.42131 1.45545,-0.0767 1.95337,-0.30645 0.49791,-0.22981 0.61297,-0.84251 0.88108,-1.37872 0.26811,-0.53622 0.0763,-1.0722 0.84233,-1.45521 0.76602,-0.38301 0.88093,-0.49816 1.30225,-0.49816 0.42131,0 1.11092,1.0341 1.83864,0.9958 0.72772,-0.0383 0.19144,-0.53591 0.0382,-0.84232 -0.15321,-0.30641 -0.26808,-1.37904 -0.34468,-2.48977 -0.0766,-1.11074 -0.19171,-1.22531 0.45941,-1.83813 0.65112,-0.61281 0.84269,-1.57073 0.61288,-2.37505 -0.22981,-0.80433 -0.80436,-2.25943 -0.95757,-2.83394 -0.1532,-0.57452 -0.80399,-1.60869 -0.53588,-2.25981 0.2681,-0.65112 0.49777,0.0383 1.72341,0.30644 1.22563,0.26811 1.60835,3.10196 2.14457,3.86798 0.53621,0.76602 1.26422,1.34098 1.45573,1.68569 0.19151,0.34471 -0.30656,1.72332 -0.22996,2.10633 0.0766,0.38301 0.0385,3.67714 -0.11473,4.09846 -0.1532,0.42131 0.38293,0.30592 0.38293,0.30592 0,0 0.95735,-0.42122 1.41696,-0.38292 0.0562,0.005 0.12994,0.0197 0.21911,0.0424 -0.0522,-0.64906 -0.27456,-1.17764 -0.3669,-1.65778 -0.10498,-0.54588 -0.41985,-1.11276 -0.50385,-1.46968 -0.084,-0.35692 0.0209,-0.52527 0.27286,-0.77722 0.25195,-0.25194 0.0627,-0.58769 0.0207,-1.28054 -0.042,-0.69284 -0.16785,-0.90297 -0.60875,-1.82676 -0.44091,-0.9238 -0.96554,-0.94453 -1.38545,-1.55339 -0.4199,-0.60887 -0.31495,-1.15498 -0.56689,-1.88981 -0.25195,-0.73484 -0.4829,-1.23856 -0.73484,-1.84743 -0.25194,-0.60886 -0.92415,-0.94463 -1.11311,-1.28055 -0.18897,-0.33593 -0.14671,-0.35687 -0.0837,-1.238679 0.063,-0.881806 0.52507,-2.267535 0.75602,-3.338298 0.23095,-1.070764 0.46145,-1.99468 0.79737,-3.065446 0.33594,-1.070764 0.35704,-2.309317 0.29404,-2.750219 -0.063,-0.440904 -0.58787,-1.553779 -0.73484,-1.595769 -0.14697,-0.04199 -0.54567,0.167669 -0.8816,0.419613 -0.33592,0.251944 -1.46969,1.490819 -2.03657,1.99471 -0.56687,0.503888 -1.59561,1.30157 -1.97352,1.679484 -0.37792,0.377918 -1.13381,0.944926 -1.53272,1.42782 -0.39892,0.482894 -1.32261,1.154881 -1.91048,1.42782 -0.58787,0.272941 -1.19695,0.776565 -1.32292,0.818555 -0.12597,0.04199 -0.0839,0.10508 -0.33589,-1.175639 -0.25192,-1.280718 -0.2939,-1.385786 -0.3359,-2.666504 -0.042,-1.280719 -0.52469,-3.233024 -0.71365,-3.75791 -0.18895,-0.524883 -0.46198,-1.112921 -1.36478,-1.826762 -0.50782,-0.401537 -0.98939,-0.596861 -1.48518,-0.586528 z" />
      <path
         id="path213"
         style="fill:#666666;fill-opacity:1;stroke:none;stroke-width:0.15;stroke-dasharray:none"
         d="m 134.62072,95.729557 c -0.40875,0.219343 -0.80142,0.514627 -1.00717,0.651123 0.0286,0.477175 0.0574,0.981919 0.0574,1.24902 0,0.536215 0.84246,1.569962 1.41697,1.876371 0.57452,0.306409 3.17931,1.110829 3.71553,1.570449 0.53621,0.45961 1.30192,1.22557 1.83813,0.68936 0.53622,-0.53622 0.72782,0.5745 1.57045,2.29805 0.84262,1.72355 0.99562,2.33636 1.76165,2.94918 0.76602,0.61282 1.60909,1.83836 1.68569,1.68516 0.0396,-0.0793 0.36629,-0.30166 0.66714,-0.57257 -0.0913,-0.22621 -0.22186,-0.49001 -0.40876,-0.8816 -0.44091,-0.9238 -0.96554,-0.94453 -1.38545,-1.55339 -0.4199,-0.60887 -0.31495,-1.15498 -0.56689,-1.88981 -0.19628,-0.57247 -0.37986,-1.00476 -0.57051,-1.45573 -0.54966,-0.49931 -1.17145,-1.00005 -1.52755,-1.61333 -0.68942,-1.18734 -1.53231,-0.49768 -3.10265,-0.804089 -1.57035,-0.306409 -2.48929,-0.843062 -3.44682,-1.685686 -0.75863,-0.667595 -0.60374,-1.022362 -0.69712,-2.512508 z" />
      <g
         id="g213">
        <path
           style="fill:#ffffff;fill-opacity:1;stroke:none;stroke-width:0.15;stroke-dasharray:none"
           d="m 149.94893,122.08807 c -0.4829,-1.17574 -0.35692,-1.59564 -1.04977,-1.72162 -0.69285,-0.12597 -1.99456,0 -1.99456,0 0,0 -0.25194,0.14697 0.10498,0.14697 0.35692,0 1.59564,-0.084 1.91058,0.063 0.31493,0.14696 1.02877,1.51166 1.02877,1.51166 z"
           id="path205" />
        <path
           style="fill:#ffffff;fill-opacity:1;stroke:none;stroke-width:0.15;stroke-dasharray:none"
           d="m 146.50569,121.79414 c 0.71384,0.56687 2.2675,1.30171 2.7294,1.86859 0.46189,0.56687 1.51166,2.2465 1.72162,3.08631 0.20995,0.83982 0.73483,3.14931 0.83981,3.75818 0.10498,0.60886 0.25194,2.07854 0.25194,2.07854 0,0 -0.65085,-3.94713 -0.96578,-4.74496 -0.31493,-0.79782 -1.3857,-3.29627 -1.86859,-3.80016 -0.48289,-0.50389 -2.43546,-1.91058 -2.43546,-1.91058 z"
           id="path206" />
        <path
           style="fill:#ffffff;fill-opacity:1;stroke:none;stroke-width:0.15;stroke-dasharray:none"
           d="m 151.27164,132.18685 c -0.60887,-2.54044 -2.05755,-4.9969 -2.56144,-5.77373 -0.50389,-0.77683 -2.62442,-3.25428 -2.62442,-3.25428 0,0 -0.35692,-0.27294 0,0.23095 0.35692,0.50388 1.84759,2.03655 2.79238,3.67418 0.9448,1.63764 2.39348,5.12288 2.39348,5.12288 z"
           id="path207" />
        <path
           style="fill:#ffffff;fill-opacity:1;stroke:none;stroke-width:0.15;stroke-dasharray:none"
           d="m 147.38749,135.44113 c 0.37792,-2.98134 0.27294,-5.96269 0,-7.24341 -0.27294,-1.28071 -1.09176,-3.04432 -1.23872,-3.25428 -0.14697,-0.20995 -0.71385,-0.94479 -0.71385,-0.94479 0,0 -0.37791,-0.20995 -0.20995,0.10498 0.16796,0.31493 0.79782,0.96579 1.42769,2.56143 0.62986,1.59565 1.00777,3.6532 0.96578,4.61898 -0.042,0.96579 -0.23095,4.15709 -0.23095,4.15709 z"
           id="path208" />
      </g>
      <path
         style="fill:#808080;fill-opacity:1;stroke:none;stroke-width:0.15;stroke-dasharray:none"
         d="m 145.18297,121.97322 c -0.0814,0.30925 -0.2767,0.7487 -0.45574,1.0254 -0.17903,0.27669 -0.14648,0.63477 -0.34179,0.81381 -0.19532,0.17903 -0.37435,0.21159 -0.73243,0.35807 -0.35807,0.14648 -0.8138,0.14648 -1.00912,0.27669 -0.19531,0.13021 -0.96029,0.0326 -1.22071,0.32552 -0.26041,0.29298 -0.37435,0.40691 -1.17188,0.37436 -0.79753,-0.0326 -1.05794,-0.19532 -1.4974,-0.42318 -0.43945,-0.22787 -1.10677,-0.42318 -1.44857,-0.60222 -0.3418,-0.17904 -1.12306,-0.71615 -1.64389,-0.94401 -0.52084,-0.22787 -1.0254,-0.84636 -1.20444,-0.96029 -0.17903,-0.11394 -0.32552,-0.56967 0.0651,-0.3418 0.39063,0.22786 1.46485,0.78125 1.93686,1.07422 0.472,0.29297 0.68359,0.52084 1.57878,0.6836 0.89519,0.16276 1.82293,0.29297 2.60418,0.37435 0.78125,0.0814 1.20443,0.0163 1.56251,-0.0163 0.35807,-0.0326 0.94401,-0.21159 1.22071,-0.35808 0.27669,-0.14648 0.53711,-0.4069 0.7487,-0.61849 0.21159,-0.21159 0.37435,-0.79753 0.48828,-0.91146 0.11393,-0.11394 0.4069,-0.47201 0.4069,-0.47201 z"
         id="path188" />
      <path
         style="fill:#b38e82;fill-opacity:1;stroke:none;stroke-width:0.15;stroke-dasharray:none"
         d="m 143.47398,118.68545 c 0.21159,-0.11394 0.55338,0.0488 0.76497,0.0814 0.21159,0.0326 0.76498,-0.0326 0.91146,-0.0977 0.14649,-0.0651 0.32553,-0.21159 0.69988,-0.0488 0.37435,0.16276 0.472,0.21159 0.472,0.21159 0,0 0.6185,-0.11393 0.6836,-0.0326 0.0651,0.0814 -0.42318,0.43946 -0.4069,0.71615 0.0163,0.27669 -0.13021,0.97657 -0.26042,1.18816 -0.13021,0.21159 -0.60221,0.78125 -0.71615,0.89518 -0.11393,0.11394 -0.50456,0.43946 -0.53711,0.2767 -0.0325,-0.16276 -0.0977,-1.20444 -0.22787,-1.39975 -0.13021,-0.19531 -0.55338,-0.60221 -0.55338,-0.60221 0,0 -0.53711,-0.50457 -0.60222,-0.65105 -0.0651,-0.14649 -0.22786,-0.53711 -0.22786,-0.53711 z"
         id="path187" />
      <path
         style="fill:#524035;fill-opacity:1;stroke:none;stroke-width:0.15;stroke-dasharray:none"
         d="m 124.55456,92.352915 c 0.67707,-0.812491 0.86666,-1.54373 1.67914,-2.491635 0.81249,-0.947901 1.67915,-2.193718 2.7083,-2.247884 1.02916,-0.05417 1.73331,0.352079 2.11247,1.381231 0.37916,1.029153 0.4875,3.168706 0.64999,4.035362 0.1625,0.866655 0.13542,1.489561 0.24375,2.464548 0.10833,0.974987 0.70416,1.056238 -0.10833,1.922891 -0.81249,0.866656 -2.11247,1.083318 -2.11247,1.652061 0,0.568743 1.81456,1.652061 1.00207,2.058301 -0.81249,0.40625 -3.41246,-0.37916 -3.8187,0.0271 -0.40625,0.40624 -1.70623,1.1104 -1.29998,1.81456 0.40624,0.70415 1.65206,2.30205 0.59582,2.30205 -1.05623,0 -2.2208,-1.35415 -2.2208,-2.19372 0,-0.83957 0.1625,-2.68122 -0.67708,-2.68122 -0.83957,0 -1.02915,1.13749 -1.05623,0.43333 -0.0271,-0.70416 -0.46041,-2.356216 -0.27083,-2.95204 0.18958,-0.595825 1.13748,-2.789547 1.19165,-3.114542 0.0542,-0.324996 1.38123,-2.410383 1.38123,-2.410383 z"
         id="path174" />
      <path
         style="fill:#787471;fill-opacity:1;stroke:none;stroke-width:0.15;stroke-dasharray:none"
         d="m 130.94614,90.56544 c 0.18958,0.514575 0.40625,1.814557 0.43333,2.166636 0.0271,0.352078 0.18958,1.002069 0.1625,1.652061 -0.0271,0.649991 0.24374,1.706226 0.0542,2.004139 -0.18958,0.297913 -0.32499,0.433327 -1.1104,0.649991 -0.7854,0.216665 -1.4354,0.162499 -1.51664,0.73124 -0.0813,0.568743 -0.27083,0.947904 -0.13542,1.299982 0.13542,0.352079 1.08332,0.73124 0.48749,1.029151 -0.59582,0.29791 -1.16456,0.37916 -1.65206,0.35208 -0.48749,-0.0271 -0.56874,-0.27083 -0.24374,-0.812488 0.32499,-0.54166 -0.10834,-0.920821 -0.78541,-0.893738 -0.67708,0.02708 -0.54166,-0.622909 -1.19165,-0.758323 -0.64999,-0.135413 0.59582,-0.595825 1.24582,-0.81249 0.64999,-0.216662 1.84164,0.135416 1.62497,-0.514575 -0.21666,-0.649991 -1.16456,-0.622908 -1.51664,-0.785405 -0.35208,-0.162499 0.13541,-0.460412 0.37916,-0.920821 0.24375,-0.460412 0.59582,-0.704157 0.0812,-1.218735 -0.51458,-0.514575 -0.325,-0.704156 0.0812,-0.974987 0.40624,-0.27083 0.70415,-1.056235 1.67914,-0.974987 0.97499,0.08125 1.00207,0.270831 1.4354,-0.162496 0.43332,-0.433329 -0.0542,-0.677074 0.0542,-0.920821 0.10833,-0.243748 0.43333,-0.135414 0.43333,-0.135414 z"
         id="path175" />
      <path
         style="fill:#716444;fill-opacity:1;stroke:none;stroke-width:0.15;stroke-dasharray:none"
         d="m 134.91624,110.98152 c -0.042,-0.60886 -0.18896,-0.9028 0.27294,-1.25972 0.4619,-0.35692 1.59565,-0.88181 2.41447,-0.75583 0.81882,0.12597 1.17574,0.71384 1.3437,1.3647 0.16797,0.65085 0.063,1.86858 -0.4409,2.35148 -0.50389,0.48289 -0.9028,0.83981 -1.40669,0.81882 -0.50389,-0.021 -1.09176,-0.54588 -1.3647,-0.9238 -0.27294,-0.37792 -0.81882,-1.59565 -0.81882,-1.59565 z"
         id="path176" />
      <path
         style="fill:#4d4e3e;fill-opacity:1;stroke:none;stroke-width:0.15;stroke-dasharray:none"
         d="m 137.8346,109.59583 c 0.37792,0.65086 0.4409,1.19673 0.4619,1.49067 0.021,0.29394 0.20995,0.56687 -0.23095,0.94479 -0.4409,0.37792 -1.11275,1.00778 -1.3437,0.96579 -0.23095,-0.042 -1.00778,-0.48289 -1.00778,-0.71384 0,-0.23095 -0.20996,-1.32271 -0.042,-1.53267 0.16796,-0.20995 0.37791,-1.07076 0.77683,-1.17574 0.39891,-0.10497 0.71384,-0.31493 0.98678,-0.25194 0.27294,0.063 0.39891,0.27294 0.39891,0.27294 z"
         id="path177" />
      <path
         style="fill:#161616;fill-opacity:1;stroke:none;stroke-width:0.15;stroke-dasharray:none"
         d="m 137.72962,110.26768 c 0.10498,0.52488 0.25195,1.07076 -0.021,1.40669 -0.27294,0.33592 -0.56687,0.58787 -0.75583,0.65086 -0.18896,0.063 -0.4829,0.33592 -0.62986,-0.29394 -0.14697,-0.62986 -0.084,-1.13375 -0.021,-1.44868 0.063,-0.31493 0.27294,-0.75583 0.4409,-0.81882 0.16796,-0.063 0.50389,-0.12597 0.67185,0 0.16796,0.12597 0.31493,0.50389 0.31493,0.50389 z"
         id="path178" />
      <path
         style="fill:#ffffff;fill-opacity:1;stroke:none;stroke-width:0.15;stroke-dasharray:none"
         d="m 138.63242,110.60361 c 0,0.46189 -0.084,0.62986 -0.18895,0.54588 -0.10498,-0.084 -0.39892,-0.27294 -0.23095,-0.4619 0.16796,-0.18896 0.4199,-0.084 0.4199,-0.084 z"
         id="path179" />
      <path
         style="fill:#ffffff;fill-opacity:1;stroke:none;stroke-width:0.15;stroke-dasharray:none"
         d="m 136.44891,109.95275 c -0.10498,0.23095 -0.18896,0.37792 -0.27294,0.25194 -0.084,-0.12597 -0.41991,-0.23095 -0.16797,-0.37791 0.25195,-0.14697 0.44091,0.12597 0.44091,0.12597 z"
         id="path180" />
      <path
         style="fill:#b1bec6;fill-opacity:1;stroke:none;stroke-width:0.15;stroke-dasharray:none"
         d="m 145.28796,110.01574 c 0.62986,0.46189 0.71384,0.79782 0.83981,1.28071 0.12597,0.4829 -0.021,1.28072 -0.10498,1.59565 -0.084,0.31493 -0.4619,0.73484 -0.60886,0.9028 -0.14697,0.16796 -0.27294,0.35692 -0.33593,0.23095 -0.063,-0.12597 -0.042,-1.11275 -0.063,-1.32271 -0.021,-0.20995 -0.14697,-0.98678 -0.14697,-1.21773 0,-0.23095 0.14697,-1.09176 0.14697,-1.09176 z"
         id="path181" />
      <path
         style="fill:#181818;fill-opacity:1;stroke:none;stroke-width:0.15;stroke-dasharray:none"
         d="m 144.95203,112.40921 c -0.021,-0.25195 -0.20995,-0.9238 -0.084,-1.00778 0.12597,-0.084 0.10497,-0.12597 0.18896,0 0.084,0.12597 0.063,0.54588 0.063,0.54588 0,0 0.042,0.23095 0,0.35692 -0.042,0.12597 -0.16796,0.10498 -0.16796,0.10498 z"
         id="path182" />
      <path
         style="fill:#ffffff;fill-opacity:1;stroke:none;stroke-width:0.15;stroke-dasharray:none"
         d="m 146.14877,111.80034 c -0.56688,0.20995 -0.79783,0.4619 -0.83982,0.14697 -0.042,-0.31493 0.14697,-0.4409 0.31493,-0.50389 0.16796,-0.063 0.41096,-0.21467 0.43195,-0.0677 0.021,0.14697 0.0929,0.42462 0.0929,0.42462 z"
         id="path183" />
      <path
         style="fill:#905f52;fill-opacity:1;stroke:none;stroke-width:0.15;stroke-dasharray:none"
         d="m 144.69468,120.06892 c 0.32553,0.3418 0.2767,0.472 0.35808,0.61849 0.0814,0.14648 -0.2767,0.45573 0.0814,0.39063 0.35807,-0.0651 0.47201,0 0.50456,-0.29297 0.0325,-0.29297 0.16276,-0.58594 0.22787,-0.66732 0.0651,-0.0814 0.34179,-0.63477 0.34179,-0.37435 0,0.26041 -0.13021,0.68359 -0.24414,0.89518 -0.11393,0.21159 -0.42318,0.58594 -0.56966,0.78126 -0.14649,0.19531 -0.17904,0.39062 -0.26042,0.52083 -0.0814,0.13021 -0.14649,-0.13021 -0.14649,-0.35807 0,-0.22787 -0.0814,-0.58594 -0.14648,-0.74871 -0.0651,-0.16276 -0.14649,-0.76497 -0.14649,-0.76497 z"
         id="path186" />
      <path
         style="fill:#211312;fill-opacity:1;stroke:none;stroke-width:0.15;stroke-dasharray:none"
         d="m 143.84833,118.84821 c 0.45573,0.26042 0.52083,0.37435 0.66732,0.50456 0.14648,0.13021 0.14648,0.16276 0.16276,0.30925 0.0163,0.14648 0.22786,0.53711 0.0163,0.53711 -0.21159,0 -0.53711,-0.45573 -0.6836,-0.63477 -0.14648,-0.17904 -0.56966,-0.3418 -0.56966,-0.47201 0,-0.13021 -0.0814,-0.19531 0,-0.22787 0.0814,-0.0326 0.4069,-0.0163 0.4069,-0.0163 z"
         id="path184" />
      <path
         style="fill:#5b2622;fill-opacity:1;stroke:none;stroke-width:0.15;stroke-dasharray:none"
         d="m 144.32033,119.25511 c 0.19532,0 0.52084,0.0326 0.71615,-0.0488 0.19532,-0.0814 0.22787,-0.0163 0.30925,0.0488 0.0814,0.0651 0.16276,0.17904 -0.0163,0.3418 -0.17904,0.16276 -0.30925,0.13021 -0.47201,0.17904 -0.16276,0.0488 -0.16276,0.16276 -0.2767,0.11393 -0.11393,-0.0488 -0.3418,-0.48828 -0.3418,-0.48828 z"
         id="path185" />
      <path
         style="fill:#808080;fill-opacity:1;stroke:none;stroke-width:0.15;stroke-dasharray:none"
         d="m 139.61654,119.02725 c -0.2767,0.0163 -0.66733,-0.14649 -0.3418,-0.22787 0.32552,-0.0814 0.45573,-0.11393 0.55339,-0.0326 0.0977,0.0814 -0.21159,0.26042 -0.21159,0.26042 z"
         id="path189" />
      <path
         style="fill:#808080;fill-opacity:1;stroke:none;stroke-width:0.15;stroke-dasharray:none"
         d="m 141.03256,119.04352 c -0.43946,-0.0326 -0.39063,-0.24414 -0.24415,-0.29297 0.14649,-0.0488 0.55339,-0.13021 0.48829,0.0163 -0.0651,0.14649 -0.24414,0.2767 -0.24414,0.2767 z"
         id="path190" />
      <path
         style="fill:#808080;fill-opacity:1;stroke:none;stroke-width:0.15;stroke-dasharray:none"
         d="m 137.54947,119.7434 c -0.69988,-0.13021 -1.00912,-0.48829 -0.56967,-0.43946 0.43946,0.0488 1.18816,-0.0163 0.91147,0.17904 -0.2767,0.19531 -0.48829,0.26042 -0.48829,0.26042 l 0.0163,-0.0163 z"
         id="path191" />
      <path
         style="fill:#808080;fill-opacity:1;stroke:none;stroke-width:0.15;stroke-dasharray:none"
         d="m 138.49348,119.85733 c -0.13021,-0.0977 0.0814,-0.29297 0.24414,-0.24414 0.16277,0.0488 0.40691,0.11393 0.22787,0.19531 -0.17904,0.0814 -0.47201,0.0488 -0.47201,0.0488 z"
         id="path192" />
      <path
         style="fill:#808080;fill-opacity:1;stroke:none;stroke-width:0.15;stroke-dasharray:none"
         d="m 139.73047,119.85733 c -0.17904,-0.0814 -0.17904,-0.26042 0.0488,-0.24414 0.22786,0.0163 0.66732,-0.0163 0.4069,0.14648 -0.26042,0.16276 -0.58594,0.0977 -0.58594,0.0977 z"
         id="path193" />
      <path
         style="fill:#808080;fill-opacity:1;stroke:none;stroke-width:0.15;stroke-dasharray:none"
         d="m 140.78841,119.7434 c 0,0 0.32553,-0.19532 0.39063,-0.0977 0.0651,0.0977 0.26042,0.24414 -0.0325,0.26042 -0.29297,0.0163 -0.35808,-0.16276 -0.35808,-0.16276 z"
         id="path194" />
      <path
         style="fill:#808080;fill-opacity:1;stroke:none;stroke-width:0.15;stroke-dasharray:none"
         d="m 141.91147,119.98754 c 0.16276,-0.0488 0.39062,-0.0163 0.35807,0.0488 -0.0326,0.0651 -0.32552,0.472 -0.4069,0.26041 -0.0814,-0.21158 0.0488,-0.30924 0.0488,-0.30924 z"
         id="path195" />
      <path
         style="fill:#808080;fill-opacity:1;stroke:none;stroke-width:0.15;stroke-dasharray:none"
         d="m 142.83921,121.33845 c -0.2767,0.0977 -0.6836,-0.0488 -0.71615,0.0326 -0.0326,0.0814 -0.30925,-0.21159 -0.42318,-0.17904 -0.11393,0.0326 -0.0814,0.0814 -0.32552,0.17904 -0.24415,0.0977 -0.71615,-0.0488 -0.55339,-0.14649 0.16276,-0.0977 0.50456,-0.43945 0.71615,-0.3418 0.21159,0.0977 0.45573,0.24414 0.53711,0.24414 0.0814,0 0.29297,-0.0814 0.4069,-0.0326 0.11393,0.0488 0.35808,0.24414 0.35808,0.24414 z"
         id="path196" />
      <path
         style="fill:#808080;fill-opacity:1;stroke:none;stroke-width:0.15;stroke-dasharray:none"
         d="m 140.21875,121.15942 c -0.3418,0 0.0325,-0.22787 -0.58594,-0.16276 -0.61849,0.0651 -1.38347,0.29297 -1.36719,0.0488 0.0163,-0.24414 0.68359,-0.35807 0.79753,-0.32552 0.11393,0.0326 0.79753,-0.0326 0.89518,0.0163 0.0977,0.0488 0.2767,0.14649 0.2767,0.14649 z"
         id="path197" />
      <path
         style="fill:#808080;fill-opacity:1;stroke:none;stroke-width:0.15;stroke-dasharray:none"
         d="m 143.39259,122.28247 c -0.35807,0.16276 -0.42318,0.65104 -0.84636,0.66732 -0.42317,0.0163 -1.1556,0.16276 -1.51367,-0.14649 -0.35808,-0.30924 -0.21159,-0.48828 -0.65105,-0.45573 -0.43945,0.0326 -1.44857,-0.0326 -1.67644,-0.16276 -0.22786,-0.1302 0.61849,-0.30924 0.76498,-0.30924 0.14649,0 0.66732,0.0814 1.0905,0.19531 0.42318,0.11393 0.47201,0.37435 0.73243,0.4069 0.26041,0.0326 0.58594,0.14649 0.83008,0.11394 0.24414,-0.0326 0.37435,-0.16277 0.48828,-0.22787 0.11393,-0.0651 0.78125,-0.0814 0.78125,-0.0814 z"
         id="path198" />
      <path
         style="fill:#666666;fill-opacity:1;stroke:none;stroke-width:0.15;stroke-dasharray:none"
         d="m 132.82821,109.96245 c 0.68942,0.57452 1.45544,1.22564 1.80015,1.68525 0.34471,0.45961 1.53204,1.72355 1.80015,2.06826 0.26811,0.34471 0.95753,0.38301 0.91923,0.76602 -0.0383,0.38301 0.3064,1.60865 -0.38301,1.49374 -0.68942,-0.1149 -1.18734,-1.49374 -1.95336,-2.33636 -0.76602,-0.84263 -1.34054,-1.03413 -1.72355,-1.53205 -0.38301,-0.49791 -0.68942,-0.91922 -0.76602,-1.30223 -0.0766,-0.38302 0.30641,-0.84263 0.30641,-0.84263 z"
         id="path214" />
      <path
         id="path216"
         style="fill:#000000;fill-opacity:1;stroke:none;stroke-width:0.15;stroke-dasharray:none"
         d="m 131.51549,152.43669 c -0.7182,0.46379 -0.51054,1.01919 -0.75913,1.66553 -0.27083,0.70416 -0.37885,2.38304 -0.43305,2.81637 -0.0542,0.43332 -0.92064,2.27494 -1.08314,2.6541 -0.16249,0.37916 -0.81282,1.9499 -1.08365,2.32906 -0.27083,0.37916 -0.43309,0.43366 -0.75809,1.08365 -0.32499,0.64999 -0.21691,0.92093 -1.0294,2.43758 -0.81249,1.51664 -1.94994,0.81226 -2.6541,1.35392 -0.70419,0.54165 -0.65008,1.30023 -0.0543,1.62522 0.59583,0.325 2.00407,-4.7e-4 2.92489,-0.2713 0.92082,-0.27083 1.0836,-1.51646 1.35443,-2.27479 0.27083,-0.75832 0.81236,-3.35832 0.81236,-4.17081 0,-0.81249 0.65019,-1.84141 1.89601,-1.94975 0.56715,-0.0493 1.21298,0.0472 1.74821,0.23358 -0.23092,-1.29539 -0.43588,-2.62151 -0.53485,-3.67058 -0.13802,-1.46302 -0.4099,-2.69977 -0.34623,-3.86178 z m 1.40301,10.14718 c -0.18842,0.52335 -0.34285,1.16383 -0.32039,1.97198 0.0542,1.94998 0.27072,2.2212 0.21652,3.19618 -0.0542,0.97499 -0.32486,1.57064 -0.81235,2.2748 -0.4875,0.70416 -2.38332,4.17087 -1.78749,4.22507 0.46427,0.0422 1.84924,-0.77091 3.64267,-1.59319 0.0183,-0.0779 0.0333,-0.15383 0.0434,-0.22737 0.15321,-1.11073 0.45936,-3.8683 0.15296,-5.63015 -0.26321,-1.51347 -0.7714,-2.76518 -1.13533,-4.21732 z" />
      <path
         id="path217"
         style="fill:#000000;fill-opacity:1;stroke:none;stroke-width:0.15;stroke-dasharray:none"
         d="m 132.80946,179.24642 c -0.11408,0.98617 -0.62083,2.47255 -0.75292,3.39721 -0.13974,0.9782 -0.41903,1.39735 -1.4671,2.7249 -0.3889,0.49261 -0.65268,0.85047 -0.85214,1.14153 0.95829,-0.15798 2.37674,-0.18483 4.12481,-0.13694 2.79598,0.0766 3.83027,0.0764 5.78363,0.11472 1.95335,0.0383 3.25553,0.72794 4.94078,0.84284 1.68525,0.1149 7.54524,0.61277 10.18801,0.68937 2.64277,0.0766 5.47733,0.34456 7.35408,0.42116 1.87675,0.0766 5.43899,-0.22968 7.04763,-0.7276 1.60865,-0.49791 2.14472,-2.14461 2.37453,-3.10214 0.22981,-0.95753 0.11503,-2.18348 -0.0765,-3.06441 -0.19151,-0.88092 -2.26009,-1.30203 -2.41329,-1.11053 -0.15321,0.19151 -0.7657,2.18294 -1.18701,2.75746 -0.42132,0.57452 -1.57054,0.38292 -3.14089,0.38292 -1.57034,0 -3.67718,-0.61253 -5.05602,-0.84233 -1.37884,-0.22981 -4.7876,-1.03419 -6.89416,-1.264 -2.10656,-0.2298 -5.97469,-0.76591 -8.34936,-1.37873 -2.37466,-0.61281 -7.43026,-0.8429 -8.924,-0.8046 -0.92269,0.0237 -2.00655,-0.0108 -2.7001,-0.0408 z" />
      <path
         style="fill:#b3b3b3;fill-opacity:1;stroke:none;stroke-width:0.15;stroke-dasharray:none"
         d="m 115.2863,171.39741 c -0.65111,1.99166 -1.03412,2.64278 -1.03412,3.71521 0,1.07243 -0.57452,3.17899 -0.53622,5.01744 0.0383,1.83846 0.38301,2.71938 -0.0383,3.67691 -0.42131,0.95753 -1.14903,2.06826 -0.91923,2.83428 0.22981,0.76602 0.22981,1.57035 0.0766,2.41297 -0.15321,0.84262 -0.57452,2.06826 -0.65112,2.60448 -0.0766,0.53621 -0.34471,0.99582 -0.34471,-0.22981 0,-1.22564 -0.0383,-1.68525 0.0383,-2.48957 0.0766,-0.80433 0.53621,-1.76185 0.38301,-3.10239 -0.15321,-1.34054 -0.57452,-2.25977 -0.80432,-3.2939 -0.22981,-1.03413 -0.53622,-3.10239 -0.49792,-4.05991 0.0383,-0.95753 0.15321,-1.45545 0.11491,-2.83429 -0.0383,-1.37883 0.38301,-1.53204 0.45961,-2.48957 0.0766,-0.95752 -0.0383,-1.95335 0.45961,-2.41297 0.49792,-0.45961 0.76602,-1.91505 1.14903,-1.30223 0.38301,0.61281 1.53205,2.29806 1.53205,2.29806 z"
         id="path219" />
      <path
         style="fill:#b3b3b3;fill-opacity:1;stroke:none;stroke-width:0.15;stroke-dasharray:none"
         d="m 119.88244,193.80356 c -0.19151,-0.65112 -0.49792,-2.71938 -0.42131,-3.2556 0.0766,-0.53621 0.84262,-3.5237 0.95752,-4.32802 0.11491,-0.80432 0.53622,-1.83846 0.84263,-2.75768 0.3064,-0.91923 0.91922,-2.79598 1.53204,-3.79181 0.61282,-0.99583 1.22563,-3.67691 1.41714,-4.28972 0.19151,-0.61282 0.80432,-3.10239 0.99583,-3.562 0.19151,-0.45962 1.14903,-2.29807 1.30224,-2.68108 0.1532,-0.38301 1.37884,-0.84263 1.26393,0.1532 -0.1149,0.99583 -1.49374,1.99166 -1.57034,3.02579 -0.0766,1.03413 -1.26394,3.4088 -1.49374,4.09822 -0.22981,0.68942 -1.68525,3.29389 -1.80016,4.44292 -0.1149,1.14904 -0.88092,1.99166 -0.57451,2.94919 0.3064,0.95753 1.07243,1.26394 1.18733,2.29807 0.1149,1.03412 0.88093,2.37466 -0.1532,2.48957 -1.03413,0.1149 -2.33637,-0.11491 -2.71938,0.72772 -0.38301,0.84262 -0.57452,0.65112 -0.53622,1.60864 0.0383,0.95753 -0.1149,1.34054 0.22981,1.91506 0.34471,0.57452 0.88092,1.45544 1.07243,1.18733 0.19151,-0.26811 -0.42131,-1.11073 -0.0383,-1.37884 0.38301,-0.2681 0.88092,-0.45961 1.07243,0 0.1915,0.45962 0.0766,0.99583 0.0383,1.41714 -0.0383,0.42132 0,0.99583 0.19151,1.18734 0.1915,0.1915 -0.42132,0.30641 -0.57452,0.30641 -0.1532,0 -0.72772,-0.80433 -0.88093,-0.84263 -0.1532,-0.0383 -1.34053,-0.91922 -1.34053,-0.91922 z"
         id="path220" />
      <path
         id="path221"
         style="fill:#b3b3b3;fill-opacity:1;stroke:none;stroke-width:0.15;stroke-dasharray:none"
         d="m 117.79539,195.48729 c -0.12009,0.002 -0.08,1.40719 -0.24908,2.18488 -0.19151,0.88092 -0.49838,1.22537 -0.68988,1.79989 -0.19151,0.57452 -1.14903,-0.0381 -1.30224,-0.11472 -0.1532,-0.0766 0.46001,-1.30258 0.72812,-2.06861 0.26811,-0.76603 -0.42156,-0.34432 -0.49816,0.077 -0.0766,0.42131 -0.34463,1.60832 -1.03405,1.83813 -0.68942,0.22981 -0.80448,-0.22948 -0.88108,-0.53588 -0.0766,-0.30641 -0.26805,-0.0769 -0.68937,-0.15348 -0.42131,-0.0766 0.34484,-1.37873 0.57465,-2.02985 0.22981,-0.65112 -1.41697,1.34048 -1.41697,1.34048 0,0 0.075,0.57475 0.14418,1.23972 0.0262,-0.006 0.0541,-0.0111 0.0853,-0.0139 0.42131,-0.0383 1.07266,0.26789 1.49397,0.4594 0.42131,0.1915 0.88099,0.11518 1.264,0.15348 0.38301,0.0383 0.49765,0.2682 1.14877,0.2682 0.65112,0 0.95778,-0.42162 1.14928,-0.45992 0.0323,-0.006 0.10069,-0.0152 0.19379,-0.0258 0.0212,-0.31756 0.3421,-0.80194 0.3421,-1.42937 0,-0.91923 -0.11494,-1.99192 -0.30644,-2.45153 -0.0224,-0.0539 -0.0409,-0.0783 -0.0568,-0.078 z m 2.17351,0.29973 c -0.1648,0.0147 -0.17484,2.32326 -0.23977,2.84272 -0.0249,0.19884 -0.1506,0.41379 -0.32867,0.60564 0.10458,-0.0221 0.19179,-0.0456 0.25218,-0.0698 0.19509,-0.078 0.42974,-0.2357 0.65371,-0.46767 -0.005,-0.0908 -0.006,-0.17769 -0.003,-0.25993 0.0383,-0.91923 0.0382,-1.30205 -0.22996,-2.41278 -0.0408,-0.16921 -0.0753,-0.24087 -0.10491,-0.23822 z" />
      <path
         style="fill:none;fill-opacity:1;stroke:#000000;stroke-width:0.57688;stroke-dasharray:none"
         d="m 104.37775,127.56077 c 2.00414,-5.90409 2.49163,-7.20407 4.27911,-8.77488 1.78748,-1.57081 3.95411,-4.11661 4.9291,-6.49991 0.97499,-2.3833 2.43747,-5.90409 3.14163,-7.69156 0.70415,-1.78748 1.24581,-3.14163 2.11247,-4.44161 0.86665,-1.299983 2.0583,-1.895808 2.59996,-2.762464 0.54166,-0.866656 0.22815,-1.52549 0.69004,-2.239333 0.4619,-0.713841 1.51167,-2.540439 2.35149,-3.884142 0.83981,-1.343705 2.60342,-3.842152 3.56921,-4.430024 0.96578,-0.58787 1.7846,-0.524883 2.6874,0.18896 0.9028,0.713841 1.17575,1.301713 1.3647,1.826596 0.18896,0.524886 0.67185,2.477452 0.71385,3.758171 0.042,1.280718 0.084,1.385694 0.33592,2.666412 0.25195,1.280719 0.20996,1.217732 0.33593,1.17574 0.12597,-0.04199 0.73484,-0.545878 1.32271,-0.818819 0.58787,-0.272939 1.51166,-0.94479 1.91058,-1.427684 0.39891,-0.482894 1.15474,-1.049769 1.53266,-1.427687 0.37791,-0.377914 1.40669,-1.175739 1.97356,-1.679627 0.56688,-0.503891 1.70063,-1.742618 2.03655,-1.994562 0.33593,-0.251944 0.73484,-0.461899 0.88181,-0.419907 0.14697,0.04199 0.67185,1.154745 0.73484,1.595649 0.063,0.440902 0.042,1.679628 -0.29394,2.750392 -0.33592,1.070766 -0.56687,1.994561 -0.79782,3.065325 -0.23095,1.070763 -0.69285,2.456457 -0.75584,3.338263 -0.063,0.881811 -0.10497,0.902801 0.084,1.238731 0.18896,0.33592 0.86082,0.67185 1.11276,1.28071 0.25194,0.60887 0.48289,1.11276 0.73484,1.8476 0.25194,0.73483 0.14697,1.28071 0.56687,1.88958 0.41991,0.60886 0.94479,0.62986 1.3857,1.55366 0.4409,0.92379 0.56687,1.13375 0.60886,1.82659 0.042,0.69285 0.23095,1.02878 -0.021,1.28072 -0.25194,0.25195 -0.35692,0.41991 -0.27294,0.77683 0.084,0.35692 0.39891,0.9238 0.50389,1.46968 0.10498,0.54587 0.37792,1.15474 0.37792,1.93157 0,0.77683 -0.23095,2.14153 -0.27294,2.43546 -0.042,0.29394 0.18895,0.4619 0.33592,0.94479 0.14697,0.4829 0.10498,0.60887 0.063,0.96579 -0.042,0.35692 -0.39891,0.52489 -0.39891,0.65086 0,0.12597 0.14696,0.39891 0.12597,1.02877 -0.021,0.62986 -0.41991,1.09176 -0.48289,1.3437 -0.063,0.25195 -0.063,0.71385 -0.4619,1.19674 -0.39892,0.48289 -0.67185,0.96579 -0.98679,1.11275 -0.31493,0.14697 -0.71384,0.10498 -1.09175,0.27295 -0.37792,0.16796 -0.33593,-0.12598 -0.4829,0.48289 -0.14697,0.60886 -0.98678,1.30171 -1.63764,1.72162 -0.65085,0.41991 -1.74261,0.83981 -2.64541,0.77683 -0.9028,-0.063 -1.97357,-0.31493 -2.37248,-0.33593 -0.39891,-0.021 0.12597,0.4619 0.23095,1.09176 0.10498,0.62986 0.62986,2.05755 0.60886,2.7084 -0.021,0.65086 -0.29393,2.01556 -0.39891,2.47746 -0.10497,0.4619 -0.8818,0.20995 -0.94479,0.92379 -0.063,0.71385 0.71384,1.32271 0.042,3.56922 -0.67185,2.2465 -0.75583,3.00233 -1.32271,4.47201 -0.56687,1.46967 -1.09175,3.00234 -1.49067,3.52722 -0.39891,0.52489 -0.14696,1.55366 -0.4619,2.14153 -0.31493,0.58787 -0.69284,1.44868 -0.86081,1.97356 -0.16796,0.52489 -0.54587,0.9238 -0.67185,2.16253 -0.12597,1.23872 0.17744,2.55024 0.3259,4.12391 0.14846,1.57367 0.53446,3.77088 0.89076,5.55239 0.3563,1.78152 0.99479,3.18869 1.3012,4.95054 0.3064,1.76185 0,4.51953 -0.15321,5.63026 -0.1532,1.11074 -1.30224,2.75768 -1.49374,3.75351 -0.19151,0.99583 -0.30641,3.02579 -0.30641,3.02579 0,0 1.91506,0.1149 3.4088,0.0766 1.49374,-0.0383 6.54949,0.19151 8.92415,0.80432 2.37467,0.61282 6.24308,1.14904 8.34964,1.37884 2.10656,0.22981 5.51536,1.03413 6.8942,1.26394 1.37884,0.2298 3.4854,0.84262 5.05574,0.84262 1.57035,0 2.71938,0.19151 3.1407,-0.38301 0.42131,-0.57452 1.03412,-2.56617 1.18733,-2.75768 0.1532,-0.1915 2.22146,0.22981 2.41297,1.11073 0.19151,0.88093 0.30641,2.10656 0.0766,3.06409 -0.22981,0.95753 -0.76602,2.60448 -2.37467,3.10239 -1.60864,0.49792 -5.17065,0.80432 -7.0474,0.72772 -1.87675,-0.0766 -4.71104,-0.34471 -7.35381,-0.42131 -2.64277,-0.0766 -8.50284,-0.57452 -10.18809,-0.68942 -1.68525,-0.1149 -2.98749,-0.80432 -4.94084,-0.84262 -1.95336,-0.0383 -2.98749,-0.0383 -5.78347,-0.11491 -2.79598,-0.0766 -4.74934,0.0383 -5.32385,0.57452 -0.57452,0.53621 -0.61282,1.49374 -1.80015,1.95335 -1.18734,0.45962 -2.52788,-0.34471 -2.48958,0.26811 0.0383,0.61282 1.34054,1.22564 1.37885,2.06826 0.0383,0.84263 0.0766,1.99166 -0.0766,2.60448 -0.1532,0.61281 -0.65112,1.07243 -1.22563,1.53204 -0.57452,0.45961 -0.88093,0.68942 -1.60865,0.61282 -0.72772,-0.0766 -1.37884,-0.49792 -1.45544,-0.19151 -0.0766,0.30641 -0.0766,1.30224 -0.38301,2.02996 -0.30641,0.72772 -0.84263,1.18734 -1.22564,1.34054 -0.38301,0.1532 -1.83845,0.26811 -2.02996,0.30641 -0.1915,0.0383 -0.49791,0.45961 -1.14903,0.45961 -0.65112,0 -0.76602,-0.2298 -1.14903,-0.26811 -0.38301,-0.0383 -0.84263,0.0383 -1.26394,-0.1532 -0.42131,-0.19151 -1.07243,-0.49791 -1.49374,-0.45961 -0.42131,0.0383 -0.34471,0.42131 -0.95753,0.72772 -0.61281,0.30641 -1.45544,0.53621 -2.18316,0.61281 -0.72772,0.0766 -0.84262,0.0383 -1.76185,-0.1915 -0.91923,-0.22981 -1.41714,-0.22981 -2.06826,-0.34471 -0.65112,-0.1149 -1.87675,-0.0766 -1.99166,-0.49791 -0.1149,-0.42132 -0.95753,-0.57452 -1.30223,-0.91923 -0.34471,-0.34471 -0.57452,-1.26394 -0.53622,-2.02996 0.0383,-0.76602 0.42131,-1.64695 0.65112,-1.95336 0.2298,-0.3064 0.80432,-0.95752 0.1149,-1.26393 -0.68942,-0.30641 -0.76602,-0.30641 -1.80015,-0.95753 -1.034128,-0.65112 -1.302236,-0.26811 -2.757677,-1.34054 -1.455444,-1.07243 -2.566175,-1.99166 -4.749337,-2.45127 -2.183162,-0.45961 -3.10239,0 -3.676907,-0.65112 -0.574516,-0.65112 -1.340538,-0.2298 -1.340538,-1.64694 0,-1.41715 -0.229806,-2.10657 -0.38301,-3.4471 -0.153205,-1.34054 -0.114904,-2.18317 0.38301,-3.06409 0.497915,-0.88092 0.306409,-1.22563 0.268108,-2.56618 -0.0383,-1.34053 -0.536215,-2.87258 -0.229806,-4.51952 0.306408,-1.64695 0.919226,-3.2556 1.149032,-3.75351 0.229806,-0.49792 0.34471,-0.84263 0.421312,-2.02996 0.0766,-1.18733 0,-3.6386 -0.306409,-6.12818 -0.306408,-2.48957 -0.191505,-2.98748 -0.0766,-4.09821 0.114903,-1.11073 -0.114903,-2.22147 0.191505,-3.4854 0.306409,-1.26394 1.110732,-3.4471 2.144864,-5.13235 1.034129,-1.68525 2.642774,-5.51536 3.447097,-7.23891 0.804323,-1.72355 2.681079,-4.40462 4.059918,-6.16647 1.378838,-1.76185 3.178988,-3.63861 3.561998,-3.94502 0.38301,-0.30641 0.99583,-0.91922 1.07243,-1.14903 0.0766,-0.22981 0.46687,-1.85864 0.46687,-1.85864 z"
         id="path173" />
      <g
         id="g204">
        <path
           style="fill:#ffffff;fill-opacity:1;stroke:none;stroke-width:0.15;stroke-dasharray:none"
           d="m 134.34937,90.238097 c 1.23873,3.569214 1.25972,4.933913 1.59565,6.52956 0.33592,1.595649 0.71384,2.792386 1.21773,4.031113 0.50389,1.23873 0.81882,2.51944 0.9028,2.77139 0.084,0.25194 0.48289,1.53266 0.48289,1.61664 0,0.084 -0.50389,-1.42768 -0.79782,-2.33049 -0.29394,-0.9028 -1.07077,-3.002334 -1.42769,-4.031105 -0.35692,-1.028774 -0.8818,-3.842155 -1.02877,-4.681969 -0.14697,-0.839814 -0.94479,-3.905139 -0.94479,-3.905139 z"
           id="path199" />
        <path
           style="fill:#ffffff;fill-opacity:1;stroke:none;stroke-width:0.15;stroke-dasharray:none"
           d="m 138.42247,90.385065 c -0.48289,3.317269 -0.60887,6.48757 -0.65086,8.062222 -0.042,1.574653 0.58787,4.052103 0.77683,4.493013 0.18896,0.4409 0.27294,1.57465 0.31493,1.65863 0.042,0.084 -0.37791,-0.14697 -0.50389,-0.75583 -0.12597,-0.60887 -0.62986,-2.58243 -0.73483,-3.71618 -0.10498,-1.133752 -0.23095,-4.073106 -0.021,-5.521785 0.20996,-1.448681 0.81882,-4.22007 0.81882,-4.22007 z"
           id="path200" />
        <path
           style="fill:#ffffff;fill-opacity:1;stroke:none;stroke-width:0.15;stroke-dasharray:none"
           d="m 142.28562,96.074811 c -1.3647,1.994559 -2.2885,3.191296 -2.60343,4.786949 -0.31493,1.59564 0.084,3.1493 0.12598,3.65319 0.042,0.50389 -0.042,1.61664 -0.042,1.8056 0,0.18896 -0.20995,-0.37792 -0.18895,-0.96579 0.021,-0.58787 0,-2.2675 -0.063,-3.10731 -0.063,-0.83982 0.27294,-2.45646 0.9028,-3.611205 0.62986,-1.154745 1.86859,-2.561434 1.86859,-2.561434 z"
           id="path201" />
        <path
           style="fill:#ffffff;fill-opacity:1;stroke:none;stroke-width:0.15;stroke-dasharray:none"
           d="m 145.62388,97.25055 c -0.86081,3.50623 -1.09176,4.9969 -1.13375,6.59255 -0.042,1.59565 -0.16796,2.51944 -0.16796,2.43546 0,-0.084 -0.10498,-1.49067 0,-2.87637 0.10497,-1.38569 0.23095,-2.49844 0.41991,-3.464232 0.18896,-0.965788 0.8818,-2.687408 0.8818,-2.687408 z"
           id="path202" />
        <path
           style="fill:#ffffff;fill-opacity:1;stroke:none;stroke-width:0.15;stroke-dasharray:none"
           d="m 150.59978,98.97217 c -2.87636,2.16252 -3.54821,2.91836 -4.26206,4.535 -0.71384,1.61664 -1.21773,3.56921 -1.23872,3.77917 -0.021,0.20995 -0.063,-1.3647 0.16796,-1.72162 0.23095,-0.35692 1.13375,-3.12831 1.78461,-3.88415 0.65085,-0.75583 3.54821,-2.7084 3.54821,-2.7084 z"
           id="path203" />
        <path
           style="fill:#ffffff;fill-opacity:1;stroke:none;stroke-width:0.15;stroke-dasharray:none"
           d="m 148.01736,105.33377 c -1.07077,0.77683 -1.80561,1.84759 -2.03656,2.2675 -0.23095,0.4199 -0.71384,1.72162 -0.67185,1.30171 0.042,-0.41991 0.81882,-1.91058 0.98678,-2.14153 0.16797,-0.23095 1.72163,-1.42768 1.72163,-1.42768 z"
           id="path204" />
      </g>
      <g
         id="g212">
        <path
           style="fill:#ffffff;fill-opacity:1;stroke:none;stroke-width:0.15;stroke-dasharray:none"
           d="m 124.18761,122.52898 c 2.51944,-1.17575 5.4588,-1.88959 7.74729,-2.16253 2.2885,-0.27294 5.20685,-0.65085 5.20685,-0.65085 0,0 0.39891,0.084 0.18896,0.10497 -0.20995,0.021 -3.23328,0.31493 -4.80794,0.58787 -1.57465,0.27294 -4.28305,0.79783 -5.22785,1.11276 -0.94479,0.31493 -3.10731,1.00778 -3.10731,1.00778 z"
           id="path209" />
        <path
           style="fill:#ffffff;fill-opacity:1;stroke:none;stroke-width:0.15;stroke-dasharray:none"
           d="m 126.959,127.63085 c 2.18352,-2.03655 4.76595,-3.54822 5.85771,-4.15708 1.09175,-0.60887 4.49301,-2.20452 4.34604,-2.20452 -0.14697,0 -1.11276,0.41991 -1.95257,0.79783 -0.83982,0.37792 -3.86315,2.12053 -4.80794,2.6874 -0.94479,0.56688 -3.44324,2.87637 -3.44324,2.87637 z"
           id="path210" />
        <path
           style="fill:#ffffff;fill-opacity:1;stroke:none;stroke-width:0.15;stroke-dasharray:none"
           d="m 133.15263,127.3999 c 2.09954,-2.62442 3.98912,-4.47201 4.59799,-4.9759 0.60886,-0.50389 1.53266,-0.9238 1.53266,-0.9238 0,0 -0.41991,-0.084 -0.48289,0.084 -0.063,0.16797 -2.2885,1.3857 -3.14931,2.54044 -0.86081,1.15475 -2.49845,3.27528 -2.49845,3.27528 z"
           id="path211" />
        <path
           style="fill:#ffffff;fill-opacity:1;stroke:none;stroke-width:0.15;stroke-dasharray:none"
           d="m 136.19696,127.31592 c 1.72162,-2.49845 2.93935,-3.84215 3.31727,-4.15708 0.37792,-0.31494 1.8266,-1.8266 1.49067,-1.72162 -0.33593,0.10497 -1.67963,1.40668 -2.07854,1.97356 -0.39891,0.56688 -1.3857,1.46968 -1.59565,1.97357 -0.20995,0.50389 -1.13375,1.93157 -1.13375,1.93157 z"
           id="path212" />
      </g>
    </g>
    <g
       id="g1481"
       transform="matrix(1.3898253,0,0,1.3898253,-22.004856,-1.9246106)">
      <circle
         style="fill:#d35f5f;stroke-width:0.264999;stroke-dasharray:none"
         id="path1476"
         cx="73.907516"
         cy="35.449825"
         r="4.2969489" />
      <rect
         style="fill:none;stroke:#2c5aa0;stroke-width:0.143903;stroke-dasharray:0.431709, 0.431709;stroke-dashoffset:0"
         id="rect1477"
         width="8.5737944"
         height="8.5237465"
         x="69.644333"
         y="31.202877" />
      <ellipse
         style="fill:#ffffff;stroke:#000000;stroke-width:0.143903;stroke-dasharray:none;stroke-dashoffset:0"
         id="path1477"
         cx="78.236694"
         cy="35.449825"
         rx="0.38786784"
         ry="0.37535599" />
      <rect
         style="fill:#ffffff;stroke:#000000;stroke-width:0.143903;stroke-dasharray:none;stroke-dashoffset:0"
         id="rect1478"
         width="0.67564076"
         height="0.67564076"
         x="73.569695"
         y="30.854261" />
      <rect
         style="fill:#ffffff;stroke:#000000;stroke-width:0.143903;stroke-dasharray:none;stroke-dashoffset:0"
         id="rect1479"
         width="0.67564076"
         height="0.67564076"
         x="69.315659"
         y="35.112003" />
      <g
         id="g1480"
         transform="rotate(45,78.816208,24.654487)">
        <path
           style="fill:#ffffff;stroke:#000000;stroke-width:0.1;stroke-linecap:round;stroke-dasharray:none;stroke-dashoffset:0"
           d="m 82.47822,35.758913 h 1.000951"
           id="path1479" />
        <path
           style="fill:#ffffff;stroke:#000000;stroke-width:0.1;stroke-linecap:round;stroke-dasharray:none;stroke-dashoffset:0"
           d="m 82.978696,35.258437 v 1.000951"
           id="path1480" />
      </g>
    </g>
    <rect
       style="fill:#deaa87;stroke:none;stroke-width:1;stroke-linecap:round;stroke-dasharray:none;stroke-dashoffset:0;stroke-opacity:1"
       id="rect1482"
       width="36.476677"
       height="6.5382724"
       x="122.67863"
       y="46.371773" />
    <path
       style="fill:#ffdd55;stroke:#d40000;stroke-width:1;stroke-linecap:round;stroke-dasharray:none;stroke-dashoffset:0;stroke-opacity:1"
       id="path1482"
       d="m 140.22873,19.946482 7.8665,5.715344 -3.00474,9.247622 -9.72352,0 -3.00474,-9.247622 z"
       transform="translate(0,8.9958326)" />
  </g>
  <g
     id="layer2"
     style="display:none"
     transform="translate(-15.868327,-17.692361)">
    <rect
       style="display:inline;fill:none;stroke:#000000;stroke-width:0.380771;stroke-dasharray:none"
       id="rect1481"
       width="171.97917"
       height="39.6875"
       x="16.058712"
       y="17.882748" />
  </g>
  <script
     id="mesh_polyfill"
     type="text/javascript">
!function(){const t=&quot;http://www.w3.org/2000/svg&quot;,e=&quot;http://www.w3.org/1999/xlink&quot;,s=&quot;http://www.w3.org/1999/xhtml&quot;,r=2;if(document.createElementNS(t,&quot;meshgradient&quot;).x)return;const n=(t,e,s,r)=&gt;{let n=new x(.5*(e.x+s.x),.5*(e.y+s.y)),o=new x(.5*(t.x+e.x),.5*(t.y+e.y)),i=new x(.5*(s.x+r.x),.5*(s.y+r.y)),a=new x(.5*(n.x+o.x),.5*(n.y+o.y)),h=new x(.5*(n.x+i.x),.5*(n.y+i.y)),l=new x(.5*(a.x+h.x),.5*(a.y+h.y));return[[t,o,a,l],[l,h,i,r]]},o=t=&gt;{let e=t[0].distSquared(t[1]),s=t[2].distSquared(t[3]),r=.25*t[0].distSquared(t[2]),n=.25*t[1].distSquared(t[3]),o=e&gt;s?e:s,i=r&gt;n?r:n;return 18*(o&gt;i?o:i)},i=(t,e)=&gt;Math.sqrt(t.distSquared(e)),a=(t,e)=&gt;t.scale(2/3).add(e.scale(1/3)),h=t=&gt;{let e,s,r,n,o,i,a,h=new g;return t.match(/(\w+\(\s*[^)]+\))+/g).forEach(t=&gt;{let l=t.match(/[\w.-]+/g),d=l.shift();switch(d){case&quot;translate&quot;:2===l.length?e=new g(1,0,0,1,l[0],l[1]):(console.error(&quot;mesh.js: translate does not have 2 arguments!&quot;),e=new g(1,0,0,1,0,0)),h=h.append(e);break;case&quot;scale&quot;:1===l.length?s=new g(l[0],0,0,l[0],0,0):2===l.length?s=new g(l[0],0,0,l[1],0,0):(console.error(&quot;mesh.js: scale does not have 1 or 2 arguments!&quot;),s=new g(1,0,0,1,0,0)),h=h.append(s);break;case&quot;rotate&quot;:if(3===l.length&amp;&amp;(e=new g(1,0,0,1,l[1],l[2]),h=h.append(e)),l[0]){r=l[0]*Math.PI/180;let t=Math.cos(r),e=Math.sin(r);Math.abs(t)&lt;1e-16&amp;&amp;(t=0),Math.abs(e)&lt;1e-16&amp;&amp;(e=0),a=new g(t,e,-e,t,0,0),h=h.append(a)}else console.error(&quot;math.js: No argument to rotate transform!&quot;);3===l.length&amp;&amp;(e=new g(1,0,0,1,-l[1],-l[2]),h=h.append(e));break;case&quot;skewX&quot;:l[0]?(r=l[0]*Math.PI/180,n=Math.tan(r),o=new g(1,0,n,1,0,0),h=h.append(o)):console.error(&quot;math.js: No argument to skewX transform!&quot;);break;case&quot;skewY&quot;:l[0]?(r=l[0]*Math.PI/180,n=Math.tan(r),i=new g(1,n,0,1,0,0),h=h.append(i)):console.error(&quot;math.js: No argument to skewY transform!&quot;);break;case&quot;matrix&quot;:6===l.length?h=h.append(new g(...l)):console.error(&quot;math.js: Incorrect number of arguments for matrix!&quot;);break;default:console.error(&quot;mesh.js: Unhandled transform type: &quot;+d)}}),h},l=t=&gt;{let e=[],s=t.split(/[ ,]+/);for(let t=0,r=s.length-1;t&lt;r;t+=2)e.push(new x(parseFloat(s[t]),parseFloat(s[t+1])));return e},d=(t,e)=&gt;{for(let s in e)t.setAttribute(s,e[s])},c=(t,e,s,r,n)=&gt;{let o,i,a=[0,0,0,0];for(let h=0;h&lt;3;++h)e[h]&lt;t[h]&amp;&amp;e[h]&lt;s[h]||t[h]&lt;e[h]&amp;&amp;s[h]&lt;e[h]?a[h]=0:(a[h]=.5*((e[h]-t[h])/r+(s[h]-e[h])/n),o=Math.abs(3*(e[h]-t[h])/r),i=Math.abs(3*(s[h]-e[h])/n),a[h]&gt;o?a[h]=o:a[h]&gt;i&amp;&amp;(a[h]=i));return a},u=[[1,0,0,0,0,0,0,0,0,0,0,0,0,0,0,0],[0,0,0,0,1,0,0,0,0,0,0,0,0,0,0,0],[-3,3,0,0,-2,-1,0,0,0,0,0,0,0,0,0,0],[2,-2,0,0,1,1,0,0,0,0,0,0,0,0,0,0],[0,0,0,0,0,0,0,0,1,0,0,0,0,0,0,0],[0,0,0,0,0,0,0,0,0,0,0,0,1,0,0,0],[0,0,0,0,0,0,0,0,-3,3,0,0,-2,-1,0,0],[0,0,0,0,0,0,0,0,2,-2,0,0,1,1,0,0],[-3,0,3,0,0,0,0,0,-2,0,-1,0,0,0,0,0],[0,0,0,0,-3,0,3,0,0,0,0,0,-2,0,-1,0],[9,-9,-9,9,6,3,-6,-3,6,-6,3,-3,4,2,2,1],[-6,6,6,-6,-3,-3,3,3,-4,4,-2,2,-2,-2,-1,-1],[2,0,-2,0,0,0,0,0,1,0,1,0,0,0,0,0],[0,0,0,0,2,0,-2,0,0,0,0,0,1,0,1,0],[-6,6,6,-6,-4,-2,4,2,-3,3,-3,3,-2,-1,-2,-1],[4,-4,-4,4,2,2,-2,-2,2,-2,2,-2,1,1,1,1]],f=t=&gt;{let e=[];for(let s=0;s&lt;16;++s){e[s]=0;for(let r=0;r&lt;16;++r)e[s]+=u[s][r]*t[r]}return e},p=(t,e,s)=&gt;{const r=e*e,n=s*s,o=e*e*e,i=s*s*s;return t[0]+t[1]*e+t[2]*r+t[3]*o+t[4]*s+t[5]*s*e+t[6]*s*r+t[7]*s*o+t[8]*n+t[9]*n*e+t[10]*n*r+t[11]*n*o+t[12]*i+t[13]*i*e+t[14]*i*r+t[15]*i*o},y=t=&gt;{let e=[],s=[],r=[];for(let s=0;s&lt;4;++s)e[s]=[],e[s][0]=n(t[0][s],t[1][s],t[2][s],t[3][s]),e[s][1]=[],e[s][1].push(...n(...e[s][0][0])),e[s][1].push(...n(...e[s][0][1])),e[s][2]=[],e[s][2].push(...n(...e[s][1][0])),e[s][2].push(...n(...e[s][1][1])),e[s][2].push(...n(...e[s][1][2])),e[s][2].push(...n(...e[s][1][3]));for(let t=0;t&lt;8;++t){s[t]=[];for(let r=0;r&lt;4;++r)s[t][r]=[],s[t][r][0]=n(e[0][2][t][r],e[1][2][t][r],e[2][2][t][r],e[3][2][t][r]),s[t][r][1]=[],s[t][r][1].push(...n(...s[t][r][0][0])),s[t][r][1].push(...n(...s[t][r][0][1])),s[t][r][2]=[],s[t][r][2].push(...n(...s[t][r][1][0])),s[t][r][2].push(...n(...s[t][r][1][1])),s[t][r][2].push(...n(...s[t][r][1][2])),s[t][r][2].push(...n(...s[t][r][1][3]))}for(let t=0;t&lt;8;++t){r[t]=[];for(let e=0;e&lt;8;++e)r[t][e]=[],r[t][e][0]=s[t][0][2][e],r[t][e][1]=s[t][1][2][e],r[t][e][2]=s[t][2][2][e],r[t][e][3]=s[t][3][2][e]}return r};class x{constructor(t,e){this.x=t||0,this.y=e||0}toString(){return`(x=${this.x}, y=${this.y})`}clone(){return new x(this.x,this.y)}add(t){return new x(this.x+t.x,this.y+t.y)}scale(t){return void 0===t.x?new x(this.x*t,this.y*t):new x(this.x*t.x,this.y*t.y)}distSquared(t){let e=this.x-t.x,s=this.y-t.y;return e*e+s*s}transform(t){let e=this.x*t.a+this.y*t.c+t.e,s=this.x*t.b+this.y*t.d+t.f;return new x(e,s)}}class g{constructor(t,e,s,r,n,o){void 0===t?(this.a=1,this.b=0,this.c=0,this.d=1,this.e=0,this.f=0):(this.a=t,this.b=e,this.c=s,this.d=r,this.e=n,this.f=o)}toString(){return`affine: ${this.a} ${this.c} ${this.e} \n       ${this.b} ${this.d} ${this.f}`}append(t){t instanceof g||console.error(&quot;mesh.js: argument to Affine.append is not affine!&quot;);let e=this.a*t.a+this.c*t.b,s=this.b*t.a+this.d*t.b,r=this.a*t.c+this.c*t.d,n=this.b*t.c+this.d*t.d,o=this.a*t.e+this.c*t.f+this.e,i=this.b*t.e+this.d*t.f+this.f;return new g(e,s,r,n,o,i)}}class w{constructor(t,e){this.nodes=t,this.colors=e}paintCurve(t,e){if(o(this.nodes)&gt;r){const s=n(...this.nodes);let r=[[],[]],o=[[],[]];for(let t=0;t&lt;4;++t)r[0][t]=this.colors[0][t],r[1][t]=(this.colors[0][t]+this.colors[1][t])/2,o[0][t]=r[1][t],o[1][t]=this.colors[1][t];let i=new w(s[0],r),a=new w(s[1],o);i.paintCurve(t,e),a.paintCurve(t,e)}else{let s=Math.round(this.nodes[0].x);if(s&gt;=0&amp;&amp;s&lt;e){let r=4*(~~this.nodes[0].y*e+s);t[r]=Math.round(this.colors[0][0]),t[r+1]=Math.round(this.colors[0][1]),t[r+2]=Math.round(this.colors[0][2]),t[r+3]=Math.round(this.colors[0][3])}}}}class m{constructor(t,e){this.nodes=t,this.colors=e}split(){let t=[[],[],[],[]],e=[[],[],[],[]],s=[[[],[]],[[],[]]],r=[[[],[]],[[],[]]];for(let s=0;s&lt;4;++s){const r=n(this.nodes[0][s],this.nodes[1][s],this.nodes[2][s],this.nodes[3][s]);t[0][s]=r[0][0],t[1][s]=r[0][1],t[2][s]=r[0][2],t[3][s]=r[0][3],e[0][s]=r[1][0],e[1][s]=r[1][1],e[2][s]=r[1][2],e[3][s]=r[1][3]}for(let t=0;t&lt;4;++t)s[0][0][t]=this.colors[0][0][t],s[0][1][t]=this.colors[0][1][t],s[1][0][t]=(this.colors[0][0][t]+this.colors[1][0][t])/2,s[1][1][t]=(this.colors[0][1][t]+this.colors[1][1][t])/2,r[0][0][t]=s[1][0][t],r[0][1][t]=s[1][1][t],r[1][0][t]=this.colors[1][0][t],r[1][1][t]=this.colors[1][1][t];return[new m(t,s),new m(e,r)]}paint(t,e){let s,n=!1;for(let t=0;t&lt;4;++t)if((s=o([this.nodes[0][t],this.nodes[1][t],this.nodes[2][t],this.nodes[3][t]]))&gt;r){n=!0;break}if(n){let s=this.split();s[0].paint(t,e),s[1].paint(t,e)}else{new w([...this.nodes[0]],[...this.colors[0]]).paintCurve(t,e)}}}class b{constructor(t){this.readMesh(t),this.type=t.getAttribute(&quot;type&quot;)||&quot;bilinear&quot;}readMesh(t){let e=[[]],s=[[]],r=Number(t.getAttribute(&quot;x&quot;)),n=Number(t.getAttribute(&quot;y&quot;));e[0][0]=new x(r,n);let o=t.children;for(let t=0,r=o.length;t&lt;r;++t){e[3*t+1]=[],e[3*t+2]=[],e[3*t+3]=[],s[t+1]=[];let r=o[t].children;for(let n=0,o=r.length;n&lt;o;++n){let o=r[n].children;for(let r=0,i=o.length;r&lt;i;++r){let i=r;0!==t&amp;&amp;++i;let h,d=o[r].getAttribute(&quot;path&quot;),c=&quot;l&quot;;null!=d&amp;&amp;(c=(h=d.match(/\s*([lLcC])\s*(.*)/))[1]);let u=l(h[2]);switch(c){case&quot;l&quot;:0===i?(e[3*t][3*n+3]=u[0].add(e[3*t][3*n]),e[3*t][3*n+1]=a(e[3*t][3*n],e[3*t][3*n+3]),e[3*t][3*n+2]=a(e[3*t][3*n+3],e[3*t][3*n])):1===i?(e[3*t+3][3*n+3]=u[0].add(e[3*t][3*n+3]),e[3*t+1][3*n+3]=a(e[3*t][3*n+3],e[3*t+3][3*n+3]),e[3*t+2][3*n+3]=a(e[3*t+3][3*n+3],e[3*t][3*n+3])):2===i?(0===n&amp;&amp;(e[3*t+3][3*n+0]=u[0].add(e[3*t+3][3*n+3])),e[3*t+3][3*n+1]=a(e[3*t+3][3*n],e[3*t+3][3*n+3]),e[3*t+3][3*n+2]=a(e[3*t+3][3*n+3],e[3*t+3][3*n])):(e[3*t+1][3*n]=a(e[3*t][3*n],e[3*t+3][3*n]),e[3*t+2][3*n]=a(e[3*t+3][3*n],e[3*t][3*n]));break;case&quot;L&quot;:0===i?(e[3*t][3*n+3]=u[0],e[3*t][3*n+1]=a(e[3*t][3*n],e[3*t][3*n+3]),e[3*t][3*n+2]=a(e[3*t][3*n+3],e[3*t][3*n])):1===i?(e[3*t+3][3*n+3]=u[0],e[3*t+1][3*n+3]=a(e[3*t][3*n+3],e[3*t+3][3*n+3]),e[3*t+2][3*n+3]=a(e[3*t+3][3*n+3],e[3*t][3*n+3])):2===i?(0===n&amp;&amp;(e[3*t+3][3*n+0]=u[0]),e[3*t+3][3*n+1]=a(e[3*t+3][3*n],e[3*t+3][3*n+3]),e[3*t+3][3*n+2]=a(e[3*t+3][3*n+3],e[3*t+3][3*n])):(e[3*t+1][3*n]=a(e[3*t][3*n],e[3*t+3][3*n]),e[3*t+2][3*n]=a(e[3*t+3][3*n],e[3*t][3*n]));break;case&quot;c&quot;:0===i?(e[3*t][3*n+1]=u[0].add(e[3*t][3*n]),e[3*t][3*n+2]=u[1].add(e[3*t][3*n]),e[3*t][3*n+3]=u[2].add(e[3*t][3*n])):1===i?(e[3*t+1][3*n+3]=u[0].add(e[3*t][3*n+3]),e[3*t+2][3*n+3]=u[1].add(e[3*t][3*n+3]),e[3*t+3][3*n+3]=u[2].add(e[3*t][3*n+3])):2===i?(e[3*t+3][3*n+2]=u[0].add(e[3*t+3][3*n+3]),e[3*t+3][3*n+1]=u[1].add(e[3*t+3][3*n+3]),0===n&amp;&amp;(e[3*t+3][3*n+0]=u[2].add(e[3*t+3][3*n+3]))):(e[3*t+2][3*n]=u[0].add(e[3*t+3][3*n]),e[3*t+1][3*n]=u[1].add(e[3*t+3][3*n]));break;case&quot;C&quot;:0===i?(e[3*t][3*n+1]=u[0],e[3*t][3*n+2]=u[1],e[3*t][3*n+3]=u[2]):1===i?(e[3*t+1][3*n+3]=u[0],e[3*t+2][3*n+3]=u[1],e[3*t+3][3*n+3]=u[2]):2===i?(e[3*t+3][3*n+2]=u[0],e[3*t+3][3*n+1]=u[1],0===n&amp;&amp;(e[3*t+3][3*n+0]=u[2])):(e[3*t+2][3*n]=u[0],e[3*t+1][3*n]=u[1]);break;default:console.error(&quot;mesh.js: &quot;+c+&quot; invalid path type.&quot;)}if(0===t&amp;&amp;0===n||r&gt;0){let e=window.getComputedStyle(o[r]).stopColor.match(/^rgb\s*\(\s*(\d+)\s*,\s*(\d+)\s*,\s*(\d+)\s*\)$/i),a=window.getComputedStyle(o[r]).stopOpacity,h=255;a&amp;&amp;(h=Math.floor(255*a)),e&amp;&amp;(0===i?(s[t][n]=[],s[t][n][0]=Math.floor(e[1]),s[t][n][1]=Math.floor(e[2]),s[t][n][2]=Math.floor(e[3]),s[t][n][3]=h):1===i?(s[t][n+1]=[],s[t][n+1][0]=Math.floor(e[1]),s[t][n+1][1]=Math.floor(e[2]),s[t][n+1][2]=Math.floor(e[3]),s[t][n+1][3]=h):2===i?(s[t+1][n+1]=[],s[t+1][n+1][0]=Math.floor(e[1]),s[t+1][n+1][1]=Math.floor(e[2]),s[t+1][n+1][2]=Math.floor(e[3]),s[t+1][n+1][3]=h):3===i&amp;&amp;(s[t+1][n]=[],s[t+1][n][0]=Math.floor(e[1]),s[t+1][n][1]=Math.floor(e[2]),s[t+1][n][2]=Math.floor(e[3]),s[t+1][n][3]=h))}}e[3*t+1][3*n+1]=new x,e[3*t+1][3*n+2]=new x,e[3*t+2][3*n+1]=new x,e[3*t+2][3*n+2]=new x,e[3*t+1][3*n+1].x=(-4*e[3*t][3*n].x+6*(e[3*t][3*n+1].x+e[3*t+1][3*n].x)+-2*(e[3*t][3*n+3].x+e[3*t+3][3*n].x)+3*(e[3*t+3][3*n+1].x+e[3*t+1][3*n+3].x)+-1*e[3*t+3][3*n+3].x)/9,e[3*t+1][3*n+2].x=(-4*e[3*t][3*n+3].x+6*(e[3*t][3*n+2].x+e[3*t+1][3*n+3].x)+-2*(e[3*t][3*n].x+e[3*t+3][3*n+3].x)+3*(e[3*t+3][3*n+2].x+e[3*t+1][3*n].x)+-1*e[3*t+3][3*n].x)/9,e[3*t+2][3*n+1].x=(-4*e[3*t+3][3*n].x+6*(e[3*t+3][3*n+1].x+e[3*t+2][3*n].x)+-2*(e[3*t+3][3*n+3].x+e[3*t][3*n].x)+3*(e[3*t][3*n+1].x+e[3*t+2][3*n+3].x)+-1*e[3*t][3*n+3].x)/9,e[3*t+2][3*n+2].x=(-4*e[3*t+3][3*n+3].x+6*(e[3*t+3][3*n+2].x+e[3*t+2][3*n+3].x)+-2*(e[3*t+3][3*n].x+e[3*t][3*n+3].x)+3*(e[3*t][3*n+2].x+e[3*t+2][3*n].x)+-1*e[3*t][3*n].x)/9,e[3*t+1][3*n+1].y=(-4*e[3*t][3*n].y+6*(e[3*t][3*n+1].y+e[3*t+1][3*n].y)+-2*(e[3*t][3*n+3].y+e[3*t+3][3*n].y)+3*(e[3*t+3][3*n+1].y+e[3*t+1][3*n+3].y)+-1*e[3*t+3][3*n+3].y)/9,e[3*t+1][3*n+2].y=(-4*e[3*t][3*n+3].y+6*(e[3*t][3*n+2].y+e[3*t+1][3*n+3].y)+-2*(e[3*t][3*n].y+e[3*t+3][3*n+3].y)+3*(e[3*t+3][3*n+2].y+e[3*t+1][3*n].y)+-1*e[3*t+3][3*n].y)/9,e[3*t+2][3*n+1].y=(-4*e[3*t+3][3*n].y+6*(e[3*t+3][3*n+1].y+e[3*t+2][3*n].y)+-2*(e[3*t+3][3*n+3].y+e[3*t][3*n].y)+3*(e[3*t][3*n+1].y+e[3*t+2][3*n+3].y)+-1*e[3*t][3*n+3].y)/9,e[3*t+2][3*n+2].y=(-4*e[3*t+3][3*n+3].y+6*(e[3*t+3][3*n+2].y+e[3*t+2][3*n+3].y)+-2*(e[3*t+3][3*n].y+e[3*t][3*n+3].y)+3*(e[3*t][3*n+2].y+e[3*t+2][3*n].y)+-1*e[3*t][3*n].y)/9}}this.nodes=e,this.colors=s}paintMesh(t,e){let s=(this.nodes.length-1)/3,r=(this.nodes[0].length-1)/3;if(&quot;bilinear&quot;===this.type||s&lt;2||r&lt;2){let n;for(let o=0;o&lt;s;++o)for(let s=0;s&lt;r;++s){let r=[];for(let t=3*o,e=3*o+4;t&lt;e;++t)r.push(this.nodes[t].slice(3*s,3*s+4));let i=[];i.push(this.colors[o].slice(s,s+2)),i.push(this.colors[o+1].slice(s,s+2)),(n=new m(r,i)).paint(t,e)}}else{let n,o,a,h,l,d,u;const x=s,g=r;s++,r++;let w=new Array(s);for(let t=0;t&lt;s;++t){w[t]=new Array(r);for(let e=0;e&lt;r;++e)w[t][e]=[],w[t][e][0]=this.nodes[3*t][3*e],w[t][e][1]=this.colors[t][e]}for(let t=0;t&lt;s;++t)for(let e=0;e&lt;r;++e)0!==t&amp;&amp;t!==x&amp;&amp;(n=i(w[t-1][e][0],w[t][e][0]),o=i(w[t+1][e][0],w[t][e][0]),w[t][e][2]=c(w[t-1][e][1],w[t][e][1],w[t+1][e][1],n,o)),0!==e&amp;&amp;e!==g&amp;&amp;(n=i(w[t][e-1][0],w[t][e][0]),o=i(w[t][e+1][0],w[t][e][0]),w[t][e][3]=c(w[t][e-1][1],w[t][e][1],w[t][e+1][1],n,o));for(let t=0;t&lt;r;++t){w[0][t][2]=[],w[x][t][2]=[];for(let e=0;e&lt;4;++e)n=i(w[1][t][0],w[0][t][0]),o=i(w[x][t][0],w[x-1][t][0]),w[0][t][2][e]=n&gt;0?2*(w[1][t][1][e]-w[0][t][1][e])/n-w[1][t][2][e]:0,w[x][t][2][e]=o&gt;0?2*(w[x][t][1][e]-w[x-1][t][1][e])/o-w[x-1][t][2][e]:0}for(let t=0;t&lt;s;++t){w[t][0][3]=[],w[t][g][3]=[];for(let e=0;e&lt;4;++e)n=i(w[t][1][0],w[t][0][0]),o=i(w[t][g][0],w[t][g-1][0]),w[t][0][3][e]=n&gt;0?2*(w[t][1][1][e]-w[t][0][1][e])/n-w[t][1][3][e]:0,w[t][g][3][e]=o&gt;0?2*(w[t][g][1][e]-w[t][g-1][1][e])/o-w[t][g-1][3][e]:0}for(let s=0;s&lt;x;++s)for(let r=0;r&lt;g;++r){let n=i(w[s][r][0],w[s+1][r][0]),o=i(w[s][r+1][0],w[s+1][r+1][0]),c=i(w[s][r][0],w[s][r+1][0]),x=i(w[s+1][r][0],w[s+1][r+1][0]),g=[[],[],[],[]];for(let t=0;t&lt;4;++t){(d=[])[0]=w[s][r][1][t],d[1]=w[s+1][r][1][t],d[2]=w[s][r+1][1][t],d[3]=w[s+1][r+1][1][t],d[4]=w[s][r][2][t]*n,d[5]=w[s+1][r][2][t]*n,d[6]=w[s][r+1][2][t]*o,d[7]=w[s+1][r+1][2][t]*o,d[8]=w[s][r][3][t]*c,d[9]=w[s+1][r][3][t]*x,d[10]=w[s][r+1][3][t]*c,d[11]=w[s+1][r+1][3][t]*x,d[12]=0,d[13]=0,d[14]=0,d[15]=0,u=f(d);for(let e=0;e&lt;9;++e){g[t][e]=[];for(let s=0;s&lt;9;++s)g[t][e][s]=p(u,e/8,s/8),g[t][e][s]&gt;255?g[t][e][s]=255:g[t][e][s]&lt;0&amp;&amp;(g[t][e][s]=0)}}h=[];for(let t=3*s,e=3*s+4;t&lt;e;++t)h.push(this.nodes[t].slice(3*r,3*r+4));l=y(h);for(let s=0;s&lt;8;++s)for(let r=0;r&lt;8;++r)(a=new m(l[s][r],[[[g[0][s][r],g[1][s][r],g[2][s][r],g[3][s][r]],[g[0][s][r+1],g[1][s][r+1],g[2][s][r+1],g[3][s][r+1]]],[[g[0][s+1][r],g[1][s+1][r],g[2][s+1][r],g[3][s+1][r]],[g[0][s+1][r+1],g[1][s+1][r+1],g[2][s+1][r+1],g[3][s+1][r+1]]]])).paint(t,e)}}}transform(t){if(t instanceof x)for(let e=0,s=this.nodes.length;e&lt;s;++e)for(let s=0,r=this.nodes[0].length;s&lt;r;++s)this.nodes[e][s]=this.nodes[e][s].add(t);else if(t instanceof g)for(let e=0,s=this.nodes.length;e&lt;s;++e)for(let s=0,r=this.nodes[0].length;s&lt;r;++s)this.nodes[e][s]=this.nodes[e][s].transform(t)}scale(t){for(let e=0,s=this.nodes.length;e&lt;s;++e)for(let s=0,r=this.nodes[0].length;s&lt;r;++s)this.nodes[e][s]=this.nodes[e][s].scale(t)}}document.querySelectorAll(&quot;rect,circle,ellipse,path,text&quot;).forEach((r,n)=&gt;{let o=r.getAttribute(&quot;id&quot;);o||(o=&quot;patchjs_shape&quot;+n,r.setAttribute(&quot;id&quot;,o));const i=r.style.fill.match(/^url\(\s*&quot;?\s*#([^\s&quot;]+)&quot;?\s*\)/),a=r.style.stroke.match(/^url\(\s*&quot;?\s*#([^\s&quot;]+)&quot;?\s*\)/);if(i&amp;&amp;i[1]){const a=document.getElementById(i[1]);if(a&amp;&amp;&quot;meshgradient&quot;===a.nodeName){const i=r.getBBox();let l=document.createElementNS(s,&quot;canvas&quot;);d(l,{width:i.width,height:i.height});const c=l.getContext(&quot;2d&quot;);let u=c.createImageData(i.width,i.height);const f=new b(a);&quot;objectBoundingBox&quot;===a.getAttribute(&quot;gradientUnits&quot;)&amp;&amp;f.scale(new x(i.width,i.height));const p=a.getAttribute(&quot;gradientTransform&quot;);null!=p&amp;&amp;f.transform(h(p)),&quot;userSpaceOnUse&quot;===a.getAttribute(&quot;gradientUnits&quot;)&amp;&amp;f.transform(new x(-i.x,-i.y)),f.paintMesh(u.data,l.width),c.putImageData(u,0,0);const y=document.createElementNS(t,&quot;image&quot;);d(y,{width:i.width,height:i.height,x:i.x,y:i.y});let g=l.toDataURL();y.setAttributeNS(e,&quot;xlink:href&quot;,g),r.parentNode.insertBefore(y,r),r.style.fill=&quot;none&quot;;const w=document.createElementNS(t,&quot;use&quot;);w.setAttributeNS(e,&quot;xlink:href&quot;,&quot;#&quot;+o);const m=&quot;patchjs_clip&quot;+n,M=document.createElementNS(t,&quot;clipPath&quot;);M.setAttribute(&quot;id&quot;,m),M.appendChild(w),r.parentElement.insertBefore(M,r),y.setAttribute(&quot;clip-path&quot;,&quot;url(#&quot;+m+&quot;)&quot;),u=null,l=null,g=null}}if(a&amp;&amp;a[1]){const o=document.getElementById(a[1]);if(o&amp;&amp;&quot;meshgradient&quot;===o.nodeName){const i=parseFloat(r.style.strokeWidth.slice(0,-2))*(parseFloat(r.style.strokeMiterlimit)||parseFloat(r.getAttribute(&quot;stroke-miterlimit&quot;))||1),a=r.getBBox(),l=Math.trunc(a.width+i),c=Math.trunc(a.height+i),u=Math.trunc(a.x-i/2),f=Math.trunc(a.y-i/2);let p=document.createElementNS(s,&quot;canvas&quot;);d(p,{width:l,height:c});const y=p.getContext(&quot;2d&quot;);let g=y.createImageData(l,c);const w=new b(o);&quot;objectBoundingBox&quot;===o.getAttribute(&quot;gradientUnits&quot;)&amp;&amp;w.scale(new x(l,c));const m=o.getAttribute(&quot;gradientTransform&quot;);null!=m&amp;&amp;w.transform(h(m)),&quot;userSpaceOnUse&quot;===o.getAttribute(&quot;gradientUnits&quot;)&amp;&amp;w.transform(new x(-u,-f)),w.paintMesh(g.data,p.width),y.putImageData(g,0,0);const M=document.createElementNS(t,&quot;image&quot;);d(M,{width:l,height:c,x:0,y:0});let S=p.toDataURL();M.setAttributeNS(e,&quot;xlink:href&quot;,S);const k=&quot;pattern_clip&quot;+n,A=document.createElementNS(t,&quot;pattern&quot;);d(A,{id:k,patternUnits:&quot;userSpaceOnUse&quot;,width:l,height:c,x:u,y:f}),A.appendChild(M),o.parentNode.appendChild(A),r.style.stroke=&quot;url(#&quot;+k+&quot;)&quot;,g=null,p=null,S=null}}})}();
</script>
</svg>
