<?xml version="1.0" encoding="UTF-8" standalone="no"?>
<!-- Created with Inkscape (http://www.inkscape.org/) -->

<svg
   width="400"
   height="400"
   viewBox="0 0 105.83333 105.83333"
   version="1.1"
   id="svg1"
   inkscape:version="1.4.2 (ebf0e940d0, 2025-05-08)"
   sodipodi:docname="spiraali.svg"
   xmlns:inkscape="http://www.inkscape.org/namespaces/inkscape"
   xmlns:sodipodi="http://sodipodi.sourceforge.net/DTD/sodipodi-0.dtd"
   xmlns="http://www.w3.org/2000/svg"
   xmlns:svg="http://www.w3.org/2000/svg">
  <sodipodi:namedview
     id="namedview1"
     pagecolor="#ffffff"
     bordercolor="#000000"
     borderopacity="0.25"
     inkscape:showpageshadow="2"
     inkscape:pageopacity="0.0"
     inkscape:pagecheckerboard="0"
     inkscape:deskcolor="#d1d1d1"
     inkscape:document-units="mm"
     inkscape:zoom="2.0933019"
     inkscape:cx="174.36567"
     inkscape:cy="342.28221"
     inkscape:window-width="1919"
     inkscape:window-height="2088"
     inkscape:window-x="0"
     inkscape:window-y="0"
     inkscape:window-maximized="0"
     inkscape:current-layer="layer1" />
  <defs
     id="defs1" />
  <g
     inkscape:label="Taso 1"
     inkscape:groupmode="layer"
     id="layer1">
    <path
       sodipodi:type="spiral"
       style="fill:none;fill-rule:evenodd;stroke:#d40000;stroke-width:3"
       id="path2"
       sodipodi:cx="52.916664"
       sodipodi:cy="52.916664"
       sodipodi:expansion="1"
       sodipodi:revolution="3"
       sodipodi:radius="45.930031"
       sodipodi:argument="-18.682734"
       sodipodi:t0="0"
       d="m 52.916664,52.916664 c 2.270889,0.382389 0.604924,3.24977 -0.635555,3.774367 -3.361623,1.421624 -6.474761,-1.964447 -6.913179,-5.045478 -0.784225,-5.511242 4.28932,-9.833426 9.455401,-10.051989 7.581432,-0.320752 13.255831,6.632792 13.1908,13.865323 -0.08667,9.639825 -8.981172,16.703247 -18.275245,16.329611 C 38.043244,71.318316 29.575722,60.457021 30.270463,49.10333 31.111888,35.35249 43.953246,25.473091 57.365553,26.496096 73.171493,27.701672 84.467349,42.530796 83.111599,58.001109 81.546332,75.862198 64.724574,88.577451 47.196664,86.885966 27.280338,84.963993 13.143681,66.146325 15.172996,46.561108 17.449581,24.589454 38.265467,9.0299598 59.907776,11.398629 c 24.027065,2.629672 41.010454,25.445466 38.30129,49.144703"
       transform="translate(-3.8194382,3.8180358)" />
  </g>
</svg>
